<svg xmlns="http://www.w3.org/2000/svg" viewBox="0 0 466.21 439.4"><defs><style>.cls-1{isolation:isolate;}.cls-2{fill:#f7ebf2;}.cls-11,.cls-21,.cls-26,.cls-3,.cls-31,.cls-32,.cls-35,.cls-48,.cls-49{mix-blend-mode:multiply;}.cls-4,.cls-5{fill:none;stroke:#000;stroke-linecap:round;stroke-linejoin:round;stroke-width:0.6px;}.cls-5{stroke-dasharray:0.02 2;}.cls-12,.cls-6{fill:#fff;}.cls-7{fill:#998d47;}.cls-8{fill:#703458;}.cls-9{fill:#e85db0;}.cls-10,.cls-43{fill:#f9eb87;}.cls-11{opacity:0.36;}.cls-12{font-size:16.97px;}.cls-12,.cls-43{font-family:Ofissina;}.cls-13{letter-spacing:0.01em;}.cls-14{letter-spacing:-0.02em;}.cls-15{letter-spacing:0em;}.cls-16{letter-spacing:0.01em;}.cls-17{fill:#5fcdd3;}.cls-18{fill:#52c17e;}.cls-19{fill:#703246;}.cls-20{fill:#c64e79;}.cls-21{opacity:0.39;}.cls-22{fill:#2f6b6b;}.cls-23{fill:#fbc98e;}.cls-24{fill:#dadff5;}.cls-25{fill:#99ad44;}.cls-26{opacity:0.32;}.cls-27{opacity:0.26;}.cls-28{fill:#f9a0a9;}.cls-29{fill:#a15a40;}.cls-30{fill:#e07758;}.cls-31{opacity:0.22;}.cls-32{opacity:0.21;}.cls-33{fill:#0c698e;}.cls-34,.cls-35{fill:#0671a3;}.cls-36{fill:#3aafdd;}.cls-37{fill:#e8919d;}.cls-38,.cls-48{fill:#723355;}.cls-39{fill:#e54c99;}.cls-40{fill:#a05764;}.cls-41{fill:#753257;}.cls-42{fill:#ddcd6f;}.cls-43{font-size:20.88px;}.cls-44{letter-spacing:-0.03em;}.cls-45{letter-spacing:-0.01em;}.cls-46{letter-spacing:0.01em;}.cls-47{fill:#768425;}.cls-48{opacity:0.42;}.cls-49{opacity:0.18;}</style></defs><g class="cls-1"><g id="Layer_2" data-name="Layer 2"><g id="OBJECTS"><rect class="cls-2" x="207.94" y="94.18" width="239.81" height="332.92" rx="11.42" transform="translate(35 -38.79) rotate(7.15)"/><g class="cls-3"><path class="cls-2" d="M441.65,117.76,252.87,94.07a14,14,0,0,1-15.58,12.11L201.93,387.93A14,14,0,0,1,214,403.52l188.77,23.69A14,14,0,0,1,418.4,415.1l35.36-281.75A14,14,0,0,1,441.65,117.76Z"/></g><line class="cls-4" x1="254.38" y1="163.41" x2="254.39" y2="163.42"/><line class="cls-5" x1="256.37" y1="163.67" x2="422.05" y2="184.46"/><line class="cls-4" x1="423.04" y1="184.58" x2="423.05" y2="184.58"/><line class="cls-4" x1="251.94" y1="182.82" x2="251.95" y2="182.82"/><line class="cls-5" x1="253.94" y1="183.07" x2="419.61" y2="203.86"/><line class="cls-4" x1="420.61" y1="203.99" x2="420.62" y2="203.99"/><line class="cls-4" x1="249.51" y1="202.23" x2="249.52" y2="202.23"/><line class="cls-5" x1="251.5" y1="202.48" x2="417.18" y2="223.27"/><line class="cls-4" x1="418.17" y1="223.39" x2="418.18" y2="223.4"/><line class="cls-4" x1="247.07" y1="221.64" x2="247.08" y2="221.64"/><line class="cls-5" x1="249.07" y1="221.89" x2="414.74" y2="242.68"/><line class="cls-4" x1="415.74" y1="242.8" x2="415.75" y2="242.8"/><line class="cls-4" x1="244.64" y1="241.04" x2="244.65" y2="241.05"/><line class="cls-5" x1="246.63" y1="241.29" x2="412.31" y2="262.08"/><line class="cls-4" x1="413.3" y1="262.21" x2="413.31" y2="262.21"/><line class="cls-4" x1="242.2" y1="260.45" x2="242.21" y2="260.45"/><line class="cls-5" x1="244.2" y1="260.7" x2="409.87" y2="281.49"/><line class="cls-4" x1="410.87" y1="281.62" x2="410.88" y2="281.62"/><line class="cls-4" x1="239.76" y1="279.86" x2="239.77" y2="279.86"/><line class="cls-5" x1="241.76" y1="280.11" x2="407.44" y2="300.9"/><line class="cls-4" x1="408.43" y1="301.02" x2="408.44" y2="301.02"/><line class="cls-4" x1="237.33" y1="299.27" x2="237.34" y2="299.27"/><line class="cls-5" x1="239.33" y1="299.52" x2="405" y2="320.31"/><line class="cls-4" x1="406" y1="320.43" x2="406.01" y2="320.43"/><line class="cls-4" x1="234.89" y1="318.67" x2="234.9" y2="318.67"/><line class="cls-5" x1="236.89" y1="318.92" x2="402.57" y2="339.71"/><line class="cls-4" x1="403.56" y1="339.84" x2="403.57" y2="339.84"/><path class="cls-6" d="M364.66,134.23c-.84-.33-10.57-1.89-10.53-1.65a32.7,32.7,0,0,0-3.68-10.73c-.95-1.72-2.27-3.5-4.2-3.88a2.87,2.87,0,0,0-.5-.07,3.86,3.86,0,0,0-.49-.06c-2-.11-3.68,1.29-5,2.73a32.4,32.4,0,0,0-6.21,9.48c.09-.22-9.72-1.11-10.62-1-4.24.53-8,3.52-5.11,7.82a22.75,22.75,0,0,0,9.37,7.9,40.9,40.9,0,0,0-3.06,11.29,7,7,0,0,0,.6,4.68,4.93,4.93,0,0,0,4.1,2.05,11,11,0,0,0,4.6-1.16,30.58,30.58,0,0,0,7-4.62,30,30,0,0,0,5.59,6.19,10.8,10.8,0,0,0,4.16,2.27,5,5,0,0,0,4.49-1,7.08,7.08,0,0,0,1.74-4.39,41,41,0,0,0-.18-11.7,22.67,22.67,0,0,0,11-5.34C371.57,139.63,368.64,135.8,364.66,134.23Z"/><path class="cls-7" d="M336.17,139.15c.32,0,.71-1,.88-2.35s.05-2.46-.27-2.5-.71,1-.88,2.35S335.85,139.11,336.17,139.15Z"/><path class="cls-7" d="M349.79,140.86c.32,0,.71-1,.88-2.35s.05-2.46-.27-2.5-.71,1-.88,2.35S349.47,140.82,349.79,140.86Z"/><path class="cls-8" d="M338.89,137.47c-.15,2.62,1.38,4.89,3.56,5.17s4.23-1.55,4.73-4.13Z"/><path class="cls-9" d="M342.45,142.64a3.78,3.78,0,0,0,3-1,3.69,3.69,0,0,0-5.73-.72A3.84,3.84,0,0,0,342.45,142.64Z"/><circle class="cls-6" cx="452.84" cy="122.46" r="3.27"/><circle class="cls-6" cx="239.99" cy="95.75" r="3.27"/><circle class="cls-6" cx="414.84" cy="425.33" r="3.27"/><circle class="cls-6" cx="201.99" cy="398.62" r="3.27"/><path class="cls-10" d="M404.42,383c-.11-5.82.6-13.34-3.51-17.89C395,358.52,383,357.83,374.75,357c-9.92-1.07-19.91-1.11-29.88-1.4-5.87-.18-11.82-.34-17.53,1-3,.7-6.07,1.95-7.86,4.45-1.49,2.08-1.88,4.72-2.22,7.24-.16,1.19-.31,2.39-.46,3.58l-10.68,1.25c-.27,0-.63.17-.59.44a.56.56,0,0,0,.19.27c3.07,2.83,6.9,4.74,10.18,7.31a83.5,83.5,0,0,0,.31,16.2,13,13,0,0,0,.93,3.79c2,4.24,7.31,5.49,11.95,6.06q17,2.09,34.13,3.09c10.29.6,21.31,2,31.41-.42,2.05-.48,5-1.44,6.45-3.09s1.61-5,2-7.13A85,85,0,0,0,404.42,383Z"/><g class="cls-11"><path class="cls-10" d="M363.22,410.24c10.29.6,21.31,2,31.41-.42,2.05-.48,5-1.44,6.45-3.09s1.61-5,2-7.13A85,85,0,0,0,404.42,383c-.11-5.82.6-13.34-3.51-17.89C395,358.52,383,357.83,374.75,357l-1.36-.13a99.46,99.46,0,0,0-6.26,7.9c-6.58,9.11-12.7,19-22.15,25.09a53,53,0,0,1-28.8,7.26l0,.23a13,13,0,0,0,.93,3.79c2,4.24,7.31,5.49,11.95,6.06Q346.1,409.24,363.22,410.24Z"/></g><text class="cls-12" transform="translate(317.38 386.96) rotate(3.37)"><tspan class="cls-13">G</tspan><tspan x="11.05" y="0">ood </tspan><tspan class="cls-14" x="42.85" y="0">L</tspan><tspan class="cls-15" x="50.6" y="0">uc</tspan><tspan class="cls-16" x="67.55" y="0">k</tspan><tspan x="75.73" y="0">y!</tspan></text><circle class="cls-17" cx="261.38" cy="370.67" r="34.78"/><path class="cls-18" d="M259,395.13a19.21,19.21,0,0,1-3-2.94,3.67,3.67,0,0,1-.36-3.94c.89-1.36,3.05-1.84,3.3-3.46a3.43,3.43,0,0,0-.65-2.15c-1.71-2.94-3.95-5.89-7.22-6.8-3.72-1-7.55.83-11.27,1.88a2.9,2.9,0,0,1-2.07,0,3.71,3.71,0,0,1-1.26-1.5,8.82,8.82,0,0,0-4.54-3.66c-1.05-.37-2.45-.93-2.29-2a2,2,0,0,1,.49-.93c3.25-4,8.34-6,12.7-8.76s8.46-7.41,7.58-12.51c-.61-3.53-3.59-6.27-7-7.48a34.78,34.78,0,0,0,13.6,64.3,36.24,36.24,0,0,0,4.63.26,6.69,6.69,0,0,0,.71-1.85C263,400.48,261.32,397.3,259,395.13Z"/><path class="cls-18" d="M295.89,375a34.77,34.77,0,0,0-28.08-38.5,5.8,5.8,0,0,0-.52.34c-2.73,2-4.39,5.31-4,9.82a8,8,0,0,0,1.53,4.25,4.45,4.45,0,0,0,4,1.74c1.92-.3,3.26-2.07,5.08-2.74a9.41,9.41,0,0,1,4.83,0,13.57,13.57,0,0,1,4.52,1.33,4.59,4.59,0,0,1,2.49,3.77c0,2-1.77,3.57-3.5,4.6-4.46,2.65-8.81,4.77-5.21,10.76a16.43,16.43,0,0,0,2.27,2.85,90.37,90.37,0,0,0,6.71,8.19,7.2,7.2,0,0,1,.49,2.61c0,2.94-2,5.45-3.36,8.05-1.06,2-1.75,4.52-1.1,6.56A34.67,34.67,0,0,0,295.89,375Z"/><path class="cls-19" d="M250.37,366a12.76,12.76,0,0,0,.18,2c1.09,6.26,6.56,10.53,12.21,9.54s9.34-6.86,8.25-13.11a12.66,12.66,0,0,0-.52-2Z"/><path class="cls-20" d="M262.76,377.56a9.94,9.94,0,0,0,6.69-4.64,8.56,8.56,0,0,0-14.56,2.54A9.87,9.87,0,0,0,262.76,377.56Z"/><path class="cls-18" d="M250.92,337.5a10.31,10.31,0,0,0,4,3.72c1.67.87,3.89,1.21,5.34,0a5.78,5.78,0,0,0,1.19-1.53c.72-1.21,1.41-2.49,2.16-3.73A34.78,34.78,0,0,0,250.92,337.5Z"/><g class="cls-21"><path class="cls-17" d="M283.66,344a20.21,20.21,0,0,0-5,6.71c-4.47,9.51-6.45,19.93-11.95,29-5,8.3-12.85,14.44-22.61,16a49.14,49.14,0,0,1-6.21.6A34.77,34.77,0,1,0,283.66,344Z"/></g><path class="cls-22" d="M245.34,368.33c3.2.4,3.82-4.56.62-5s-3.82,4.56-.62,5Z"/><path class="cls-22" d="M274.32,362.76h.1a2.53,2.53,0,0,0,2.79-2.17,2.51,2.51,0,0,0-2.17-2.79h-.1a2.5,2.5,0,1,0-.62,5Z"/><g class="cls-3"><path class="cls-23" d="M337.78,107.13l27-1.91,13.69-1c2.2-.16,4.43-.43,6.64-.42.31,0,4.51-.38,4.16-.76a5,5,0,0,0-2.82-1.43l3-1.84a20.69,20.69,0,0,0-4-2.38l3-1.89A9.66,9.66,0,0,0,385,94.08l2.83-3.25L384,90.45a12.29,12.29,0,0,0,3.2-2.49l-4.25-1.83a22.16,22.16,0,0,0,3.66-3.3l-3.37-1a5.25,5.25,0,0,0,1.87-2.21l-2.85,0c-26.44-.27-53,1.43-79.23,4l3.06,2.45a16.49,16.49,0,0,0-4.46,1.77l4.33,1.31A23.93,23.93,0,0,0,302.35,93a9,9,0,0,0,4,.08l-3.49,4a16.39,16.39,0,0,0,4.19.37l-2.83,3.78,2.69.5-2.78,3.68a12.31,12.31,0,0,0,3.64-.43l-2.85,3.61C315.88,108.68,326.84,107.91,337.78,107.13Z"/></g><rect class="cls-2" x="29.25" y="18.84" width="239.81" height="332.92" rx="11.12" transform="translate(-34.49 34.11) rotate(-11.71)"/><path class="cls-6" d="M211.15,13.21,24.85,51.81A14,14,0,0,1,14,68.31L71.63,346.36a14,14,0,0,1,16.49,10.83l186.3-38.59a14,14,0,0,1,10.84-16.5L227.65,24A14,14,0,0,1,211.15,13.21Z"/><circle class="cls-6" cx="223.22" cy="14.04" r="3.27"/><circle class="cls-6" cx="13.16" cy="57.57" r="3.27"/><circle class="cls-6" cx="285.14" cy="312.95" r="3.27"/><circle class="cls-6" cx="75.09" cy="356.47" r="3.27"/><path class="cls-24" d="M285.26,302.1,259.32,176.9c-15.47,17.8-19.06,43.87-21.61,67.82-5.89-11.27-18.84-19-31.42-17.07s-23.07,14.48-21.17,27c-6.19-26.3-13.42-54.38-33.74-72.19-5.75-5-13-9.21-20.64-8.29-9,1.09-15.82,9.24-18.23,18s-1.32,18-.2,27q3,24.58,6.11,49.15c-4.21-10.38-19.87-12.16-28.37-4.87s-10.3,20.15-7.41,31a249,249,0,0,0-33.33-62.87c-.67-.91-1.34-1.81-2-2.71L71.63,346.36a14,14,0,0,1,16.49,10.83l186.3-38.59A14,14,0,0,1,285.26,302.1Z"/><g class="cls-3"><path class="cls-24" d="M285.26,302.1l-10.65-51.39c-6,4.19-11,10.35-14.7,16.65-3-9.12-10.78-17.06-20.31-18.26s-19.91,5.9-20.51,15.49c-2.38-11.54-4.79-23.19-9.77-33.87s-12.85-20.43-23.54-25.38c-5.72-2.65-12.42-3.81-18.35-1.68-12.1,4.34-15.79,19.44-16.94,32.24a335.17,335.17,0,0,0-1,45.15c-4.89-6.27-12.8-10.68-20.67-9.52s-14.65,9.13-12.87,16.88a116.27,116.27,0,0,0-19.13-33.52c-3-3.66-6.56-7.34-11.22-8.16-8.17-1.43-15,6.54-17.84,14.33-6.64,18.12-2.24,38.35,4,56.61a22.55,22.55,0,0,0-7.2-5.23l7,33.92a14,14,0,0,1,16.49,10.83l186.3-38.59A14,14,0,0,1,285.26,302.1Z"/></g><path class="cls-25" d="M285.26,302.1l-.92-4.44c-5.79-1.15-11.65-2-17.51-2.73-53.32-6.42-108.8-1.6-157.89,20.18a242.37,242.37,0,0,0-39.22,22l1.91,9.21a14,14,0,0,1,16.49,10.83l186.3-38.59A14,14,0,0,1,285.26,302.1Z"/><g class="cls-26"><path class="cls-25" d="M249.13,293.24C214.27,299.9,180.62,313,149.4,330c-12.35,6.74-24.34,14.1-36,21.95l161-33.36a14,14,0,0,1,10.84-16.5l-.92-4.44c-5.79-1.15-11.65-2-17.51-2.73S255.05,293.66,249.13,293.24Z"/></g><path class="cls-24" d="M93.68,124.47a25.26,25.26,0,0,0-3.85-5.91,8.1,8.1,0,0,0-7.55-.55,6.46,6.46,0,0,0-3.37,4.82,17.28,17.28,0,0,0-4.72-5.39c-2-1.31-4.9-1.62-6.76-.08s-2.06,3.92-1.87,6.14a41.89,41.89,0,0,0-4.4-8.42,13.93,13.93,0,0,0-7.53-5.49,6.81,6.81,0,0,0-4.46.22c-2.68,1.22-3.74,4.47-4.12,7.39a34.88,34.88,0,0,0,.62,12.51c-2.94-1.49-8.15-2.28-8.94,2.06a9.57,9.57,0,0,0,.5,4.39Z"/><g class="cls-27"><path class="cls-24" d="M230,103.28a15.6,15.6,0,0,0-1.11-2.79,5.91,5.91,0,0,0-3.52-3.31c-1.61-.39-3.62.88-3.39,2.52A38.64,38.64,0,0,0,218.46,92a12.93,12.93,0,0,0-6.3-5.37c-5.56-2-9.3,2-10,7.3a30.27,30.27,0,0,0,.56,8.79c-3.58-2.12-8.08-.67-8.15,3.79a12.57,12.57,0,0,0,.73,3.91Z"/></g><path class="cls-24" d="M188.87,46.16l31.32-6.49a7.6,7.6,0,0,0-2.94-4.31,3.18,3.18,0,0,0-1.89-.69c-1.48,0-2.37,1.63-3,3a3.43,3.43,0,1,0-6.84.31,28.67,28.67,0,0,1-2.89-5.14c-.94-1.73-2.32-3.41-4.24-3.85a6.28,6.28,0,0,0-3,.17,5.76,5.76,0,0,0-2.72,1.48c-1.54,1.66-1.3,4.24-1,6.47l.78,5.23a2.74,2.74,0,0,0-3.9-.13,3.87,3.87,0,0,0-.76,4.08A3.79,3.79,0,0,0,188.87,46.16Z"/><g class="cls-27"><path class="cls-24" d="M36.55,87.82,93.45,76a13.75,13.75,0,0,0-5.34-7.81A5.71,5.71,0,0,0,84.68,67c-2.69.11-4.3,3-5.37,5.43A6.22,6.22,0,1,0,66.89,73c-2.32-2.73-3.55-6.18-5.26-9.33s-4.21-6.2-7.69-7a11.54,11.54,0,0,0-5.53.32,10.34,10.34,0,0,0-4.94,2.69c-2.8,3-2.37,7.7-1.76,11.76q.72,4.74,1.43,9.49c-1.63-2.1-5.15-2.06-7.08-.23a7,7,0,0,0-1.4,7.41A8,8,0,0,0,36.55,87.82Z"/></g><path class="cls-28" d="M101.49,318.3c2.55,9.3,4.23,19.07,7.45,28.25.19.54,19.64-4.12,21.35-4.71a8.85,8.85,0,0,0-1.33-3.92,7.28,7.28,0,0,0-5.11-2.78,17.24,17.24,0,0,0-5.93.55c-.93-10.54-.49-21.23-1.23-31.8q-1.25-18-2.5-36c-.42-6-20.55,1.86-22.89,3.19C95.26,286.72,97.22,302.73,101.49,318.3Z"/><path class="cls-29" d="M164.28,332.7c7.14-1.88,16-3.93,21-9.67a18.34,18.34,0,0,0-7.7-6.73,27,27,0,0,0-14.68-2,29,29,0,0,0-8.82,2.42,23.77,23.77,0,0,0-8.33,6.73,19,19,0,0,0-2.95,6c-.68,2-1.47,3.44-1,4.81C149.22,335.72,157,334.63,164.28,332.7Z"/><path class="cls-30" d="M149.46,327.5a12.82,12.82,0,0,0,4.17-2.45,10.75,10.75,0,0,0,2.9-4.3,46,46,0,0,0,1.34-5c0-.16.09-.3.13-.46l-.39.12c0,.09-.05.17-.07.26a46.79,46.79,0,0,1-1.33,5,10.45,10.45,0,0,1-2.81,4.16,12.26,12.26,0,0,1-4.05,2.41,13.53,13.53,0,0,1-6,.7l-.09.26A13.56,13.56,0,0,0,149.46,327.5Z"/><path class="cls-30" d="M174.45,328.78a8.82,8.82,0,0,1-5.28-.22,5.59,5.59,0,0,1-2.85-4.25,21.06,21.06,0,0,1-.2-5.05,28.49,28.49,0,0,1,.83-5.18h-.29a28.33,28.33,0,0,0-.85,5.17,20.84,20.84,0,0,0,.18,5.14,7.75,7.75,0,0,0,.94,2.57,4.74,4.74,0,0,0,2.09,1.92,9.08,9.08,0,0,0,5.49.25q1.4-.28,2.73-.51c.36-.16.72-.32,1.07-.5C177.05,328.28,175.76,328.53,174.45,328.78Z"/><path class="cls-30" d="M162.87,326.52a6.48,6.48,0,0,0-4.75-.37,18.47,18.47,0,0,0-4.4,1.88,34.86,34.86,0,0,0-3.74,2.41,33.81,33.81,0,0,0-4.82,4.33l.34,0a35.21,35.21,0,0,1,8.38-6.46,18.49,18.49,0,0,1,4.32-1.84,6.17,6.17,0,0,1,4.51.33,7,7,0,0,1,2.81,3.2,16.58,16.58,0,0,1,.85,2.13l.29-.07a16.58,16.58,0,0,0-.85-2.2A7.31,7.31,0,0,0,162.87,326.52Z"/><path class="cls-30" d="M160.18,331.12a4.29,4.29,0,0,0-2.53-.48A6.9,6.9,0,0,0,153.4,333a15.72,15.72,0,0,0-1.41,1.82l.36,0a14,14,0,0,1,1.29-1.58,6.66,6.66,0,0,1,4-2.25,4,4,0,0,1,2.34.44,6.16,6.16,0,0,1,1.72,1.48l.28.36.33-.08-.37-.49A6.41,6.41,0,0,0,160.18,331.12Z"/><path class="cls-30" d="M150.87,321.85a10.05,10.05,0,0,0,3.17-4.3c.13-.32.24-.63.34-.94l-.3.12-.09,0c-.08.21-.15.43-.24.65a10,10,0,0,1-3.09,4.15,9.25,9.25,0,0,1-4.83,1.82h0l-.05.06-.17.25h.27A9.34,9.34,0,0,0,150.87,321.85Z"/><path class="cls-30" d="M172.54,323.65a5.39,5.39,0,0,0,2.5,1.87,11.37,11.37,0,0,0,2.82.59c1.24.1,2.36.2,3.39.34l.34-.23c-1.11-.18-2.36-.31-3.69-.43a11.2,11.2,0,0,1-2.74-.59,5.05,5.05,0,0,1-2.34-1.76,10.54,10.54,0,0,1-1.68-5.49,16.72,16.72,0,0,1,.15-3.53l-.27,0a16.4,16.4,0,0,0-.2,3.59A10.75,10.75,0,0,0,172.54,323.65Z"/><path class="cls-30" d="M177.05,319.91a3.5,3.5,0,0,0,2,.94,9.06,9.06,0,0,0,4-.65,3.07,3.07,0,0,1-.25-.26,8.6,8.6,0,0,1-3.7.57,3.25,3.25,0,0,1-1.81-.84,3.31,3.31,0,0,1-.87-1.65,7.57,7.57,0,0,1-.17-2.28l-.27-.11a7.73,7.73,0,0,0,.12,2.46A3.69,3.69,0,0,0,177.05,319.91Z"/><g class="cls-31"><path class="cls-29" d="M164.22,320.64a35.48,35.48,0,0,1,9.25,5.07,39.29,39.29,0,0,0,4.24,2.68,22.4,22.4,0,0,0,7.57-5.36,18.34,18.34,0,0,0-7.7-6.73,27,27,0,0,0-14.68-2,29,29,0,0,0-8.82,2.42,22.14,22.14,0,0,0-5.3,3.55A27.29,27.29,0,0,1,164.22,320.64Z"/></g><path class="cls-28" d="M150.15,289c-3.93-10.41-9.83-20-18.05-27.53-3.31-3-6.37-5.38-10.92-3.8-4.86,1.69-9.49,3.95-14.41,5.58,5.84,4,11.1,8,15.54,13.59,10.4,13.18,18,28.26,24.79,43.51.45,1,7.45-1.41,8.2-1.62,2.15-.63,4.3-1.3,6.43-2,2-.65,4.48-.93,6.13-2.16a8.78,8.78,0,0,0-2-3.69,6.43,6.43,0,0,0-1.68-1.08,13.14,13.14,0,0,0-8.73-.88c-.37-1.78-.67-3.54-1-5.32-.27-1.46-.88-2.76-1.23-4.21A86,86,0,0,0,150.15,289Z"/><g class="cls-32"><path class="cls-28" d="M141.87,272.81a20.88,20.88,0,0,0-8.64,3.39,24.27,24.27,0,0,0-6.46,6.63,166.37,166.37,0,0,1,9.84,16,44.56,44.56,0,0,0,13.5-9.92A77.58,77.58,0,0,0,141.87,272.81Z"/></g><path class="cls-33" d="M131.68,296.71c7.74-2.24,14.52-7.75,19-14.56a103,103,0,0,0-8-14,53.21,53.21,0,0,0-12.24-12.41c-4.25-3.11-8.87-.77-12.9,2.2-2.49,1.84-7,6.35-5.87,9.78.49,1.52,3.1,3.57,4.14,4.86,1.44,1.8,2.85,3.64,4.21,5.51A156,156,0,0,1,131.68,296.71Z"/><g class="cls-32"><path class="cls-28" d="M117,310.42c-.07-2.18-.17-4.36-.32-6.53l-.81-11.74-.53.05c-6.37.64-12.7,1.83-19.06,2.57,1.16,6,2.34,12.06,3.79,18a92.32,92.32,0,0,0,15.11-2Z"/></g><path class="cls-34" d="M118.44,291.14c-.14-7.34.5-17.88-3.43-24.45-3.46-5.79-15.61-1.2-20.23.9-6.72,3.07-3,12.66-2.16,18.56q1.65,11.63,4.15,23.11a187.07,187.07,0,0,0,22-3Z"/><path class="cls-35" d="M136.79,294.69c-5.44-10.59-11.66-20.89-21.16-28.32-.15-.12-.32.13-.17.25,9.46,7.4,15.65,17.65,21.06,28.21Z"/><path class="cls-35" d="M92.75,287c.06.36.11.73.17,1.09,2.8-5.88,2.35-14.07.27-19.5-.16.14-.34.27-.48.42C94.56,274,95,281.45,92.75,287Z"/><path class="cls-34" d="M125.18,333.69a16.73,16.73,0,0,0-6.05.46c0-2.29,0-4.59,0-6.88a36,36,0,0,0-16.23,5.09c.9,3.81,3.89,13.15,4.76,15.67a73.28,73.28,0,0,0,25-5.81C131.63,338.71,128.92,334.28,125.18,333.69Z"/><path class="cls-34" d="M170.28,314.3a10.42,10.42,0,0,0-6.88-7,12.57,12.57,0,0,0-6.69-.26c-.41-1.89-.63-3.82-1.1-5.69A41.24,41.24,0,0,0,140,308.41c1.95,3.24,6.09,11.58,6.95,13.38C154.44,319.43,163.4,318.46,170.28,314.3Z"/><path class="cls-10" d="M106.37,344.16c.54,1.69,1,3.1,1.27,3.87a73.28,73.28,0,0,0,25-5.81,16,16,0,0,0-2-4.45A61,61,0,0,1,106.37,344.16Z"/><path class="cls-10" d="M145.23,318.38c.78,1.56,1.4,2.83,1.68,3.41,7.53-2.36,16.49-3.33,23.37-7.49a8.94,8.94,0,0,0-2-3.72,30,30,0,0,1-2.78,1.52C159.14,315.23,152.21,317,145.23,318.38Z"/><path class="cls-10" d="M144.2,316.34a9.54,9.54,0,0,0,2.71-2.31,4.92,4.92,0,0,0,1.16-2.56,2.13,2.13,0,0,0-.11-1c-.42-1.08-1.8-1.41-3-1.39a10.77,10.77,0,0,0-4.1.94C141.89,311.84,143.1,314.18,144.2,316.34Z"/><path class="cls-10" d="M105.75,342.23a10,10,0,0,0,.86-.58,7,7,0,0,0,2.59-3.82,2.82,2.82,0,0,0-.18-2.12,3,3,0,0,0-2.11-1.17,7.53,7.53,0,0,0-3.4.23C104.13,337,105,339.74,105.75,342.23Z"/><path class="cls-36" d="M147.9,276.77a51.56,51.56,0,0,1-18.59,15.68l.66,1.2a53,53,0,0,0,18.65-15.53C148.38,277.67,148.15,277.22,147.9,276.77Z"/><path class="cls-36" d="M95.75,304.34c.09.47.19.93.29,1.39a101.59,101.59,0,0,0,22.61-3.83l0-1.42A99.23,99.23,0,0,1,95.75,304.34Z"/><path class="cls-28" d="M73.15,237.29c-2.44,6.09-2.07,15.16,1,21,2.3,4.35,8.2,5.59,12.64,5.49,9.23-.19,18-3.1,26.67-6,.29-.09-1.67-7.76-1.92-8.43-6.43,1.85-14.48,1.6-21.14,1.55a5.13,5.13,0,0,1-5.13-4.6,20.47,20.47,0,0,0-.11-3.14"/><path class="cls-29" d="M70.73,191.54,67.14,194a1.53,1.53,0,0,1-.74.32,1.38,1.38,0,0,1-.91-.44c-2.12-1.84-3.26-4.28-5-6.4a19.64,19.64,0,0,1-3.33-7.3,12,12,0,0,1-.11-7.08c.8-2.26,2.94-4.18,5.34-4.08a11,11,0,0,1,.22-10.83c2.06-3.18,6.44-4.82,9.9-3.28,2.46-5.85,8.5-9.56,14.69-11a20.34,20.34,0,0,1,12.09.48,7.94,7.94,0,0,1,3.5,2.46,4.17,4.17,0,0,1,.64,4.09,7.27,7.27,0,0,1,7.39,11c2.49.47,5.19,1.09,6.8,3.06a6.82,6.82,0,0,1,.3,7.51,11.16,11.16,0,0,1-6.22,4.72"/><path class="cls-37" d="M110.59,175.23a4.73,4.73,0,0,1,3.76-3.28,4.78,4.78,0,0,1,4.57,2,6.12,6.12,0,0,1,.85,2.14,9,9,0,0,1-4.41,9.46"/><path class="cls-28" d="M89.33,200.66l1.41,19.26,13.73-2.31L98.76,198.3"/><g class="cls-32"><path class="cls-28" d="M101.43,207.33q-1.19-4-2.38-8a74.59,74.59,0,0,1-9.29,1.26l-.43.11.6,8.22A31.37,31.37,0,0,0,101.43,207.33Z"/></g><path class="cls-28" d="M109.27,167.18c-2.55-5.37-6.08-9.83-13-10.87-6.08-.92-12.41.65-17.8,3.46-9.35,4.88-11.81,15.7-10.05,25.34,1,5.64,2.6,11.42,6.61,15.74,3.61,3.9,9,5.14,14.08,4.81,8-.53,16.88-2.51,22.56-8.67,2.91-3.14,4.47-6,4.18-10.47-.24-3.68-1.71-7.29-3-10.61C111.66,173,110.59,170,109.27,167.18Z"/><path class="cls-38" d="M91.4,187.84a3.29,3.29,0,0,0,.09.43,4.22,4.22,0,1,0,8.13-2.09c0-.14-.08-.28-.13-.42Z"/><path class="cls-39" d="M99.22,189.78a3.38,3.38,0,0,0-5.65,1.44,3.88,3.88,0,0,0,5.65-1.44Z"/><g class="cls-32"><path class="cls-28" d="M115.54,183a15.4,15.4,0,0,1-.93-4.72,6.32,6.32,0,0,1,1.63-4.42.84.84,0,0,1,.58-.31.68.68,0,0,1,.31.11,2.86,2.86,0,0,1,1.12,1.85,9.5,9.5,0,0,1,.27,4.58,5,5,0,0,1-2.73,3.53"/></g><path class="cls-28" d="M70.87,191a4,4,0,0,0-4.94-1,5.32,5.32,0,0,0-2.72,4.48,8,8,0,0,0,1.71,5.11,7.86,7.86,0,0,0,12.3.64"/><path class="cls-38" d="M85.11,186.55c3.09-.64,2.1-5.44-1-4.79s-2.1,5.44,1,4.79Z"/><path class="cls-38" d="M103,181.19l.1,0a2.45,2.45,0,0,0-1-4.8l-.1,0a2.45,2.45,0,0,0,1,4.8Z"/><path class="cls-40" d="M116.48,173.07c0-.06-.59.25-1.16,1.07a6.61,6.61,0,0,0-1.06,3.65,11.7,11.7,0,0,0,.63,3.73c.3.91.55,1.45.62,1.42a4.5,4.5,0,0,0-.23-1.53,16.92,16.92,0,0,1-.45-3.61,7.63,7.63,0,0,1,.84-3.45C116.11,173.54,116.55,173.14,116.48,173.07Z"/><path class="cls-40" d="M116.2,181.79c.08,0,.22-.31.36-.84a6,6,0,0,0,.16-2.19,3.32,3.32,0,0,0-1-2c-.43-.41-.81-.48-.83-.41s.23.27.53.68a4,4,0,0,1,.7,1.83,10.72,10.72,0,0,1,0,2C116.12,181.43,116.12,181.77,116.2,181.79Z"/><path class="cls-29" d="M67.81,190.05a2.72,2.72,0,0,0,3.68,2.22,4.47,4.47,0,0,0,1.82-1.86c3.35-5.45,3.28-12.52,1-18.51a17.06,17.06,0,0,0,15.86-12,9.13,9.13,0,0,0,7.49-1.49,4.75,4.75,0,0,0,2.19-3.81,4,4,0,0,0-1.83-3,7.49,7.49,0,0,0-3.42-1.09c-4.88-.51-9.63,1.56-14,3.78a31.18,31.18,0,0,0-5.56,3.39,22.15,22.15,0,0,0-4.39,5.06c-5.06,7.78-6.43,18-2.84,26.61"/><g class="cls-32"><path class="cls-28" d="M96.69,183.24a1,1,0,0,0,.07-.21,4.08,4.08,0,0,0-.09-2.19,2.24,2.24,0,0,0-2.24-1.5c-.94,0-3.05.41-3.15,1.64a1.56,1.56,0,0,0,.2.75A3.86,3.86,0,0,0,93.61,184a3.44,3.44,0,0,0,1.32.08C95.64,184,96.4,183.9,96.69,183.24Z"/></g><path class="cls-38" d="M83.61,174.14c0-.23-.56-.46-1.48-.41a6.09,6.09,0,0,0-3.32,1.33A6.21,6.21,0,0,0,76.73,178c-.27.89-.17,1.49,0,1.54.48.11,1.27-1.7,3.1-3.09S83.6,174.63,83.61,174.14Z"/><path class="cls-38" d="M105.84,170.67c.17-.15,0-.72-.66-1.4a6.54,6.54,0,0,0-3.15-1.73,6,6,0,0,0-3.63.17c-.93.38-1.26,1-1.11,1.14s.65.06,1.39.05a11.74,11.74,0,0,1,2.95.32C103.9,169.73,105.48,171,105.84,170.67Z"/><path class="cls-38" d="M96.46,183.75c.07,0,.31-.44.45-1.26A5,5,0,0,0,97,181a2.16,2.16,0,0,0-1.06-1.57,3.19,3.19,0,0,0-3.25,0c-.75.46-1,1-.89,1s.38-.35,1.07-.65a3,3,0,0,1,2.77.11c1,.54.92,1.76.91,2.52S96.38,183.73,96.46,183.75Z"/><path class="cls-38" d="M94.22,183.82c0-.16-.26-.31-.6-.33s-.63.08-.65.24.26.31.6.33S94.2,184,94.22,183.82Z"/><g class="cls-32"><path class="cls-28" d="M73.56,200.38a10.58,10.58,0,0,0-6.15-6.62,3.14,3.14,0,0,0-1.44-.28,1.36,1.36,0,0,0-1.17.78,1.87,1.87,0,0,0,0,1.1,7.81,7.81,0,0,0,3.11,4.82,6,6,0,0,0,5.6.65"/></g><path class="cls-40" d="M73.51,200.52a4.25,4.25,0,0,0-.57-1.61,12.06,12.06,0,0,0-2.36-3.4A8.12,8.12,0,0,0,67,193.39a3,3,0,0,0-1.72-.1c0,.08.65.13,1.61.47a9.38,9.38,0,0,1,3.3,2.13,16.08,16.08,0,0,1,2.4,3.2A7.22,7.22,0,0,0,73.51,200.52Z"/><path class="cls-40" d="M72,198.72c0-.15-1.15-.54-2-1.7a10.89,10.89,0,0,1-1.17-2.38c-.07,0-.15.32-.08.85a4.09,4.09,0,0,0,2.45,3.1C71.67,198.79,72,198.79,72,198.72Z"/><path class="cls-39" d="M86.48,244.88l.17,0c-.85.13,3.4,26.76,3.69,28.93a47.81,47.81,0,0,0,26.3-2.66c4.76-2,10.71-4.52,14.6-8.49a24.79,24.79,0,0,1-3.81-7.75c-1.53-4.45-4.09-14.66-5.31-19.21a16.41,16.41,0,0,0,4.85-1.84c.45-.22,4.27-2.65,3.77-3.33-3-4.08-5.93-8.17-8.88-12.29-2.73-3.82-5.81-7.11-10.57-7.92-2.52-.43-5.22.71-7.69,1.22l-1,.22a7.89,7.89,0,0,1-4.67,4.89c-2.73,1-6,.54-7.76-1.71L85,216.41C73.36,219.81,71.8,233.77,70.78,244A38.69,38.69,0,0,0,86.48,244.88Z"/><path class="cls-41" d="M87.85,227.3c.5,4.69.37,9,.46,12.1,0,1.56.09,2.82.15,3.69a6.23,6.23,0,0,0,.16,1.34,5.31,5.31,0,0,0,.06-1.35c0-1.31,0-2.54,0-3.68a101.94,101.94,0,0,0-.3-12.16,20.21,20.21,0,0,0-.6-3.45,28.68,28.68,0,0,0-1-3.09,15.17,15.17,0,0,0-2.31-4.11l-.45.14a15,15,0,0,1,2.26,4.17A23,23,0,0,1,87.85,227.3Z"/><path class="cls-41" d="M114.25,223.5c-1-2.27-2.13-4.19-2.78-5.64s-.88-2.42-1-2.41a6,6,0,0,0,.6,2.56c.57,1.54,1.66,3.48,2.62,5.72s1.75,4.32,2.28,5.84a15.13,15.13,0,0,0,.92,2.44,9.65,9.65,0,0,0-.53-2.57A44.54,44.54,0,0,0,114.25,223.5Z"/><path class="cls-28" d="M134.44,208.84a53.14,53.14,0,0,1-11,15.6l7.27,22.93c7.31-9.85,12.29-22.85,12-35.3A22.4,22.4,0,0,0,134.44,208.84Z"/><path class="cls-6" d="M126.87,223.29c-1.53-.71-3.05-1.56-4.63-2.19-3.5.86-7,1.72-10.5,2.64-6.57,1.73-13.86,3.86-20.42,5.67a17.47,17.47,0,0,0,3.32,2.92,4.27,4.27,0,0,0,2.56.89c3.15,0,6.7-1.5,9.74-2.29a132.05,132.05,0,0,0,19.38-6.4A2.53,2.53,0,0,1,126.87,223.29Z"/><path class="cls-42" d="M101.53,229.46a13.09,13.09,0,0,1-10.29-.25.32.32,0,0,0-.46.36l7.86,37.94a7.33,7.33,0,0,0,2.82,1.1c1.32.22,4.4.39,5.52-.54.67-.57,1.16-2.95,1.23-3.87a12,12,0,0,0-.38-3.41q-1.71-8.06-3.41-16.12C103.35,239.62,102,234.62,101.53,229.46Z"/><path class="cls-10" d="M127.61,222.53c-4.2,1.1-24.65,6.53-30.34,7.85l7.91,38.18c1.66.3,15.21-3,16.58-3.32,4.62-1.15,9.46-2.18,13.84-4.12Z"/><path class="cls-28" d="M108.42,250.06c-5.79,1.05-12.39.88-18,.84a5.17,5.17,0,0,1-4.25-2.24c-4.64,1.79-9.69,2.92-14.24,2.5a23.12,23.12,0,0,0,2.24,7.12c2.3,4.35,8.2,5.59,12.64,5.49,7.68-.15,15-2.2,22.28-4.54A64,64,0,0,0,108.42,250.06Z"/><path class="cls-28" d="M130.79,216.05c2.19-3.64,3.5-7.78,2.81-12a13.28,13.28,0,0,1-.33-2.79c0-.44.19-1,.62-1.05s.77.34,1,.72a15.41,15.41,0,0,1,1.4,3.26,17.67,17.67,0,0,1,1.38-5.48,3,3,0,0,1,.87-1.24,1.1,1.1,0,0,1,1.4,0,1.66,1.66,0,0,1,.21,1.5l-1,5.75a23,23,0,0,1,2.45-5.16,3.32,3.32,0,0,1,1.53-1.48.78.78,0,0,1,1,.25.94.94,0,0,1,0,.55,20.12,20.12,0,0,1-2.06,6.51,14.67,14.67,0,0,1,3.31-5.25,1.51,1.51,0,0,1,.79-.49,1,1,0,0,1,1,.84,2.63,2.63,0,0,1-.19,1.43,16.25,16.25,0,0,1-3.35,5.64,7.17,7.17,0,0,1,4.37-3.46,1,1,0,0,1,.63,0c.44.19.4.83.23,1.29-.94,2.58-3.29,4.36-4.81,6.64-1.41,2.1-1.47,5.09-1.92,7.52"/><path class="cls-28" d="M103.19,250.81a7.09,7.09,0,0,0,4.62-1.43c1.36-.93,2.54-2.09,3.88-3,.48-.34,1.2-.64,1.61-.21s0,1.22-.43,1.69l-2.41,2.69a16.19,16.19,0,0,1,5.87-1.56c.7-.05,1.56,0,1.86.67-1.56,2.06-4.81,1.75-6.94,3.22a25.32,25.32,0,0,1,7-.86,1.09,1.09,0,0,1,.83.27.71.71,0,0,1-.08.9,2,2,0,0,1-.83.5,23,23,0,0,1-6,1.48c1.88.31,3.91-.35,5.65.43.24.1.49.27.51.53a.7.7,0,0,1-.23.52c-.59.63-2.11.58-2.93.72l-3.44.61a9.45,9.45,0,0,1,2.89.52c.58.19,1.23.58,1.23,1.18-2,.88-4.32.75-6.5.72s-4.45.26-6.68.26"/><path class="cls-17" d="M183.61,58.61c-1.84-5.16-3.47-10.82-7.07-15.08a13.06,13.06,0,0,0-6-4.25c-3.23-1.05-6.8-.71-10.9-.16-16.47,2.22-32.43,7.14-48.34,11.77-8.8,2.55-17.55,5.32-26.18,8.39-5.68,2-14.25,5.38-17.46,10.8-2.88,4.88-1.52,11-.08,16.53,3.06,11.61,6.14,23.27,11.11,34.2,1.65,3.64,3.68,7.38,7.13,9.4,4.5,2.63,10.09,1.66,15.2.31a87.32,87.32,0,0,0,2.93,10.16,87.09,87.09,0,0,0,7.61-13.08c12.9-3.6,25.76-7.31,38.5-11.44,3.8,3.12,7.56,6.29,11.22,9.57a13.06,13.06,0,0,0,.51-5.36l-.37-8.12c5.78-2.13,11.52-4.39,17.35-6.32,6.83-2.25,13.43-9.86,12.35-17.33A154.72,154.72,0,0,0,183.61,58.61Z"/><text class="cls-43" transform="translate(68.24 102.02) rotate(-16.96)"><tspan class="cls-44">W</tspan><tspan x="16.98" y="0">el</tspan><tspan class="cls-45" x="32.37" y="0">c</tspan><tspan x="41.6" y="0">ome Back</tspan><tspan class="cls-45" x="19.6" y="20.55">t</tspan><tspan x="26.39" y="20.55">o </tspan><tspan class="cls-46" x="42.28" y="20.55">S</tspan><tspan x="52.7" y="20.55">chool!</tspan></text><path class="cls-47" d="M106.41,331.49a6.23,6.23,0,0,0-1.58-2.66c-1.11-1.33-2.24-2.16-2.34-2a12.73,12.73,0,0,0,1.89,2.41C105.46,330.48,106.27,331.58,106.41,331.49Z"/><path class="cls-47" d="M109.11,320.52a11.41,11.41,0,0,0-1.8,5.12,11.63,11.63,0,0,0,.18,5.43c.17,0-.07-2.43.39-5.34S109.27,320.59,109.11,320.52Z"/><path class="cls-47" d="M110.31,327.35c-.14-.08-.62.49-1.07,1.28s-.7,1.49-.56,1.57.61-.5,1.06-1.28S110.45,327.43,110.31,327.35Z"/><path class="cls-47" d="M81.28,336.92c.13-.09-.06-.57-.51-1s-1-.55-1-.41.23.47.63.84S81.15,337,81.28,336.92Z"/><path class="cls-47" d="M82.32,331a5.26,5.26,0,0,0-.47,2.9,5.35,5.35,0,0,0,.64,2.87,13.08,13.08,0,0,0-.06-2.88A13.9,13.9,0,0,0,82.32,331Z"/><path class="cls-47" d="M84.76,333.93c-.13-.08-.54.41-.73,1.15s-.07,1.36.08,1.36.3-.55.48-1.22S84.91,334,84.76,333.93Z"/><path class="cls-47" d="M86.82,346.71c.14-.08-.16-.84-.76-1.62s-1.25-1.27-1.36-1.16.33.76.9,1.51S86.68,346.79,86.82,346.71Z"/><path class="cls-47" d="M88.28,346.05a12.18,12.18,0,0,0-.32-5.28,12.18,12.18,0,0,0,.32,5.28Z"/><path class="cls-47" d="M90.23,344.4c-.15-.06-.42.3-.54.82s0,1,.12,1,.33-.36.44-.84S90.38,344.45,90.23,344.4Z"/><path class="cls-47" d="M127,330.28c.12-.1-.15-.62-.6-1.15s-.93-.89-1.05-.79.15.62.6,1.16S126.91,330.39,127,330.28Z"/><path class="cls-47" d="M128.26,329.69a8.83,8.83,0,0,0,0-2.59,9.19,9.19,0,0,0-.24-2.59,7.3,7.3,0,0,0,.27,5.18Z"/><path class="cls-47" d="M129.94,329.57c.16,0,.28-.36.35-.78s0-.81-.11-.86-.39.29-.46.77S129.78,329.57,129.94,329.57Z"/><path class="cls-47" d="M121.48,316.06c.11-.12-.16-.54-.59-.95s-.88-.65-1-.53.16.54.59.95S121.37,316.17,121.48,316.06Z"/><path class="cls-47" d="M123.26,314.91a5,5,0,0,0,0-2.36c-.19-1.29-.46-2.31-.62-2.28a5,5,0,0,0,0,2.36C122.83,313.91,123.1,314.93,123.26,314.91Z"/><path class="cls-47" d="M125.66,315c.16,0,.17-.78.14-1.7s-.11-1.67-.27-1.69-.35.76-.31,1.71S125.5,315,125.66,315Z"/><path class="cls-47" d="M136,323.54c.13-.08-.08-.63-.58-1.13s-1.06-.69-1.14-.56.28.52.73,1S135.84,323.63,136,323.54Z"/><path class="cls-47" d="M137.18,322.83c.16,0,.3-.66.32-1.48s-.1-1.49-.26-1.49-.3.66-.32,1.48S137,322.83,137.18,322.83Z"/><path class="cls-47" d="M134.57,341.48c.11-.12-.22-.64-.68-1.22s-.87-1-1-.94.08.68.56,1.3S134.45,341.59,134.57,341.48Z"/><path class="cls-47" d="M135.24,337a4.37,4.37,0,0,0-.32,2.61,4.33,4.33,0,0,0,.71,2.54,10.69,10.69,0,0,0-.14-2.58A10.25,10.25,0,0,0,135.24,337Z"/><path class="cls-47" d="M137.72,338c-.14-.07-.54.48-.74,1.28s-.11,1.46,0,1.47.33-.6.52-1.33S137.87,338.05,137.72,338Z"/><path class="cls-47" d="M146.64,336.46c.13-.09-.28-1-.92-2.06s-1.27-1.84-1.41-1.76.27,1,.92,2.06S146.5,336.55,146.64,336.46Z"/><path class="cls-47" d="M147.64,332.62c-.14-.07-.58.67-.73,1.69s.05,1.85.21,1.83.22-.8.36-1.75S147.79,332.68,147.64,332.62Z"/><path class="cls-47" d="M150.09,331.2c-.14-.07-.76.86-1.13,2.17a4,4,0,0,0-.19,2.43,33.65,33.65,0,0,0,1.32-4.6Z"/><path class="cls-47" d="M153.8,330.44a5.38,5.38,0,0,0-1.12,2.48,5.47,5.47,0,0,0-.33,2.7,8.32,8.32,0,0,0,.88-2.55A8.17,8.17,0,0,0,153.8,330.44Z"/><path class="cls-47" d="M163.94,332.9c.12-.11-.29-.71-.91-1.35s-1.2-1.07-1.32-1,.29.72.91,1.36S163.83,333,163.94,332.9Z"/><path class="cls-47" d="M165.81,327.12a5.8,5.8,0,0,0-1.08,2.93,5.86,5.86,0,0,0,0,3.13,16.18,16.18,0,0,0,.53-3A15.59,15.59,0,0,0,165.81,327.12Z"/><path class="cls-47" d="M167.91,328.3c-.15,0-.52.77-.75,1.83s-.22,2-.07,2,.41-.82.63-1.86S168.07,328.35,167.91,328.3Z"/><path class="cls-47" d="M172.57,330c.12-.09-.48-1.06-1.51-2s-2-1.48-2.12-1.35.74.86,1.73,1.78S172.44,330.06,172.57,330Z"/><path class="cls-47" d="M173.52,326.8c-.16,0-.35.7-.29,1.6s.33,1.58.48,1.55.14-.74.09-1.59S173.68,326.81,173.52,326.8Z"/><path class="cls-47" d="M175.33,322.23a4.73,4.73,0,0,0-.58,2.84,4.57,4.57,0,0,0,.7,2.81,19.2,19.2,0,0,0-.12-2.82A18.76,18.76,0,0,0,175.33,322.23Z"/><path class="cls-47" d="M178,322.69c-.14-.06-.58.7-.81,1.74s-.13,1.92,0,1.93.32-.82.54-1.81S178.18,322.75,178,322.69Z"/><path class="cls-47" d="M174.73,313.34c.12-.11-.11-.62-.51-1.15s-.84-.88-1-.79.09.6.51,1.14S174.62,313.44,174.73,313.34Z"/><path class="cls-47" d="M177.52,304.92a10.83,10.83,0,0,0-2,7.57c.17,0,.3-1.75.86-3.82S177.67,305,177.52,304.92Z"/><path class="cls-47" d="M178.89,309.3c-.14-.07-.63.58-1,1.52s-.37,1.75-.22,1.78.44-.69.77-1.59S179,309.38,178.89,309.3Z"/><path class="cls-47" d="M167.06,306.64c.12-.1-.26-.82-1-1.55s-1.41-1.13-1.51-1,.43.72,1.09,1.41S166.93,306.74,167.06,306.64Z"/><path class="cls-47" d="M167.63,301.06a6.68,6.68,0,0,0-.42,2.73,6.94,6.94,0,0,0,.15,2.77,6.86,6.86,0,0,0,.43-2.74A6.77,6.77,0,0,0,167.63,301.06Z"/><path class="cls-47" d="M170.49,301.81c-.14-.07-.75.82-1.15,2.07s-.46,2.32-.3,2.35.45-1,.84-2.17A6.77,6.77,0,0,0,170.49,301.81Z"/><path class="cls-47" d="M188.92,304.94c.09-.13-.11-.45-.46-.71s-.7-.38-.8-.26.11.45.45.72S188.82,305.07,188.92,304.94Z"/><path class="cls-47" d="M190.91,299.3a5.92,5.92,0,0,0-.74,2.75,6.09,6.09,0,0,0,.05,2.85,8.79,8.79,0,0,0,.53-2.78A9.17,9.17,0,0,0,190.91,299.3Z"/><path class="cls-47" d="M193.38,302.32c-.15-.06-.47.41-.72,1.07s-.33,1.22-.18,1.27.48-.43.72-1.06S193.52,302.39,193.38,302.32Z"/><path class="cls-47" d="M187.85,316.44c.14-.08-.06-.64-.44-1.26s-.79-1-.93-1,.06.65.44,1.27S187.71,316.53,187.85,316.44Z"/><path class="cls-47" d="M189.84,312.26c-.15-.06-.6.7-.83,1.76s-.13,1.94,0,1.94.32-.82.54-1.82S190,312.32,189.84,312.26Z"/><path class="cls-47" d="M182.09,333.56c.12-.11-.11-.54-.52-1s-.82-.67-.93-.56.12.54.52,1S182,333.67,182.09,333.56Z"/><path class="cls-47" d="M184.74,329.26c-.14-.08-.72.66-1.08,1.75s-.36,2-.2,2,.4-.84.75-1.86S184.88,329.35,184.74,329.26Z"/><path class="cls-47" d="M152.41,340.28c.13-.08-.11-.67-.65-1.22s-1.11-.82-1.2-.69.3.58.79,1.09S152.27,340.37,152.41,340.28Z"/><path class="cls-47" d="M154,335.74c-.1-.12-.95.59-1.34,1.85s-.12,2.33,0,2.29.16-1,.52-2.11S154.1,335.85,154,335.74Z"/><path class="cls-47" d="M199.05,319.8c.14-.05,0-.69-.48-1.27s-1.12-.78-1.19-.64.33.52.76,1S198.9,319.86,199.05,319.8Z"/><path class="cls-47" d="M200.23,314.66c-.14-.06-.62.82-.75,2s.15,2.19.3,2.16.15-1,.27-2.1S200.39,314.72,200.23,314.66Z"/><path class="cls-47" d="M212.16,330.4c.14,0,0-.74-.5-1.4s-1.12-1-1.21-.87.3.61.75,1.21S212,330.46,212.16,330.4Z"/><path class="cls-47" d="M214.38,325.27c-.14-.07-.72.9-1.08,2.24a4.18,4.18,0,0,0-.17,2.47,27.56,27.56,0,0,0,1.25-4.71Z"/><path class="cls-47" d="M217.21,325.71c-.15,0-.46.85-.52,2s.16,2.05.32,2,.2-.92.26-2S217.37,325.74,217.21,325.71Z"/><path class="cls-47" d="M221.45,313.68c.11-.12-.15-.57-.58-1s-.89-.71-1-.6.15.56.58,1S221.34,313.79,221.45,313.68Z"/><path class="cls-47" d="M223.45,308a9.11,9.11,0,0,0-1,5.67,36.8,36.8,0,0,0,1-5.67Z"/><path class="cls-47" d="M225.36,310.6c-.14-.06-.51.42-.75,1.12s-.26,1.3-.11,1.33.42-.48.65-1.14S225.51,310.67,225.36,310.6Z"/><path class="cls-47" d="M227.6,320.82c.13-.1-.25-.7-.83-1.33s-1.15-1.07-1.26-.95.26.72.83,1.34S227.48,320.92,227.6,320.82Z"/><path class="cls-47" d="M228.87,312.93a21.15,21.15,0,0,0,0,7,21.15,21.15,0,0,0,0-7Z"/><path class="cls-47" d="M231.82,316c-.14-.08-.58.47-.84,1.27s-.22,1.51-.07,1.53.38-.6.62-1.35S232,316.05,231.82,316Z"/><path class="cls-47" d="M234.94,315.67c-.13-.08-.62.51-1.09,1.33s-.74,1.55-.6,1.62.64-.52,1.1-1.33S235.08,315.76,234.94,315.67Z"/><path class="cls-47" d="M222.44,301c.15,0,0-.72-.48-1.36s-1.12-.93-1.21-.8.31.58.75,1.16S222.29,301,222.44,301Z"/><path class="cls-47" d="M224.37,295.9c-.15,0-.67.91-1,2.19a4.53,4.53,0,0,0-.3,2.41c.16,0,.49-1,.86-2.24A6.31,6.31,0,0,0,224.37,295.9Z"/><path class="cls-47" d="M226.83,299.6c-.1-.12-.53.08-.82.56s-.27,1-.12,1,.37-.3.61-.69S226.94,299.72,226.83,299.6Z"/><path class="cls-47" d="M254,319.46c.12-.1-.21-.71-.74-1.36s-1.07-1.09-1.19-1,.21.71.74,1.36S253.91,319.56,254,319.46Z"/><path class="cls-47" d="M257,313.83a10.13,10.13,0,0,0-1.77,5.93,54.08,54.08,0,0,0,1.77-5.93Z"/><path class="cls-47" d="M259.35,316.06c-.14-.06-.53.52-.68,1.35s0,1.51.14,1.5.28-.63.43-1.39S259.5,316.12,259.35,316.06Z"/><path class="cls-47" d="M262.85,315.24c-.15-.06-.54.56-.81,1.42s-.31,1.59-.15,1.62.43-.62.7-1.45S263,315.3,262.85,315.24Z"/><path class="cls-47" d="M259.36,305.61c.12-.1-.2-.74-.8-1.36s-1.24-1-1.34-.83.35.64.92,1.23S259.23,305.7,259.36,305.61Z"/><path class="cls-47" d="M262.6,299.34a6.52,6.52,0,0,0-1.12,2.78,6.45,6.45,0,0,0-.27,3,10.47,10.47,0,0,0,.83-2.85A10.18,10.18,0,0,0,262.6,299.34Z"/><path class="cls-47" d="M265.5,301.72c-.11-.11-.57.25-.83.88s-.18,1.2,0,1.21.33-.45.56-1S265.63,301.82,265.5,301.72Z"/><path class="cls-47" d="M244.28,321.25c.14-.07-.06-.68-.45-1.37s-.82-1.17-1-1.08.07.7.45,1.37S244.13,321.32,244.28,321.25Z"/><path class="cls-47" d="M274.73,301.37c-.14-.06-.51.48-.82,1.22s-.44,1.37-.29,1.43.51-.48.82-1.21S274.88,301.44,274.73,301.37Z"/><path class="cls-47" d="M256.14,299.32c.1-.12-.1-.46-.45-.76s-.72-.45-.82-.33.1.47.45.77S256,299.44,256.14,299.32Z"/><path class="cls-28" d="M244.16,206.73c-1.1-2.18-3.51-6.39-5.7-7.61s-5.23,1-7.22,2.54c-2.73,2.11-4.34,4.49-3,7.76,1.19,3,3.55,6,1.28,9.16-1.13,1.58-3.13,2.25-5,2.77-7.36,2.05-14.61,2.66-22,3.3a34.54,34.54,0,0,0,2,11.44c.65,1.73,15.57,1.41,17.55,1,7.38-1.38,22.86-3.24,26.09-11.48a12.6,12.6,0,0,0,.16-7A46.08,46.08,0,0,0,244.16,206.73Z"/><path class="cls-28" d="M248.54,320c7.83-1.6,15.93-2.18,23.49-4.91a7.44,7.44,0,0,0-5.12-6.27,11.22,11.22,0,0,0-8.32.78c-2.13-5-3.72-10.17-5.5-15.29-.37-1.08-.77-2.15-1.16-3.23-6.91-19.14-12.72-38.76-20.2-57.68-6,.83-15.14,2.42-18.89,7.95-1.65,2.42,1.3,8.08,2.41,10.9,1.4,3.56,3,7,4.42,10.6q4.1,10.11,8.77,20c2.89,6.08,6.25,11.6,9,17.75,2.82,6.35,5.87,12.6,9.3,18.65a1.73,1.73,0,0,0,.64.75A1.76,1.76,0,0,0,248.54,320Z"/><path class="cls-28" d="M193.84,245.18c3.16,25.54,8.29,51,13.56,76.19a25,25,0,0,0-7.44,3.56,8.86,8.86,0,0,0-3.64,7.24,234.74,234.74,0,0,0,27.45-5.12l-4.9-46.11c-1.62-15.25-2.38-30.61-3.34-45.94"/><path class="cls-38" d="M223.77,327.05q-.57-5.28-1.12-10.57a12.1,12.1,0,0,0-9.19,6.46,20.78,20.78,0,0,0-6.06-1.59v0a25,25,0,0,0-7.44,3.56,8.86,8.86,0,0,0-3.64,7.24A234.74,234.74,0,0,0,223.77,327.05Z"/><path class="cls-38" d="M253.09,294.35c-.37-1.08-.77-2.15-1.16-3.23-6.91-19.14-12.72-38.76-20.2-57.68-6,.83-15.14,2.42-18.89,7.95-1.65,2.42,1.3,8.08,2.41,10.9,1.4,3.56,3,7,4.42,10.6q4.1,10.11,8.77,20c2.89,6.08,6.25,11.6,9,17.75.19.43.39.85.58,1.27A47.92,47.92,0,0,0,253.64,296C253.46,295.43,253.28,294.89,253.09,294.35Z"/><path class="cls-29" d="M232.46,144.39c-2.41-2.44-5.62-4.59-9-4.11-.91-6.92-5-15.35-10.27-19.85a23.5,23.5,0,0,0-21-4.36c-5.1,1.45-11,3-14.8,6.94A6,6,0,0,1,176,124.2a5.78,5.78,0,0,1-1.16.44,15.19,15.19,0,0,0-11,13.06c-.37,3.17.28,8.35.75,11.5.12.8,2.07,8.59,1.83,8.74-4.8,3-6.35,7.27-6.35,12.75a46.56,46.56,0,0,0,2.72,15.68,1.44,1.44,0,0,0,2,1.11,32.26,32.26,0,0,0,5.66-1.39,1.21,1.21,0,0,0,.62-.38,1.18,1.18,0,0,0,.07-.83l-.91-5.92a42.15,42.15,0,0,1,2.84,6.14q5-1.26,9.76-3l-.89-4.25c.44,2.09,1.6,4.46,3.77,4.21,2.84-.33,5.88-1.68,8.63-2.46l-.18-5.92a28.63,28.63,0,0,0,2.41,6.17q7.44-2.55,15.11-4.35l-1.43-7,2.49,5.18c.14.29.32.62.64.7a1.1,1.1,0,0,0,.72-.15l12.81-5.72a70.32,70.32,0,0,1-1.39-7.48,28.9,28.9,0,0,0,3.53,5.9,23.75,23.75,0,0,1,7.73-3.56c-.63-2-1.46-3.95-2.11-5.9a29.61,29.61,0,0,1,4.1,5.6,13.68,13.68,0,0,1,2.36-1.1,1.13,1.13,0,0,0,.57-.35,1.06,1.06,0,0,0,0-.95C239.56,154.71,237,149,232.46,144.39Z"/><path class="cls-38" d="M221.43,305q-1.27-12-2.56-24.09c-1.61-15.22-2.38-30.54-3.33-45.83l-1,.37-20.68,9.7c2.54,20.48,6.34,40.89,10.46,61.16A80.66,80.66,0,0,0,221.43,305Z"/><path class="cls-48" d="M217.62,305.67q-1.05-16.79-2.09-33.56c-.75-12.07-2.31-24.44-1.24-36.52l-.31.14c-1,11.72.46,23.68,1.19,35.37q1.08,17.31,2.15,34.61Z"/><path class="cls-48" d="M240.6,301.31q-12.75-27.78-24.76-55.89c-.08-.18-.35,0-.27.14q12,28.08,24.73,55.83Z"/><path class="cls-28" d="M196.59,171.29l3.47,17.55c4.22-1,8.41-2.21,12.54-3.56L206,168.74"/><path class="cls-10" d="M230.37,220.19c-.74-3.23-2.44-6.28-3.28-9.53a73.41,73.41,0,0,0,14.79-10c-3.84-4.18-7.53-8.5-11.36-12.7-5.53-6.05-10.33-6.83-18.15-5.11-3,3.69-10,4.62-14.11,1.92a29.75,29.75,0,0,0-7.8,5.17h7.45l5,41.42c-3.89,3-9.15,6.53-14.13,7.19,1.06,5.65,2.3,11.28,3.7,16.85,7.75-.92,15-1.56,22.63-3.42,8-1.93,16-4.46,23-8.75a65.39,65.39,0,0,1-7.08-17.09C230.62,224.13,230.82,222.15,230.37,220.19Z"/><path class="cls-42" d="M238.72,197.13a49.53,49.53,0,0,1-26.87,14.31c-.64.11-.43,1.09.2,1a50.5,50.5,0,0,0,27.34-14.54Z"/><path class="cls-42" d="M191.75,252.33a142,142,0,0,0,31.39-6.6,99.89,99.89,0,0,0,13.51-5.3l-.64-1.22a114.69,114.69,0,0,1-16.78,6.3A130,130,0,0,1,191.42,251Z"/><circle class="cls-17" cx="199.33" cy="219.31" r="32.93"/><path class="cls-18" d="M216.32,191.1a22.13,22.13,0,0,0-8.3,9.54c-1.1,2.45-1.68,5.51-.1,7.68,2.39,3.28,8.14,2.5,10.39,5.88a30.3,30.3,0,0,1,1.31,2.76,12.17,12.17,0,0,0,3.31,3.44l6.67,5.33a9.46,9.46,0,0,0,1.77,1.19,33,33,0,0,0-15.05-35.82Z"/><path class="cls-18" d="M192.64,187.06a32.75,32.75,0,0,0-15.28,7.71,6.35,6.35,0,0,0,1.37,2,5.24,5.24,0,0,0,2.83,1.51c2.82.41,5.13-2.22,7.89-2.94a32,32,0,0,1,4.39-.4c4-.49,7.24-3.35,10.21-6.08a9.53,9.53,0,0,0,1.64-1.84A33,33,0,0,0,192.64,187.06Z"/><path class="cls-18" d="M200.11,240.35a25.77,25.77,0,0,1-3.79-2.09,4.38,4.38,0,0,1-1.9-3.69c.11-1.06.77-2.1.47-3.12-.36-1.26-1.9-1.7-3.2-1.76a15.33,15.33,0,0,0-9.8,3c-1.77,1.33-3.73,3.17-5.85,2.54s-2.81-3.5-2.39-5.74a11.85,11.85,0,0,1,6.36-8.29c2.28-1.1,5.09-1.59,6.55-3.66a7.82,7.82,0,0,0,1.12-3.27,24,24,0,0,0,0-7.32,4.86,4.86,0,0,0-1.38-3.13c-1.07-.9-2.63-.84-4-.67a50.13,50.13,0,0,0-13.44,3.64A32.93,32.93,0,0,0,206,251.55c.85-.17,1.69-.39,2.52-.63a4.07,4.07,0,0,0-.38-1.67A17.76,17.76,0,0,0,200.11,240.35Z"/><g class="cls-32"><path class="cls-28" d="M208.54,175.08,206,168.74l-9.43,2.55q.75,3.78,1.49,7.55A26.22,26.22,0,0,0,208.54,175.08Z"/></g><path class="cls-28" d="M196.74,128.81a75,75,0,0,0-12.94,3.42c-7.25,2.89-13.62,8.62-13,17.22a43.17,43.17,0,0,0,5.56,18.92c4.06,6.71,10.56,8.78,18.09,7.95s15.16-3.75,20.8-8.77c7.09-6.32,5.25-18,2.19-25.94-3.16-8.18-9.57-14.25-18.65-13.13C198.1,128.56,197.42,128.68,196.74,128.81Z"/><path class="cls-28" d="M173.49,160.39a4.2,4.2,0,0,0-5.23.76,5.42,5.42,0,0,0-1,5.38,7.78,7.78,0,0,0,3.77,4.16,8.49,8.49,0,0,0,8.14.06"/><path class="cls-28" d="M217.61,147.85c2.16-2.85,6.18-4.29,8.45-.71s.77,8.1-2.15,10.72a5.32,5.32,0,0,1-5.27,1.39"/><g class="cls-32"><path class="cls-28" d="M171.35,169.59a5.22,5.22,0,0,0,3.25.76c.48,0,1.11,0,1.29-.53a1.79,1.79,0,0,0-.36-1.49c-.39-.68-.64-1.48-1-2.19a7.43,7.43,0,0,0-2.63-3.17,2.06,2.06,0,0,0-1.81-.22,2.17,2.17,0,0,0-1,1.7A5.27,5.27,0,0,0,171.35,169.59Z"/></g><path class="cls-40" d="M224.43,146.87c0-.05-.56.31-1.2,1.1a9.57,9.57,0,0,0-1.74,3.54,9.36,9.36,0,0,0-.17,4,3.31,3.31,0,0,0,.52,1.54c.18,0-.56-2.45.21-5.34S224.58,147,224.43,146.87Z"/><path class="cls-40" d="M223,155c.08,0,.23-.26.38-.74a5.73,5.73,0,0,0,.3-2,3.37,3.37,0,0,0-.69-1.94c-.35-.42-.67-.54-.71-.48s.16.29.37.71a4.16,4.16,0,0,1,.45,1.74C223.08,153.72,222.76,155,223,155Z"/><path class="cls-40" d="M176,169.78a3,3,0,0,0-.26-1.38,10.78,10.78,0,0,0-1.51-3,7.48,7.48,0,0,0-2.54-2.28,2.49,2.49,0,0,0-1.36-.41c0,.09.46.29,1.15.76a9.52,9.52,0,0,1,2.28,2.27C175.22,167.77,175.8,169.85,176,169.78Z"/><path class="cls-40" d="M175,168.27c0-.16-1.19-.53-1.91-1.82a6.74,6.74,0,0,1-.62-2.55c-.07,0-.26.26-.33.8a3.43,3.43,0,0,0,.45,2,3.33,3.33,0,0,0,1.55,1.41C174.64,168.36,175,168.33,175,168.27Z"/><path class="cls-38" d="M193.1,159.25c0,.14.08.29.13.42a4.7,4.7,0,0,0,8.84-3.22c0-.14-.11-.28-.17-.41Z"/><g class="cls-49"><path class="cls-28" d="M187.27,159.61a8.29,8.29,0,0,0-6.47,3.07,4.61,4.61,0,0,0-1.13,2.88A4,4,0,0,0,182.5,169a7.21,7.21,0,0,0,4.62-.31,7.54,7.54,0,0,0,3.64-2.52,4.18,4.18,0,0,0,.49-4.24c-1-1.88-2.82-2.33-4.82-2.24"/></g><g class="cls-49"><path class="cls-28" d="M216.92,155.61c.51-2-.91-4.65-3.06-4.91a8.82,8.82,0,0,0-6.57,2.35,4.73,4.73,0,0,0-1.62,4.94,4.47,4.47,0,0,0,4.28,2.7,7.88,7.88,0,0,0,4.88-2.08A6.05,6.05,0,0,0,216.92,155.61Z"/></g><path class="cls-39" d="M201.87,160.12a4,4,0,0,0-6.13,2.23,4.68,4.68,0,0,0,6.13-2.23Z"/><path class="cls-38" d="M198.07,156.41c.06,0,.45-.45.81-1.39a4,4,0,0,0,.27-1.77,3,3,0,0,0-1-2,2.54,2.54,0,0,0-2.21-.46,3.59,3.59,0,0,0-1.59.85c-.73.7-1,1.26-.94,1.29s.46-.41,1.2-1a3.54,3.54,0,0,1,1.44-.65,2.06,2.06,0,0,1,1.73.39,2.6,2.6,0,0,1,.83,1.62,4.05,4.05,0,0,1-.13,1.59A8.79,8.79,0,0,0,198.07,156.41Z"/><path class="cls-38" d="M196.18,156.12c0-.16-.43-.35-1-.54s-1-.31-1.11-.17.32.51.93.72S196.16,156.27,196.18,156.12Z"/><path class="cls-38" d="M187.59,158h.08a2.45,2.45,0,0,0-1-4.8l-.08,0a2.45,2.45,0,0,0,1,4.79Z"/><path class="cls-38" d="M204.6,152.54c3.09-.64,2.1-5.44-1-4.8s-2.1,5.44,1,4.8Z"/><path class="cls-38" d="M184.51,145.64c0-.23-.6-.38-1.48-.24a7.06,7.06,0,0,0-5.17,4.24c-.31.84-.27,1.42-.06,1.5.47.17,1.44-1.51,3.21-2.93S184.58,146.13,184.51,145.64Z"/><path class="cls-38" d="M208.3,140.26c.13-.19-.19-.68-.93-1.21a7.55,7.55,0,0,0-3.29-1.24,7.64,7.64,0,0,0-3.5.35c-.85.32-1.28.72-1.21.94.18.46,2.15.1,4.49.43S208,140.67,208.3,140.26Z"/><path class="cls-6" d="M207.55,137.69a11.86,11.86,0,0,0-9.4,10.7,4.76,4.76,0,0,0-3.56-1.14c-2.11.15-3.21,1.79-3.78,3.57a11.8,11.8,0,1,0,2.23,4.81,12.16,12.16,0,0,0-1.49-3.74,4.33,4.33,0,0,1,2.12-3.32,3.45,3.45,0,0,1,4.47,1.33,10.82,10.82,0,0,0,.22,1.78,11.84,11.84,0,1,0,9.19-14Zm-24,30.46a10.33,10.33,0,1,1,8-12.22A10.33,10.33,0,0,1,183.54,168.15ZM212,159.4a10.33,10.33,0,1,1,8-12.21A10.33,10.33,0,0,1,212,159.4Z"/><path class="cls-29" d="M178.9,148.35c-.07-2.92,0-5.82.1-8.72a43.65,43.65,0,0,0,2.78,7.91c4.11-1.19,8.19-2.52,12.27-3.88,0-.06,0-.12,0-.19-.35-2.66-.71-5.33-1.06-8,.95,2.54,2,5.05,3.1,7.52,1.54-.52,3.07-1,4.61-1.53,2.24-.74,4.58-1.48,6.89-2.32q-.7-4-1.62-8,1.73,3.51,3.44,7c.05.09.1.18.16.27a39.34,39.34,0,0,0,7.29-3.71v0A27,27,0,0,0,213,125a14.36,14.36,0,0,0-7.71-5.94,16.91,16.91,0,0,0-7.39,0,58.94,58.94,0,0,0-9.4,2.41c-2.6.89-5,2.3-7.56,3a23.08,23.08,0,0,0-13.14,9.32c-1.56,2.37-1.36,5.88-1.1,8.79.05.63.75,5.24,1.35,8.21C171.68,150.16,175.31,149.32,178.9,148.35Z"/><path class="cls-38" d="M272,315.13a7.44,7.44,0,0,0-5.12-6.27,10.77,10.77,0,0,0-7.31.35,9.24,9.24,0,0,0-2.52,4.3,32.25,32.25,0,0,0-9.09-2.8,12.57,12.57,0,0,0-5.48.64c1.34,2.67,2.73,5.31,4.21,7.91a1.73,1.73,0,0,0,.64.75,1.76,1.76,0,0,0,1.18,0C256.37,318.44,264.47,317.86,272,315.13Z"/><path class="cls-10" d="M203.12,300.45c.09.48.19.95.29,1.42A64.52,64.52,0,0,0,221,300.54l-.15-1.41A63.94,63.94,0,0,1,203.12,300.45Z"/><path class="cls-10" d="M236,297.66a54.55,54.55,0,0,0,15.61-7.36c-.17-.44-.32-.9-.48-1.35a53.29,53.29,0,0,1-15.77,7.41C235.62,296.79,235.83,297.22,236,297.66Z"/><g class="cls-32"><path class="cls-28" d="M221.68,157.12a5.75,5.75,0,0,1-.33-2.51,15.21,15.21,0,0,1,.49-4.15,5.93,5.93,0,0,1,2.36-3.36.41.41,0,0,1,.35-.08.7.7,0,0,1,.16.14,6.19,6.19,0,0,1,.58,5.72,12.84,12.84,0,0,1-3.5,4.8"/></g><g class="cls-32"><path class="cls-28" d="M193.29,153.47c0-.6.33.35.58.62s.51.57.78.83c-.05,0,.42.36.51.45a4.25,4.25,0,0,0,2.57.79,3.19,3.19,0,0,0,.75-1.46,3.37,3.37,0,0,0,.18-.87,3.67,3.67,0,0,0-.33-1.38,2.42,2.42,0,0,0-.49-.87,1.77,1.77,0,0,0-1.09-.44,3.62,3.62,0,0,0-3.49,2C193.27,153.24,193.29,153.35,193.29,153.47Z"/></g><path class="cls-28" d="M244.82,212.1c-1.8-1.12-4.39-1.41-7-1.43-2.32,0-4.66.17-6.46.15-.58,8.21-10.12,11.75-17.28,12.28a38.44,38.44,0,0,1-4.68.06c-3.33-.54-6.25-2.58-9.42-3.8-.37-.14-.92-.18-1,.2a.64.64,0,0,0,.12.46c.88,1.6,2.59,2.52,4.22,3.36l-6.18.51a3.08,3.08,0,0,0-2.24.81.57.57,0,0,0-.17.42c0,.26.32.4.57.48a9,9,0,0,0,5.27.05,21.44,21.44,0,0,1-3.42,1.14,4.64,4.64,0,0,0-2.84,2.08c.46.6,1.37.57,2.12.48l4.46-.52a34.86,34.86,0,0,0-5.25,2.28c-.29.16-.61.36-.68.69-.15.68.82,1,1.51,1a17.66,17.66,0,0,0,3.46-.53,6.58,6.58,0,0,0-3.31,2.18c-.28.39-.48,1-.14,1.32a1.16,1.16,0,0,0,1.12.11,29.31,29.31,0,0,1,3.36-.65,30.46,30.46,0,0,1,7,.3c.6.17,1.21.28,1.61.43,1.8.66,4,.54,5.86.63,3.71.15,7.43.14,11.13-.08a47,47,0,0,0,7.81-1.57c5.11-1.22,10.63-3.36,13.26-8.25C249.7,222.78,248.89,214.64,244.82,212.1Z"/><path class="cls-28" d="M172.78,204.84c-.82-1.25-1.95-3.11-1.72-4.3s2-2.63,2.83-3.65c1.25-1.57,2.89-3.2,4.9-3.12,1.84.08,3.08,1.86,4.34,3a2.71,2.71,0,0,1,.82,1.08,1,1,0,0,1-.45,1.17,1.4,1.4,0,0,1-1.1-.26l-3.43-2a17.32,17.32,0,0,1,2.59,5.06c.25.77.33,1.82-.38,2.19a1.28,1.28,0,0,1-1.38-.27,4.21,4.21,0,0,1-.84-1.22,20.2,20.2,0,0,0-3-4.17,28.6,28.6,0,0,1,2.11,5.78c.13.52.18,1.21-.3,1.45s-1.12-.37-1.42-.92L174,200.25c.71,2,1.44,4,1.06,6.09-.62.44-1.42-.23-1.84-.87C173.08,205.29,172.94,205.07,172.78,204.84Z"/><g class="cls-3"><path class="cls-23" d="M99.05,41.84l27-1.91,13.69-1c2.19-.16,4.42-.43,6.63-.42.31,0,4.52-.38,4.16-.76a4.9,4.9,0,0,0-2.82-1.43l3-1.84a20.73,20.73,0,0,0-4-2.39l3-1.88a9.66,9.66,0,0,0-3.37-1.45l2.83-3.25-3.88-.39a12,12,0,0,0,3.19-2.49l-4.25-1.83a21.78,21.78,0,0,0,3.67-3.29l-3.38-1a5.31,5.31,0,0,0,1.87-2.21l-2.85,0c-26.44-.27-53,1.43-79.22,4l3,2.45a16,16,0,0,0-4.45,1.77l4.32,1.3a24.26,24.26,0,0,0-3.57,3.82,9.08,9.08,0,0,0,3.95.09l-3.49,4a16.85,16.85,0,0,0,4.19.37l-2.83,3.77,2.7.51-2.79,3.68A12.42,12.42,0,0,0,69,39.63l-2.86,3.61C77.15,43.39,88.11,42.61,99.05,41.84Z"/></g></g></g></g></svg>