<svg xmlns="http://www.w3.org/2000/svg" xmlns:xlink="http://www.w3.org/1999/xlink" viewBox="0 0 108.7 114.4"><defs><style>.cls-1{opacity:0.3;}.cls-2{fill:none;stroke:#6a2d01;stroke-linecap:round;stroke-linejoin:round;stroke-width:4px;}.cls-3{fill:#6a2d01;}.cls-4{fill:#ffe3a1;}.cls-5{fill:url(#New_Gradient_Swatch_1);}.cls-6{fill:url(#New_Gradient_Swatch_1-6);}</style><linearGradient id="New_Gradient_Swatch_1" x1="55.56" y1="24.18" x2="55.56" y2="-4.99" gradientUnits="userSpaceOnUse"><stop offset="0" stop-color="#c6753f"/><stop offset="0.5" stop-color="#c6753f" stop-opacity="0"/></linearGradient><linearGradient id="New_Gradient_Swatch_1-6" x1="50.87" y1="100.17" x2="50.87" y2="70.01" xlink:href="#New_Gradient_Swatch_1"/></defs><g id="Layer_2" data-name="Layer 2"><g id="Ultimate_Casual_Game_UI_kit:_Paradise_Lagoon" data-name="Ultimate Casual Game UI kit: Paradise Lagoon"><g id="general_modal" data-name="general modal"><g id="wood_title_area" data-name="wood title area"><g class="cls-1"><path class="cls-2" d="M19.33,17.82c.68-1.12,1.32-2.2,1.93-3.24s1.22-2.07,1.84-3.08c.21-.37.44-.74.67-1.1a7,7,0,0,1,.79-1,8,8,0,0,1,2-1.68,4.23,4.23,0,0,1,3.12-.39,4.65,4.65,0,0,1,2.6,1.82,6.42,6.42,0,0,1,1,2,14.56,14.56,0,0,1,.47,2.4c.1.83.15,1.64.17,2.44s0,1.51,0,2.12q0,3.12-.12,6.18t-.16,6.18a2.72,2.72,0,0,0,0,.42,1.87,1.87,0,0,1,0,.42,3.24,3.24,0,0,1-1.13,2.06,3.42,3.42,0,0,1-2.27.78,3.25,3.25,0,0,1-2.13-.81,3.35,3.35,0,0,1-1.08-2,1.91,1.91,0,0,1,0-.64c.05-1.6.1-3.18.16-4.74s.1-3.14.16-4.74c0-.54,0-1.07,0-1.6A10,10,0,0,0,27,17.94l-.24.3a1.25,1.25,0,0,0-.21.3c-.64,1.17-1.3,2.33-2,3.48s-1.32,2.32-2,3.52a4.2,4.2,0,0,1-1.41,1.58,3.32,3.32,0,0,1-2.07.46,3.47,3.47,0,0,1-2.52-1.32,24.74,24.74,0,0,1-1.42-2A24.42,24.42,0,0,1,14,22c-.38-.83-.8-1.64-1.26-2.44s-.93-1.65-1.42-2.56a4.83,4.83,0,0,0-.12.5,1,1,0,0,0,0,.34l.06,2.56c0,.85,0,1.71.06,2.56.06,1.17.11,2.33.15,3.46s.07,2.29.1,3.46a3.32,3.32,0,0,1-.67,2.28,3.54,3.54,0,0,1-2,1.2A3.2,3.2,0,0,1,6.32,33a2.86,2.86,0,0,1-1.38-2.14A14.06,14.06,0,0,1,4.82,29c0-.62,0-1.25-.05-1.88,0-1.66-.11-3.3-.16-4.95s-.11-3.28-.17-4.93a19.72,19.72,0,0,1,.32-4.5A11,11,0,0,1,6.18,9,4.3,4.3,0,0,1,8.61,7.07a4.11,4.11,0,0,1,3.08.36,6.22,6.22,0,0,1,2.64,2.32c.55.74,1.06,1.5,1.55,2.26l1.46,2.29c.35.56.68,1.14,1,1.72S19,17.21,19.33,17.82Z"/><path class="cls-2" d="M55.24,19.91a23.35,23.35,0,0,1-.14,4.2,13,13,0,0,1-1.19,4,8.14,8.14,0,0,1-2.38,3.07,8,8,0,0,1-3.09,1.46,7.78,7.78,0,0,1-3.36,0,9.33,9.33,0,0,1-3.18-1.34,9.9,9.9,0,0,1-2.56-2.45,8.86,8.86,0,0,1-1.5-3.46,25.43,25.43,0,0,1-.55-4.64,35,35,0,0,1,.17-4.68,3.44,3.44,0,0,1,1.24-2.34A3.63,3.63,0,0,1,41.24,13a3.08,3.08,0,0,1,2,.84,2.93,2.93,0,0,1,.92,1.84,3.64,3.64,0,0,1,.06.8c0,.27,0,.54,0,.8,0,1,.06,2,.08,2.92s.07,1.92.13,2.88a4.17,4.17,0,0,0,.59,2.3,1.58,1.58,0,0,0,1.24.8,1.79,1.79,0,0,0,1.34-.68,4.21,4.21,0,0,0,.89-2.14,14.26,14.26,0,0,0,.11-3.26,26.64,26.64,0,0,1,0-3.22,3,3,0,0,1,.46-1.5,3.73,3.73,0,0,1,1-1.08,3.43,3.43,0,0,1,1.39-.54,3.66,3.66,0,0,1,1.57.11,3,3,0,0,1,2.27,3c0,.54,0,1.06,0,1.56S55.24,19.38,55.24,19.91Z"/><path class="cls-2" d="M66.72,17.38c.49.3,1,.57,1.44.82s.94.53,1.4.82a16,16,0,0,1,3.21,2.64,8.32,8.32,0,0,1,2,3.64,6.52,6.52,0,0,1,.06,3.28A6.88,6.88,0,0,1,71,33.3a6.59,6.59,0,0,1-3.24.64,10.56,10.56,0,0,1-4.28-1,22.62,22.62,0,0,1-3.6-2.14,3.26,3.26,0,0,1-1.4-1.68,2.73,2.73,0,0,1,.1-2,3.37,3.37,0,0,1,.65-.94,3.87,3.87,0,0,1,.91-.7,3.48,3.48,0,0,1,1.08-.38,2.87,2.87,0,0,1,1.13,0,5.42,5.42,0,0,1,1.1.42l1.1.54c.4.21.81.43,1.21.67a10.65,10.65,0,0,0,1.26.64,1.16,1.16,0,0,0,.67.22.49.49,0,0,0,.39-.2.66.66,0,0,0,.06-.5,1.83,1.83,0,0,0-.27-.64,5.84,5.84,0,0,0-2.15-2l-1.5-.87-1.5-.88a7.79,7.79,0,0,1-2.6-2.28,5.62,5.62,0,0,1-1.26-3.66,6.39,6.39,0,0,1,1.33-3.74,8.37,8.37,0,0,1,2.25-2,9.16,9.16,0,0,1,2.82-1.17,10,10,0,0,1,3-.2,8,8,0,0,1,2.88.82,6.43,6.43,0,0,1,2.08,1.56A3,3,0,0,1,74.08,14a3.18,3.18,0,0,1-.83,2.1,3.26,3.26,0,0,1-2.11,1.08,3.38,3.38,0,0,1-2.35-.52,1.88,1.88,0,0,1-.23-.16l-.22-.16a1.83,1.83,0,0,0-1-.46,1.78,1.78,0,0,0-1,.12.58.58,0,0,0-.36.54C66,16.78,66.23,17.06,66.72,17.38Z"/><path class="cls-2" d="M84.54,24.41c0,.75,0,1.49,0,2.24s0,1.51,0,2.28a3.44,3.44,0,0,1-.75,2.16,3.3,3.3,0,0,1-2,1.08,3.34,3.34,0,0,1-2.45-.48,3.05,3.05,0,0,1-1.44-2,7,7,0,0,1-.13-.8c0-.26,0-.54,0-.84V19.81a1.85,1.85,0,0,1,.08-.56,3.42,3.42,0,0,1,1.21-2,3.57,3.57,0,0,1,4.45.16,3.22,3.22,0,0,1,1,2.18,6.2,6.2,0,0,1,.06,1.22c0,.41,0,.83,0,1.26a8.89,8.89,0,0,1,0,1.16C84.54,23.61,84.54,24,84.54,24.41Zm-3-9a3.44,3.44,0,0,1-2.4-.88,2.93,2.93,0,0,1-1-2.2,2.9,2.9,0,0,1,1-2.2,3.35,3.35,0,0,1,2.39-.92,3.58,3.58,0,0,1,1.28.24,3.42,3.42,0,0,1,1.09.66,3.28,3.28,0,0,1,.76,1,2.51,2.51,0,0,1,.28,1.16,2.9,2.9,0,0,1-1,2.22A3.57,3.57,0,0,1,81.53,15.41Z"/><path class="cls-2" d="M94.92,17.64c.73-.48,1.42-.94,2.06-1.38s1.3-.88,2-1.3A10.4,10.4,0,0,1,101,13.83a2.66,2.66,0,0,1,1.44-.14,3.86,3.86,0,0,1,1.36.58,3.16,3.16,0,0,1,1,1,2.87,2.87,0,0,1,.45,1.24,2.74,2.74,0,0,1-.16,1.32,2.91,2.91,0,0,1-.81,1.18c-.38.32-.76.63-1.16.92l-1.15.88-.43.34a5.5,5.5,0,0,1-.54.38c.62.4,1.21.8,1.78,1.18s1.15.77,1.75,1.14a2.39,2.39,0,0,0,.51.34,2.29,2.29,0,0,1,.46.34,2.75,2.75,0,0,1,1.06,3.16,2.86,2.86,0,0,1-1,1.5,3.14,3.14,0,0,1-1.71.7,4.78,4.78,0,0,1-3-.67c-.59-.38-1.18-.76-1.77-1.16s-1.18-.79-1.8-1.16a11.31,11.31,0,0,0-1-.62c-.33-.2-.72-.42-1.15-.66.05.61.09,1.18.12,1.7s0,1,.08,1.54a3.22,3.22,0,0,1-.64,2.28,3.5,3.5,0,0,1-2.11,1.2,3.35,3.35,0,0,1-1.34,0,3.44,3.44,0,0,1-1.2-.5,3.07,3.07,0,0,1-.91-.92,3.15,3.15,0,0,1-.49-1.23,7.4,7.4,0,0,1-.16-1.15c0-.38,0-.76,0-1.13q-.2-4.73-.39-9.38t-.39-9.38A3.3,3.3,0,0,1,88,7.13,3.79,3.79,0,0,1,88.62,6a3,3,0,0,1,.91-.68,4.07,4.07,0,0,1,1-.32A3.56,3.56,0,0,1,93,5.56a3.34,3.34,0,0,1,1.42,2.12,13.93,13.93,0,0,1,.1,1.44c0,.48,0,1,.07,1.48.05.93.09,1.89.1,2.86s0,1.93.06,2.86c0,.19,0,.37,0,.56S94.86,17.32,94.92,17.64Z"/><path class="cls-2" d="M19.33,19.82c.68-1.12,1.32-2.2,1.93-3.24s1.22-2.07,1.84-3.08c.21-.37.44-.74.67-1.1a7,7,0,0,1,.79-1,8,8,0,0,1,2-1.68,4.23,4.23,0,0,1,3.12-.39,4.65,4.65,0,0,1,2.6,1.82,6.42,6.42,0,0,1,1,2,14.56,14.56,0,0,1,.47,2.4c.1.83.15,1.64.17,2.44s0,1.51,0,2.12q0,3.12-.12,6.18t-.16,6.18a2.72,2.72,0,0,0,0,.42,1.87,1.87,0,0,1,0,.42,3.24,3.24,0,0,1-1.13,2.06,3.42,3.42,0,0,1-2.27.78,3.25,3.25,0,0,1-2.13-.81,3.35,3.35,0,0,1-1.08-2,1.91,1.91,0,0,1,0-.64c.05-1.6.1-3.18.16-4.74s.1-3.14.16-4.74c0-.54,0-1.07,0-1.6A10,10,0,0,0,27,19.94l-.24.3a1.25,1.25,0,0,0-.21.3c-.64,1.17-1.3,2.33-2,3.48s-1.32,2.32-2,3.52a4.2,4.2,0,0,1-1.41,1.58,3.32,3.32,0,0,1-2.07.46,3.47,3.47,0,0,1-2.52-1.32,24.74,24.74,0,0,1-1.42-2A24.42,24.42,0,0,1,14,24c-.38-.83-.8-1.64-1.26-2.44s-.93-1.65-1.42-2.56a4.83,4.83,0,0,0-.12.5,1,1,0,0,0,0,.34l.06,2.56c0,.85,0,1.71.06,2.56.06,1.17.11,2.33.15,3.46s.07,2.29.1,3.46a3.32,3.32,0,0,1-.67,2.28,3.54,3.54,0,0,1-2,1.2A3.2,3.2,0,0,1,6.32,35a2.86,2.86,0,0,1-1.38-2.14A14.06,14.06,0,0,1,4.82,31c0-.62,0-1.25-.05-1.88,0-1.66-.11-3.3-.16-4.95s-.11-3.28-.17-4.93a19.72,19.72,0,0,1,.32-4.5A11,11,0,0,1,6.18,11,4.3,4.3,0,0,1,8.61,9.07a4.11,4.11,0,0,1,3.08.36,6.22,6.22,0,0,1,2.64,2.32c.55.74,1.06,1.5,1.55,2.26l1.46,2.29c.35.56.68,1.14,1,1.72S19,19.21,19.33,19.82Z"/><path class="cls-2" d="M55.24,21.91a23.35,23.35,0,0,1-.14,4.2,13,13,0,0,1-1.19,4,8.14,8.14,0,0,1-2.38,3.07,8,8,0,0,1-3.09,1.46,7.78,7.78,0,0,1-3.36,0,9.33,9.33,0,0,1-3.18-1.34,9.9,9.9,0,0,1-2.56-2.45,8.86,8.86,0,0,1-1.5-3.46,25.43,25.43,0,0,1-.55-4.64,35,35,0,0,1,.17-4.68,3.44,3.44,0,0,1,1.24-2.34A3.63,3.63,0,0,1,41.24,15a3.08,3.08,0,0,1,2,.84,2.93,2.93,0,0,1,.92,1.84,3.64,3.64,0,0,1,.06.8c0,.27,0,.54,0,.8,0,1,.06,2,.08,2.92s.07,1.92.13,2.88a4.17,4.17,0,0,0,.59,2.3,1.58,1.58,0,0,0,1.24.8,1.79,1.79,0,0,0,1.34-.68,4.21,4.21,0,0,0,.89-2.14,14.26,14.26,0,0,0,.11-3.26,26.64,26.64,0,0,1,0-3.22,3,3,0,0,1,.46-1.5,3.73,3.73,0,0,1,1-1.08,3.43,3.43,0,0,1,1.39-.54,3.66,3.66,0,0,1,1.57.11,3,3,0,0,1,2.27,3c0,.54,0,1.06,0,1.56S55.24,21.38,55.24,21.91Z"/><path class="cls-2" d="M66.72,19.38c.49.3,1,.57,1.44.82s.94.53,1.4.82a16,16,0,0,1,3.21,2.64,8.32,8.32,0,0,1,2,3.64,6.52,6.52,0,0,1,.06,3.28A6.88,6.88,0,0,1,71,35.3a6.59,6.59,0,0,1-3.24.64,10.56,10.56,0,0,1-4.28-1,22.62,22.62,0,0,1-3.6-2.14,3.26,3.26,0,0,1-1.4-1.68,2.73,2.73,0,0,1,.1-2,3.37,3.37,0,0,1,.65-.94,3.87,3.87,0,0,1,.91-.7,3.48,3.48,0,0,1,1.08-.38,2.87,2.87,0,0,1,1.13,0,5.42,5.42,0,0,1,1.1.42l1.1.54c.4.21.81.43,1.21.67a10.65,10.65,0,0,0,1.26.64,1.16,1.16,0,0,0,.67.22.49.49,0,0,0,.39-.2.66.66,0,0,0,.06-.5,1.83,1.83,0,0,0-.27-.64,5.84,5.84,0,0,0-2.15-2l-1.5-.87-1.5-.88a7.79,7.79,0,0,1-2.6-2.28,5.62,5.62,0,0,1-1.26-3.66,6.39,6.39,0,0,1,1.33-3.74,8.37,8.37,0,0,1,2.25-2,9.16,9.16,0,0,1,2.82-1.17,10,10,0,0,1,3-.2,8,8,0,0,1,2.88.82,6.43,6.43,0,0,1,2.08,1.56A3,3,0,0,1,74.08,16a3.18,3.18,0,0,1-.83,2.1,3.26,3.26,0,0,1-2.11,1.08,3.38,3.38,0,0,1-2.35-.52,1.88,1.88,0,0,1-.23-.16l-.22-.16a1.83,1.83,0,0,0-1-.46,1.78,1.78,0,0,0-1,.12.58.58,0,0,0-.36.54C66,18.78,66.23,19.06,66.72,19.38Z"/><path class="cls-2" d="M84.54,26.41c0,.75,0,1.49,0,2.24s0,1.51,0,2.28a3.44,3.44,0,0,1-.75,2.16,3.3,3.3,0,0,1-2,1.08,3.34,3.34,0,0,1-2.45-.48,3.05,3.05,0,0,1-1.44-2,7,7,0,0,1-.13-.8c0-.26,0-.54,0-.84V21.81a1.85,1.85,0,0,1,.08-.56,3.42,3.42,0,0,1,1.21-2,3.57,3.57,0,0,1,4.45.16,3.22,3.22,0,0,1,1,2.18,6.2,6.2,0,0,1,.06,1.22c0,.41,0,.83,0,1.26a8.89,8.89,0,0,1,0,1.16C84.54,25.61,84.54,26,84.54,26.41Zm-3-9a3.44,3.44,0,0,1-2.4-.88,2.93,2.93,0,0,1-1-2.2,2.9,2.9,0,0,1,1-2.2,3.35,3.35,0,0,1,2.39-.92,3.58,3.58,0,0,1,1.28.24,3.42,3.42,0,0,1,1.09.66,3.28,3.28,0,0,1,.76,1,2.51,2.51,0,0,1,.28,1.16,2.9,2.9,0,0,1-1,2.22A3.57,3.57,0,0,1,81.53,17.41Z"/><path class="cls-2" d="M94.92,19.64c.73-.48,1.42-.94,2.06-1.38s1.3-.88,2-1.3A10.4,10.4,0,0,1,101,15.83a2.66,2.66,0,0,1,1.44-.14,3.86,3.86,0,0,1,1.36.58,3.16,3.16,0,0,1,1,1,2.87,2.87,0,0,1,.45,1.24,2.74,2.74,0,0,1-.16,1.32,2.91,2.91,0,0,1-.81,1.18c-.38.32-.76.63-1.16.92l-1.15.88-.43.34a5.5,5.5,0,0,1-.54.38c.62.4,1.21.8,1.78,1.18s1.15.77,1.75,1.14a2.39,2.39,0,0,0,.51.34,2.29,2.29,0,0,1,.46.34,2.75,2.75,0,0,1,1.06,3.16,2.86,2.86,0,0,1-1,1.5,3.14,3.14,0,0,1-1.71.7,4.78,4.78,0,0,1-3-.67c-.59-.38-1.18-.76-1.77-1.16s-1.18-.79-1.8-1.16a11.31,11.31,0,0,0-1-.62c-.33-.2-.72-.42-1.15-.66.05.61.09,1.18.12,1.7s0,1,.08,1.54a3.22,3.22,0,0,1-.64,2.28,3.5,3.5,0,0,1-2.11,1.2,3.35,3.35,0,0,1-1.34,0,3.44,3.44,0,0,1-1.2-.5,3.07,3.07,0,0,1-.91-.92,3.15,3.15,0,0,1-.49-1.23,7.4,7.4,0,0,1-.16-1.15c0-.38,0-.76,0-1.13q-.2-4.73-.39-9.38t-.39-9.38A3.3,3.3,0,0,1,88,9.13,3.79,3.79,0,0,1,88.62,8a3,3,0,0,1,.91-.68,4.07,4.07,0,0,1,1-.32A3.56,3.56,0,0,1,93,7.56a3.34,3.34,0,0,1,1.42,2.12,13.93,13.93,0,0,1,.1,1.44c0,.48,0,1,.07,1.48.05.93.09,1.89.1,2.86s0,1.93.06,2.86c0,.19,0,.37,0,.56S94.86,19.32,94.92,19.64Z"/><path class="cls-3" d="M19.33,17.82c.68-1.12,1.32-2.2,1.93-3.24s1.22-2.07,1.84-3.08c.21-.37.44-.74.67-1.1a7,7,0,0,1,.79-1,8,8,0,0,1,2-1.68,4.23,4.23,0,0,1,3.12-.39,4.65,4.65,0,0,1,2.6,1.82,6.42,6.42,0,0,1,1,2,14.56,14.56,0,0,1,.47,2.4c.1.83.15,1.64.17,2.44s0,1.51,0,2.12q0,3.12-.12,6.18t-.16,6.18a2.72,2.72,0,0,0,0,.42,1.87,1.87,0,0,1,0,.42,3.24,3.24,0,0,1-1.13,2.06,3.42,3.42,0,0,1-2.27.78,3.25,3.25,0,0,1-2.13-.81,3.35,3.35,0,0,1-1.08-2,1.91,1.91,0,0,1,0-.64c.05-1.6.1-3.18.16-4.74s.1-3.14.16-4.74c0-.54,0-1.07,0-1.6A10,10,0,0,0,27,17.94l-.24.3a1.25,1.25,0,0,0-.21.3c-.64,1.17-1.3,2.33-2,3.48s-1.32,2.32-2,3.52a4.2,4.2,0,0,1-1.41,1.58,3.32,3.32,0,0,1-2.07.46,3.47,3.47,0,0,1-2.52-1.32,24.74,24.74,0,0,1-1.42-2A24.42,24.42,0,0,1,14,22c-.38-.83-.8-1.64-1.26-2.44s-.93-1.65-1.42-2.56a4.83,4.83,0,0,0-.12.5,1,1,0,0,0,0,.34l.06,2.56c0,.85,0,1.71.06,2.56.06,1.17.11,2.33.15,3.46s.07,2.29.1,3.46a3.32,3.32,0,0,1-.67,2.28,3.54,3.54,0,0,1-2,1.2A3.2,3.2,0,0,1,6.32,33a2.86,2.86,0,0,1-1.38-2.14A14.06,14.06,0,0,1,4.82,29c0-.62,0-1.25-.05-1.88,0-1.66-.11-3.3-.16-4.95s-.11-3.28-.17-4.93a19.72,19.72,0,0,1,.32-4.5A11,11,0,0,1,6.18,9,4.3,4.3,0,0,1,8.61,7.07a4.11,4.11,0,0,1,3.08.36,6.22,6.22,0,0,1,2.64,2.32c.55.74,1.06,1.5,1.55,2.26l1.46,2.29c.35.56.68,1.14,1,1.72S19,17.21,19.33,17.82Z"/><path class="cls-3" d="M55.24,19.91a23.35,23.35,0,0,1-.14,4.2,13,13,0,0,1-1.19,4,8.14,8.14,0,0,1-2.38,3.07,8,8,0,0,1-3.09,1.46,7.78,7.78,0,0,1-3.36,0,9.33,9.33,0,0,1-3.18-1.34,9.9,9.9,0,0,1-2.56-2.45,8.86,8.86,0,0,1-1.5-3.46,25.43,25.43,0,0,1-.55-4.64,35,35,0,0,1,.17-4.68,3.44,3.44,0,0,1,1.24-2.34A3.63,3.63,0,0,1,41.24,13a3.08,3.08,0,0,1,2,.84,2.93,2.93,0,0,1,.92,1.84,3.64,3.64,0,0,1,.06.8c0,.27,0,.54,0,.8,0,1,.06,2,.08,2.92s.07,1.92.13,2.88a4.17,4.17,0,0,0,.59,2.3,1.58,1.58,0,0,0,1.24.8,1.79,1.79,0,0,0,1.34-.68,4.21,4.21,0,0,0,.89-2.14,14.26,14.26,0,0,0,.11-3.26,26.64,26.64,0,0,1,0-3.22,3,3,0,0,1,.46-1.5,3.73,3.73,0,0,1,1-1.08,3.43,3.43,0,0,1,1.39-.54,3.66,3.66,0,0,1,1.57.11,3,3,0,0,1,2.27,3c0,.54,0,1.06,0,1.56S55.24,19.38,55.24,19.91Z"/><path class="cls-3" d="M66.72,17.38c.49.3,1,.57,1.44.82s.94.53,1.4.82a16,16,0,0,1,3.21,2.64,8.32,8.32,0,0,1,2,3.64,6.52,6.52,0,0,1,.06,3.28A6.88,6.88,0,0,1,71,33.3a6.59,6.59,0,0,1-3.24.64,10.56,10.56,0,0,1-4.28-1,22.62,22.62,0,0,1-3.6-2.14,3.26,3.26,0,0,1-1.4-1.68,2.73,2.73,0,0,1,.1-2,3.37,3.37,0,0,1,.65-.94,3.87,3.87,0,0,1,.91-.7,3.48,3.48,0,0,1,1.08-.38,2.87,2.87,0,0,1,1.13,0,5.42,5.42,0,0,1,1.1.42l1.1.54c.4.21.81.43,1.21.67a10.65,10.65,0,0,0,1.26.64,1.16,1.16,0,0,0,.67.22.49.49,0,0,0,.39-.2.66.66,0,0,0,.06-.5,1.83,1.83,0,0,0-.27-.64,5.84,5.84,0,0,0-2.15-2l-1.5-.87-1.5-.88a7.79,7.79,0,0,1-2.6-2.28,5.62,5.62,0,0,1-1.26-3.66,6.39,6.39,0,0,1,1.33-3.74,8.37,8.37,0,0,1,2.25-2,9.16,9.16,0,0,1,2.82-1.17,10,10,0,0,1,3-.2,8,8,0,0,1,2.88.82,6.43,6.43,0,0,1,2.08,1.56A3,3,0,0,1,74.08,14a3.18,3.18,0,0,1-.83,2.1,3.26,3.26,0,0,1-2.11,1.08,3.38,3.38,0,0,1-2.35-.52,1.88,1.88,0,0,1-.23-.16l-.22-.16a1.83,1.83,0,0,0-1-.46,1.78,1.78,0,0,0-1,.12.58.58,0,0,0-.36.54C66,16.78,66.23,17.06,66.72,17.38Z"/><path class="cls-3" d="M84.54,24.41c0,.75,0,1.49,0,2.24s0,1.51,0,2.28a3.44,3.44,0,0,1-.75,2.16,3.3,3.3,0,0,1-2,1.08,3.34,3.34,0,0,1-2.45-.48,3.05,3.05,0,0,1-1.44-2,7,7,0,0,1-.13-.8c0-.26,0-.54,0-.84V19.81a1.85,1.85,0,0,1,.08-.56,3.42,3.42,0,0,1,1.21-2,3.57,3.57,0,0,1,4.45.16,3.22,3.22,0,0,1,1,2.18,6.2,6.2,0,0,1,.06,1.22c0,.41,0,.83,0,1.26a8.89,8.89,0,0,1,0,1.16C84.54,23.61,84.54,24,84.54,24.41Zm-3-9a3.44,3.44,0,0,1-2.4-.88,2.93,2.93,0,0,1-1-2.2,2.9,2.9,0,0,1,1-2.2,3.35,3.35,0,0,1,2.39-.92,3.58,3.58,0,0,1,1.28.24,3.42,3.42,0,0,1,1.09.66,3.28,3.28,0,0,1,.76,1,2.51,2.51,0,0,1,.28,1.16,2.9,2.9,0,0,1-1,2.22A3.57,3.57,0,0,1,81.53,15.41Z"/><path class="cls-3" d="M94.92,17.64c.73-.48,1.42-.94,2.06-1.38s1.3-.88,2-1.3A10.4,10.4,0,0,1,101,13.83a2.66,2.66,0,0,1,1.44-.14,3.86,3.86,0,0,1,1.36.58,3.16,3.16,0,0,1,1,1,2.87,2.87,0,0,1,.45,1.24,2.74,2.74,0,0,1-.16,1.32,2.91,2.91,0,0,1-.81,1.18c-.38.32-.76.63-1.16.92l-1.15.88-.43.34a5.5,5.5,0,0,1-.54.38c.62.4,1.21.8,1.78,1.18s1.15.77,1.75,1.14a2.39,2.39,0,0,0,.51.34,2.29,2.29,0,0,1,.46.34,2.75,2.75,0,0,1,1.06,3.16,2.86,2.86,0,0,1-1,1.5,3.14,3.14,0,0,1-1.71.7,4.78,4.78,0,0,1-3-.67c-.59-.38-1.18-.76-1.77-1.16s-1.18-.79-1.8-1.16a11.31,11.31,0,0,0-1-.62c-.33-.2-.72-.42-1.15-.66.05.61.09,1.18.12,1.7s0,1,.08,1.54a3.22,3.22,0,0,1-.64,2.28,3.5,3.5,0,0,1-2.11,1.2,3.35,3.35,0,0,1-1.34,0,3.44,3.44,0,0,1-1.2-.5,3.07,3.07,0,0,1-.91-.92,3.15,3.15,0,0,1-.49-1.23,7.4,7.4,0,0,1-.16-1.15c0-.38,0-.76,0-1.13q-.2-4.73-.39-9.38t-.39-9.38A3.3,3.3,0,0,1,88,7.13,3.79,3.79,0,0,1,88.62,6a3,3,0,0,1,.91-.68,4.07,4.07,0,0,1,1-.32A3.56,3.56,0,0,1,93,5.56a3.34,3.34,0,0,1,1.42,2.12,13.93,13.93,0,0,1,.1,1.44c0,.48,0,1,.07,1.48.05.93.09,1.89.1,2.86s0,1.93.06,2.86c0,.19,0,.37,0,.56S94.86,17.32,94.92,17.64Z"/><path class="cls-3" d="M19.33,17.82c.68-1.12,1.32-2.2,1.93-3.24s1.22-2.07,1.84-3.08c.21-.37.44-.74.67-1.1a7,7,0,0,1,.79-1,8,8,0,0,1,2-1.68,4.23,4.23,0,0,1,3.12-.39,4.65,4.65,0,0,1,2.6,1.82,6.42,6.42,0,0,1,1,2,14.56,14.56,0,0,1,.47,2.4c.1.83.15,1.64.17,2.44s0,1.51,0,2.12q0,3.12-.12,6.18t-.16,6.18a2.72,2.72,0,0,0,0,.42,1.87,1.87,0,0,1,0,.42,3.24,3.24,0,0,1-1.13,2.06,3.42,3.42,0,0,1-2.27.78,3.25,3.25,0,0,1-2.13-.81,3.35,3.35,0,0,1-1.08-2,1.91,1.91,0,0,1,0-.64c.05-1.6.1-3.18.16-4.74s.1-3.14.16-4.74c0-.54,0-1.07,0-1.6A10,10,0,0,0,27,17.94l-.24.3a1.25,1.25,0,0,0-.21.3c-.64,1.17-1.3,2.33-2,3.48s-1.32,2.32-2,3.52a4.2,4.2,0,0,1-1.41,1.58,3.32,3.32,0,0,1-2.07.46,3.47,3.47,0,0,1-2.52-1.32,24.74,24.74,0,0,1-1.42-2A24.42,24.42,0,0,1,14,22c-.38-.83-.8-1.64-1.26-2.44s-.93-1.65-1.42-2.56a4.83,4.83,0,0,0-.12.5,1,1,0,0,0,0,.34l.06,2.56c0,.85,0,1.71.06,2.56.06,1.17.11,2.33.15,3.46s.07,2.29.1,3.46a3.32,3.32,0,0,1-.67,2.28,3.54,3.54,0,0,1-2,1.2A3.2,3.2,0,0,1,6.32,33a2.86,2.86,0,0,1-1.38-2.14A14.06,14.06,0,0,1,4.82,29c0-.62,0-1.25-.05-1.88,0-1.66-.11-3.3-.16-4.95s-.11-3.28-.17-4.93a19.72,19.72,0,0,1,.32-4.5A11,11,0,0,1,6.18,9,4.3,4.3,0,0,1,8.61,7.07a4.11,4.11,0,0,1,3.08.36,6.22,6.22,0,0,1,2.64,2.32c.55.74,1.06,1.5,1.55,2.26l1.46,2.29c.35.56.68,1.14,1,1.72S19,17.21,19.33,17.82Z"/><path class="cls-3" d="M55.24,19.91a23.35,23.35,0,0,1-.14,4.2,13,13,0,0,1-1.19,4,8.14,8.14,0,0,1-2.38,3.07,8,8,0,0,1-3.09,1.46,7.78,7.78,0,0,1-3.36,0,9.33,9.33,0,0,1-3.18-1.34,9.9,9.9,0,0,1-2.56-2.45,8.86,8.86,0,0,1-1.5-3.46,25.43,25.43,0,0,1-.55-4.64,35,35,0,0,1,.17-4.68,3.44,3.44,0,0,1,1.24-2.34A3.63,3.63,0,0,1,41.24,13a3.08,3.08,0,0,1,2,.84,2.93,2.93,0,0,1,.92,1.84,3.64,3.64,0,0,1,.06.8c0,.27,0,.54,0,.8,0,1,.06,2,.08,2.92s.07,1.92.13,2.88a4.17,4.17,0,0,0,.59,2.3,1.58,1.58,0,0,0,1.24.8,1.79,1.79,0,0,0,1.34-.68,4.21,4.21,0,0,0,.89-2.14,14.26,14.26,0,0,0,.11-3.26,26.64,26.64,0,0,1,0-3.22,3,3,0,0,1,.46-1.5,3.73,3.73,0,0,1,1-1.08,3.43,3.43,0,0,1,1.39-.54,3.66,3.66,0,0,1,1.57.11,3,3,0,0,1,2.27,3c0,.54,0,1.06,0,1.56S55.24,19.38,55.24,19.91Z"/><path class="cls-3" d="M66.72,17.38c.49.3,1,.57,1.44.82s.94.53,1.4.82a16,16,0,0,1,3.21,2.64,8.32,8.32,0,0,1,2,3.64,6.52,6.52,0,0,1,.06,3.28A6.88,6.88,0,0,1,71,33.3a6.59,6.59,0,0,1-3.24.64,10.56,10.56,0,0,1-4.28-1,22.62,22.62,0,0,1-3.6-2.14,3.26,3.26,0,0,1-1.4-1.68,2.73,2.73,0,0,1,.1-2,3.37,3.37,0,0,1,.65-.94,3.87,3.87,0,0,1,.91-.7,3.48,3.48,0,0,1,1.08-.38,2.87,2.87,0,0,1,1.13,0,5.42,5.42,0,0,1,1.1.42l1.1.54c.4.21.81.43,1.21.67a10.65,10.65,0,0,0,1.26.64,1.16,1.16,0,0,0,.67.22.49.49,0,0,0,.39-.2.66.66,0,0,0,.06-.5,1.83,1.83,0,0,0-.27-.64,5.84,5.84,0,0,0-2.15-2l-1.5-.87-1.5-.88a7.79,7.79,0,0,1-2.6-2.28,5.62,5.62,0,0,1-1.26-3.66,6.39,6.39,0,0,1,1.33-3.74,8.37,8.37,0,0,1,2.25-2,9.16,9.16,0,0,1,2.82-1.17,10,10,0,0,1,3-.2,8,8,0,0,1,2.88.82,6.43,6.43,0,0,1,2.08,1.56A3,3,0,0,1,74.08,14a3.18,3.18,0,0,1-.83,2.1,3.26,3.26,0,0,1-2.11,1.08,3.38,3.38,0,0,1-2.35-.52,1.88,1.88,0,0,1-.23-.16l-.22-.16a1.83,1.83,0,0,0-1-.46,1.78,1.78,0,0,0-1,.12.58.58,0,0,0-.36.54C66,16.78,66.23,17.06,66.72,17.38Z"/><path class="cls-3" d="M84.54,24.41c0,.75,0,1.49,0,2.24s0,1.51,0,2.28a3.44,3.44,0,0,1-.75,2.16,3.3,3.3,0,0,1-2,1.08,3.34,3.34,0,0,1-2.45-.48,3.05,3.05,0,0,1-1.44-2,7,7,0,0,1-.13-.8c0-.26,0-.54,0-.84V19.81a1.85,1.85,0,0,1,.08-.56,3.42,3.42,0,0,1,1.21-2,3.57,3.57,0,0,1,4.45.16,3.22,3.22,0,0,1,1,2.18,6.2,6.2,0,0,1,.06,1.22c0,.41,0,.83,0,1.26a8.89,8.89,0,0,1,0,1.16C84.54,23.61,84.54,24,84.54,24.41Zm-3-9a3.44,3.44,0,0,1-2.4-.88,2.93,2.93,0,0,1-1-2.2,2.9,2.9,0,0,1,1-2.2,3.35,3.35,0,0,1,2.39-.92,3.58,3.58,0,0,1,1.28.24,3.42,3.42,0,0,1,1.09.66,3.28,3.28,0,0,1,.76,1,2.51,2.51,0,0,1,.28,1.16,2.9,2.9,0,0,1-1,2.22A3.57,3.57,0,0,1,81.53,15.41Z"/><path class="cls-3" d="M94.92,17.64c.73-.48,1.42-.94,2.06-1.38s1.3-.88,2-1.3A10.4,10.4,0,0,1,101,13.83a2.66,2.66,0,0,1,1.44-.14,3.86,3.86,0,0,1,1.36.58,3.16,3.16,0,0,1,1,1,2.87,2.87,0,0,1,.45,1.24,2.74,2.74,0,0,1-.16,1.32,2.91,2.91,0,0,1-.81,1.18c-.38.32-.76.63-1.16.92l-1.15.88-.43.34a5.5,5.5,0,0,1-.54.38c.62.4,1.21.8,1.78,1.18s1.15.77,1.75,1.14a2.39,2.39,0,0,0,.51.34,2.29,2.29,0,0,1,.46.34,2.75,2.75,0,0,1,1.06,3.16,2.86,2.86,0,0,1-1,1.5,3.14,3.14,0,0,1-1.71.7,4.78,4.78,0,0,1-3-.67c-.59-.38-1.18-.76-1.77-1.16s-1.18-.79-1.8-1.16a11.31,11.31,0,0,0-1-.62c-.33-.2-.72-.42-1.15-.66.05.61.09,1.18.12,1.7s0,1,.08,1.54a3.22,3.22,0,0,1-.64,2.28,3.5,3.5,0,0,1-2.11,1.2,3.35,3.35,0,0,1-1.34,0,3.44,3.44,0,0,1-1.2-.5,3.07,3.07,0,0,1-.91-.92,3.15,3.15,0,0,1-.49-1.23,7.4,7.4,0,0,1-.16-1.15c0-.38,0-.76,0-1.13q-.2-4.73-.39-9.38t-.39-9.38A3.3,3.3,0,0,1,88,7.13,3.79,3.79,0,0,1,88.62,6a3,3,0,0,1,.91-.68,4.07,4.07,0,0,1,1-.32A3.56,3.56,0,0,1,93,5.56a3.34,3.34,0,0,1,1.42,2.12,13.93,13.93,0,0,1,.1,1.44c0,.48,0,1,.07,1.48.05.93.09,1.89.1,2.86s0,1.93.06,2.86c0,.19,0,.37,0,.56S94.86,17.32,94.92,17.64Z"/></g><path class="cls-2" d="M19.33,14.82c.68-1.12,1.32-2.2,1.93-3.24S22.48,9.51,23.1,8.5c.21-.37.44-.74.67-1.1a7,7,0,0,1,.79-1,8,8,0,0,1,2-1.68,4.23,4.23,0,0,1,3.12-.39,4.65,4.65,0,0,1,2.6,1.82,6.42,6.42,0,0,1,1,2,14.56,14.56,0,0,1,.47,2.4c.1.83.15,1.64.17,2.44s0,1.51,0,2.12q0,3.12-.12,6.18t-.16,6.18a2.72,2.72,0,0,0,0,.42,1.87,1.87,0,0,1,0,.42,3.24,3.24,0,0,1-1.13,2.06,3.42,3.42,0,0,1-2.27.78,3.25,3.25,0,0,1-2.13-.81,3.35,3.35,0,0,1-1.08-2,1.91,1.91,0,0,1,0-.64c.05-1.6.1-3.18.16-4.74s.1-3.14.16-4.74c0-.54,0-1.07,0-1.6A10,10,0,0,0,27,14.94l-.24.3a1.25,1.25,0,0,0-.21.3c-.64,1.17-1.3,2.33-2,3.48s-1.32,2.32-2,3.52a4.2,4.2,0,0,1-1.41,1.58,3.32,3.32,0,0,1-2.07.46,3.47,3.47,0,0,1-2.52-1.32,24.74,24.74,0,0,1-1.42-2A24.42,24.42,0,0,1,14,19c-.38-.83-.8-1.64-1.26-2.44s-.93-1.65-1.42-2.56a4.83,4.83,0,0,0-.12.5,1,1,0,0,0,0,.34l.06,2.56c0,.85,0,1.71.06,2.56.06,1.17.11,2.33.15,3.46s.07,2.29.1,3.46a3.32,3.32,0,0,1-.67,2.28,3.54,3.54,0,0,1-2,1.2A3.2,3.2,0,0,1,6.32,30a2.86,2.86,0,0,1-1.38-2.14A14.06,14.06,0,0,1,4.82,26c0-.62,0-1.25-.05-1.88,0-1.66-.11-3.3-.16-4.95s-.11-3.28-.17-4.93a19.72,19.72,0,0,1,.32-4.5A11,11,0,0,1,6.18,6,4.3,4.3,0,0,1,8.61,4.07a4.11,4.11,0,0,1,3.08.36,6.22,6.22,0,0,1,2.64,2.32c.55.74,1.06,1.5,1.55,2.26l1.46,2.29c.35.56.68,1.14,1,1.72S19,14.21,19.33,14.82Z"/><path class="cls-2" d="M55.24,16.91a23.35,23.35,0,0,1-.14,4.2,13,13,0,0,1-1.19,4,8.14,8.14,0,0,1-2.38,3.07,8,8,0,0,1-3.09,1.46,7.78,7.78,0,0,1-3.36,0,9.33,9.33,0,0,1-3.18-1.34,9.9,9.9,0,0,1-2.56-2.45,8.86,8.86,0,0,1-1.5-3.46,25.43,25.43,0,0,1-.55-4.64,35,35,0,0,1,.17-4.68,3.44,3.44,0,0,1,1.24-2.34A3.63,3.63,0,0,1,41.24,10a3.08,3.08,0,0,1,2,.84,2.93,2.93,0,0,1,.92,1.84,3.64,3.64,0,0,1,.06.8c0,.27,0,.54,0,.8,0,1,.06,2,.08,2.92s.07,1.92.13,2.88a4.17,4.17,0,0,0,.59,2.3,1.58,1.58,0,0,0,1.24.8,1.79,1.79,0,0,0,1.34-.68,4.21,4.21,0,0,0,.89-2.14,14.26,14.26,0,0,0,.11-3.26,26.64,26.64,0,0,1,0-3.22,3,3,0,0,1,.46-1.5,3.73,3.73,0,0,1,1-1.08,3.43,3.43,0,0,1,1.39-.54,3.66,3.66,0,0,1,1.57.11,3,3,0,0,1,2.27,3c0,.54,0,1.06,0,1.56S55.24,16.38,55.24,16.91Z"/><path class="cls-2" d="M66.72,14.38c.49.3,1,.57,1.44.82s.94.53,1.4.82a16,16,0,0,1,3.21,2.64,8.32,8.32,0,0,1,2,3.64,6.52,6.52,0,0,1,.06,3.28A6.88,6.88,0,0,1,71,30.3a6.59,6.59,0,0,1-3.24.64,10.56,10.56,0,0,1-4.28-1,22.62,22.62,0,0,1-3.6-2.14,3.26,3.26,0,0,1-1.4-1.68,2.73,2.73,0,0,1,.1-2,3.37,3.37,0,0,1,.65-.94,3.87,3.87,0,0,1,.91-.7,3.48,3.48,0,0,1,1.08-.38,2.87,2.87,0,0,1,1.13,0,5.42,5.42,0,0,1,1.1.42l1.1.54c.4.21.81.43,1.21.67a10.65,10.65,0,0,0,1.26.64,1.16,1.16,0,0,0,.67.22.49.49,0,0,0,.39-.2.66.66,0,0,0,.06-.5,1.83,1.83,0,0,0-.27-.64,5.84,5.84,0,0,0-2.15-2l-1.5-.87-1.5-.88a7.79,7.79,0,0,1-2.6-2.28,5.62,5.62,0,0,1-1.26-3.66,6.39,6.39,0,0,1,1.33-3.74,8.37,8.37,0,0,1,2.25-2,9.16,9.16,0,0,1,2.82-1.17,10,10,0,0,1,3-.2,8,8,0,0,1,2.88.82,6.43,6.43,0,0,1,2.08,1.56A3,3,0,0,1,74.08,11a3.18,3.18,0,0,1-.83,2.1,3.26,3.26,0,0,1-2.11,1.08,3.38,3.38,0,0,1-2.35-.52,1.88,1.88,0,0,1-.23-.16l-.22-.16a1.83,1.83,0,0,0-1-.46,1.78,1.78,0,0,0-1,.12.58.58,0,0,0-.36.54C66,13.78,66.23,14.06,66.72,14.38Z"/><path class="cls-2" d="M84.54,21.41c0,.75,0,1.49,0,2.24s0,1.51,0,2.28a3.44,3.44,0,0,1-.75,2.16,3.3,3.3,0,0,1-2,1.08,3.34,3.34,0,0,1-2.45-.48,3.05,3.05,0,0,1-1.44-2,7,7,0,0,1-.13-.8c0-.26,0-.54,0-.84V16.81a1.85,1.85,0,0,1,.08-.56,3.42,3.42,0,0,1,1.21-2,3.57,3.57,0,0,1,4.45.16,3.22,3.22,0,0,1,1,2.18,6.2,6.2,0,0,1,.06,1.22c0,.41,0,.83,0,1.26a8.89,8.89,0,0,1,0,1.16C84.54,20.61,84.54,21,84.54,21.41Zm-3-9a3.44,3.44,0,0,1-2.4-.88,2.93,2.93,0,0,1-1-2.2,2.9,2.9,0,0,1,1-2.2,3.35,3.35,0,0,1,2.39-.92,3.58,3.58,0,0,1,1.28.24,3.42,3.42,0,0,1,1.09.66,3.28,3.28,0,0,1,.76,1,2.51,2.51,0,0,1,.28,1.16,2.9,2.9,0,0,1-1,2.22A3.57,3.57,0,0,1,81.53,12.41Z"/><path class="cls-2" d="M94.92,14.64c.73-.48,1.42-.94,2.06-1.38s1.3-.88,2-1.3A10.4,10.4,0,0,1,101,10.83a2.66,2.66,0,0,1,1.44-.14,3.86,3.86,0,0,1,1.36.58,3.16,3.16,0,0,1,1,1,2.87,2.87,0,0,1,.45,1.24,2.74,2.74,0,0,1-.16,1.32,2.91,2.91,0,0,1-.81,1.18c-.38.32-.76.63-1.16.92l-1.15.88-.43.34a5.5,5.5,0,0,1-.54.38c.62.4,1.21.8,1.78,1.18s1.15.77,1.75,1.14a2.39,2.39,0,0,0,.51.34,2.29,2.29,0,0,1,.46.34,2.75,2.75,0,0,1,1.06,3.16,2.86,2.86,0,0,1-1,1.5,3.14,3.14,0,0,1-1.71.7,4.78,4.78,0,0,1-3-.67c-.59-.38-1.18-.76-1.77-1.16s-1.18-.79-1.8-1.16a11.31,11.31,0,0,0-1-.62c-.33-.2-.72-.42-1.15-.66.05.61.09,1.18.12,1.7s0,1,.08,1.54a3.22,3.22,0,0,1-.64,2.28,3.5,3.5,0,0,1-2.11,1.2,3.35,3.35,0,0,1-1.34,0,3.44,3.44,0,0,1-1.2-.5,3.07,3.07,0,0,1-.91-.92,3.15,3.15,0,0,1-.49-1.23,7.4,7.4,0,0,1-.16-1.15c0-.38,0-.76,0-1.13q-.2-4.73-.39-9.38t-.39-9.38A3.3,3.3,0,0,1,88,4.13,3.79,3.79,0,0,1,88.62,3a3,3,0,0,1,.91-.68,4.07,4.07,0,0,1,1-.32A3.56,3.56,0,0,1,93,2.56a3.34,3.34,0,0,1,1.42,2.12,13.93,13.93,0,0,1,.1,1.44c0,.48,0,1,.07,1.48.05.93.09,1.89.1,2.86s0,1.93.06,2.86c0,.19,0,.37,0,.56S94.86,14.32,94.92,14.64Z"/><path class="cls-2" d="M19.33,16.82c.68-1.12,1.32-2.2,1.93-3.24s1.22-2.07,1.84-3.08c.21-.37.44-.74.67-1.1a7,7,0,0,1,.79-1,8,8,0,0,1,2-1.68,4.23,4.23,0,0,1,3.12-.39,4.65,4.65,0,0,1,2.6,1.82,6.42,6.42,0,0,1,1,2,14.56,14.56,0,0,1,.47,2.4c.1.83.15,1.64.17,2.44s0,1.51,0,2.12q0,3.12-.12,6.18t-.16,6.18a2.72,2.72,0,0,0,0,.42,1.87,1.87,0,0,1,0,.42,3.24,3.24,0,0,1-1.13,2.06,3.42,3.42,0,0,1-2.27.78,3.25,3.25,0,0,1-2.13-.81,3.35,3.35,0,0,1-1.08-2,1.91,1.91,0,0,1,0-.64c.05-1.6.1-3.18.16-4.74s.1-3.14.16-4.74c0-.54,0-1.07,0-1.6A10,10,0,0,0,27,16.94l-.24.3a1.25,1.25,0,0,0-.21.3c-.64,1.17-1.3,2.33-2,3.48s-1.32,2.32-2,3.52a4.2,4.2,0,0,1-1.41,1.58,3.32,3.32,0,0,1-2.07.46,3.47,3.47,0,0,1-2.52-1.32,24.74,24.74,0,0,1-1.42-2A24.42,24.42,0,0,1,14,21c-.38-.83-.8-1.64-1.26-2.44s-.93-1.65-1.42-2.56a4.83,4.83,0,0,0-.12.5,1,1,0,0,0,0,.34l.06,2.56c0,.85,0,1.71.06,2.56.06,1.17.11,2.33.15,3.46s.07,2.29.1,3.46a3.32,3.32,0,0,1-.67,2.28,3.54,3.54,0,0,1-2,1.2A3.2,3.2,0,0,1,6.32,32a2.86,2.86,0,0,1-1.38-2.14A14.06,14.06,0,0,1,4.82,28c0-.62,0-1.25-.05-1.88,0-1.66-.11-3.3-.16-4.95s-.11-3.28-.17-4.93a19.72,19.72,0,0,1,.32-4.5A11,11,0,0,1,6.18,8,4.3,4.3,0,0,1,8.61,6.07a4.11,4.11,0,0,1,3.08.36,6.22,6.22,0,0,1,2.64,2.32c.55.74,1.06,1.5,1.55,2.26l1.46,2.29c.35.56.68,1.14,1,1.72S19,16.21,19.33,16.82Z"/><path class="cls-2" d="M55.24,18.91a23.35,23.35,0,0,1-.14,4.2,13,13,0,0,1-1.19,4,8.14,8.14,0,0,1-2.38,3.07,8,8,0,0,1-3.09,1.46,7.78,7.78,0,0,1-3.36,0,9.33,9.33,0,0,1-3.18-1.34,9.9,9.9,0,0,1-2.56-2.45,8.86,8.86,0,0,1-1.5-3.46,25.43,25.43,0,0,1-.55-4.64,35,35,0,0,1,.17-4.68,3.44,3.44,0,0,1,1.24-2.34A3.63,3.63,0,0,1,41.24,12a3.08,3.08,0,0,1,2,.84,2.93,2.93,0,0,1,.92,1.84,3.64,3.64,0,0,1,.06.8c0,.27,0,.54,0,.8,0,1,.06,2,.08,2.92s.07,1.92.13,2.88a4.17,4.17,0,0,0,.59,2.3,1.58,1.58,0,0,0,1.24.8,1.79,1.79,0,0,0,1.34-.68,4.21,4.21,0,0,0,.89-2.14,14.26,14.26,0,0,0,.11-3.26,26.64,26.64,0,0,1,0-3.22,3,3,0,0,1,.46-1.5,3.73,3.73,0,0,1,1-1.08,3.43,3.43,0,0,1,1.39-.54,3.66,3.66,0,0,1,1.57.11,3,3,0,0,1,2.27,3c0,.54,0,1.06,0,1.56S55.24,18.38,55.24,18.91Z"/><path class="cls-2" d="M66.72,16.38c.49.3,1,.57,1.44.82s.94.53,1.4.82a16,16,0,0,1,3.21,2.64,8.32,8.32,0,0,1,2,3.64,6.52,6.52,0,0,1,.06,3.28A6.88,6.88,0,0,1,71,32.3a6.59,6.59,0,0,1-3.24.64,10.56,10.56,0,0,1-4.28-1,22.62,22.62,0,0,1-3.6-2.14,3.26,3.26,0,0,1-1.4-1.68,2.73,2.73,0,0,1,.1-2,3.37,3.37,0,0,1,.65-.94,3.87,3.87,0,0,1,.91-.7,3.48,3.48,0,0,1,1.08-.38,2.87,2.87,0,0,1,1.13,0,5.42,5.42,0,0,1,1.1.42l1.1.54c.4.21.81.43,1.21.67a10.65,10.65,0,0,0,1.26.64,1.16,1.16,0,0,0,.67.22.49.49,0,0,0,.39-.2.66.66,0,0,0,.06-.5,1.83,1.83,0,0,0-.27-.64,5.84,5.84,0,0,0-2.15-2l-1.5-.87-1.5-.88a7.79,7.79,0,0,1-2.6-2.28,5.62,5.62,0,0,1-1.26-3.66,6.39,6.39,0,0,1,1.33-3.74,8.37,8.37,0,0,1,2.25-2,9.16,9.16,0,0,1,2.82-1.17,10,10,0,0,1,3-.2,8,8,0,0,1,2.88.82,6.43,6.43,0,0,1,2.08,1.56A3,3,0,0,1,74.08,13a3.18,3.18,0,0,1-.83,2.1,3.26,3.26,0,0,1-2.11,1.08,3.38,3.38,0,0,1-2.35-.52,1.88,1.88,0,0,1-.23-.16l-.22-.16a1.83,1.83,0,0,0-1-.46,1.78,1.78,0,0,0-1,.12.58.58,0,0,0-.36.54C66,15.78,66.23,16.06,66.72,16.38Z"/><path class="cls-2" d="M84.54,23.41c0,.75,0,1.49,0,2.24s0,1.51,0,2.28a3.44,3.44,0,0,1-.75,2.16,3.3,3.3,0,0,1-2,1.08,3.34,3.34,0,0,1-2.45-.48,3.05,3.05,0,0,1-1.44-2,7,7,0,0,1-.13-.8c0-.26,0-.54,0-.84V18.81a1.85,1.85,0,0,1,.08-.56,3.42,3.42,0,0,1,1.21-2,3.57,3.57,0,0,1,4.45.16,3.22,3.22,0,0,1,1,2.18,6.2,6.2,0,0,1,.06,1.22c0,.41,0,.83,0,1.26a8.89,8.89,0,0,1,0,1.16C84.54,22.61,84.54,23,84.54,23.41Zm-3-9a3.44,3.44,0,0,1-2.4-.88,2.93,2.93,0,0,1-1-2.2,2.9,2.9,0,0,1,1-2.2,3.35,3.35,0,0,1,2.39-.92,3.58,3.58,0,0,1,1.28.24,3.42,3.42,0,0,1,1.09.66,3.28,3.28,0,0,1,.76,1,2.51,2.51,0,0,1,.28,1.16,2.9,2.9,0,0,1-1,2.22A3.57,3.57,0,0,1,81.53,14.41Z"/><path class="cls-2" d="M94.92,16.64c.73-.48,1.42-.94,2.06-1.38s1.3-.88,2-1.3A10.4,10.4,0,0,1,101,12.83a2.66,2.66,0,0,1,1.44-.14,3.86,3.86,0,0,1,1.36.58,3.16,3.16,0,0,1,1,1,2.87,2.87,0,0,1,.45,1.24,2.74,2.74,0,0,1-.16,1.32,2.91,2.91,0,0,1-.81,1.18c-.38.32-.76.63-1.16.92l-1.15.88-.43.34a5.5,5.5,0,0,1-.54.38c.62.4,1.21.8,1.78,1.18s1.15.77,1.75,1.14a2.39,2.39,0,0,0,.51.34,2.29,2.29,0,0,1,.46.34,2.75,2.75,0,0,1,1.06,3.16,2.86,2.86,0,0,1-1,1.5,3.14,3.14,0,0,1-1.71.7,4.78,4.78,0,0,1-3-.67c-.59-.38-1.18-.76-1.77-1.16s-1.18-.79-1.8-1.16a11.31,11.31,0,0,0-1-.62c-.33-.2-.72-.42-1.15-.66.05.61.09,1.18.12,1.7s0,1,.08,1.54a3.22,3.22,0,0,1-.64,2.28,3.5,3.5,0,0,1-2.11,1.2,3.35,3.35,0,0,1-1.34,0,3.44,3.44,0,0,1-1.2-.5,3.07,3.07,0,0,1-.91-.92,3.15,3.15,0,0,1-.49-1.23,7.4,7.4,0,0,1-.16-1.15c0-.38,0-.76,0-1.13q-.2-4.73-.39-9.38t-.39-9.38A3.3,3.3,0,0,1,88,6.13,3.79,3.79,0,0,1,88.62,5a3,3,0,0,1,.91-.68,4.07,4.07,0,0,1,1-.32A3.56,3.56,0,0,1,93,4.56a3.34,3.34,0,0,1,1.42,2.12,13.93,13.93,0,0,1,.1,1.44c0,.48,0,1,.07,1.48.05.93.09,1.89.1,2.86s0,1.93.06,2.86c0,.19,0,.37,0,.56S94.86,16.32,94.92,16.64Z"/><path class="cls-4" d="M19.33,14.82c.68-1.12,1.32-2.2,1.93-3.24S22.48,9.51,23.1,8.5c.21-.37.44-.74.67-1.1a7,7,0,0,1,.79-1,8,8,0,0,1,2-1.68,4.23,4.23,0,0,1,3.12-.39,4.65,4.65,0,0,1,2.6,1.82,6.42,6.42,0,0,1,1,2,14.56,14.56,0,0,1,.47,2.4c.1.83.15,1.64.17,2.44s0,1.51,0,2.12q0,3.12-.12,6.18t-.16,6.18a2.72,2.72,0,0,0,0,.42,1.87,1.87,0,0,1,0,.42,3.24,3.24,0,0,1-1.13,2.06,3.42,3.42,0,0,1-2.27.78,3.25,3.25,0,0,1-2.13-.81,3.35,3.35,0,0,1-1.08-2,1.91,1.91,0,0,1,0-.64c.05-1.6.1-3.18.16-4.74s.1-3.14.16-4.74c0-.54,0-1.07,0-1.6A10,10,0,0,0,27,14.94l-.24.3a1.25,1.25,0,0,0-.21.3c-.64,1.17-1.3,2.33-2,3.48s-1.32,2.32-2,3.52a4.2,4.2,0,0,1-1.41,1.58,3.32,3.32,0,0,1-2.07.46,3.47,3.47,0,0,1-2.52-1.32,24.74,24.74,0,0,1-1.42-2A24.42,24.42,0,0,1,14,19c-.38-.83-.8-1.64-1.26-2.44s-.93-1.65-1.42-2.56a4.83,4.83,0,0,0-.12.5,1,1,0,0,0,0,.34l.06,2.56c0,.85,0,1.71.06,2.56.06,1.17.11,2.33.15,3.46s.07,2.29.1,3.46a3.32,3.32,0,0,1-.67,2.28,3.54,3.54,0,0,1-2,1.2A3.2,3.2,0,0,1,6.32,30a2.86,2.86,0,0,1-1.38-2.14A14.06,14.06,0,0,1,4.82,26c0-.62,0-1.25-.05-1.88,0-1.66-.11-3.3-.16-4.95s-.11-3.28-.17-4.93a19.72,19.72,0,0,1,.32-4.5A11,11,0,0,1,6.18,6,4.3,4.3,0,0,1,8.61,4.07a4.11,4.11,0,0,1,3.08.36,6.22,6.22,0,0,1,2.64,2.32c.55.74,1.06,1.5,1.55,2.26l1.46,2.29c.35.56.68,1.14,1,1.72S19,14.21,19.33,14.82Z"/><path class="cls-4" d="M55.24,16.91a23.35,23.35,0,0,1-.14,4.2,13,13,0,0,1-1.19,4,8.14,8.14,0,0,1-2.38,3.07,8,8,0,0,1-3.09,1.46,7.78,7.78,0,0,1-3.36,0,9.33,9.33,0,0,1-3.18-1.34,9.9,9.9,0,0,1-2.56-2.45,8.86,8.86,0,0,1-1.5-3.46,25.43,25.43,0,0,1-.55-4.64,35,35,0,0,1,.17-4.68,3.44,3.44,0,0,1,1.24-2.34A3.63,3.63,0,0,1,41.24,10a3.08,3.08,0,0,1,2,.84,2.93,2.93,0,0,1,.92,1.84,3.64,3.64,0,0,1,.06.8c0,.27,0,.54,0,.8,0,1,.06,2,.08,2.92s.07,1.92.13,2.88a4.17,4.17,0,0,0,.59,2.3,1.58,1.58,0,0,0,1.24.8,1.79,1.79,0,0,0,1.34-.68,4.21,4.21,0,0,0,.89-2.14,14.26,14.26,0,0,0,.11-3.26,26.64,26.64,0,0,1,0-3.22,3,3,0,0,1,.46-1.5,3.73,3.73,0,0,1,1-1.08,3.43,3.43,0,0,1,1.39-.54,3.66,3.66,0,0,1,1.57.11,3,3,0,0,1,2.27,3c0,.54,0,1.06,0,1.56S55.24,16.38,55.24,16.91Z"/><path class="cls-4" d="M66.72,14.38c.49.3,1,.57,1.44.82s.94.53,1.4.82a16,16,0,0,1,3.21,2.64,8.32,8.32,0,0,1,2,3.64,6.52,6.52,0,0,1,.06,3.28A6.88,6.88,0,0,1,71,30.3a6.59,6.59,0,0,1-3.24.64,10.56,10.56,0,0,1-4.28-1,22.62,22.62,0,0,1-3.6-2.14,3.26,3.26,0,0,1-1.4-1.68,2.73,2.73,0,0,1,.1-2,3.37,3.37,0,0,1,.65-.94,3.87,3.87,0,0,1,.91-.7,3.48,3.48,0,0,1,1.08-.38,2.87,2.87,0,0,1,1.13,0,5.42,5.42,0,0,1,1.1.42l1.1.54c.4.21.81.43,1.21.67a10.65,10.65,0,0,0,1.26.64,1.16,1.16,0,0,0,.67.22.49.49,0,0,0,.39-.2.66.66,0,0,0,.06-.5,1.83,1.83,0,0,0-.27-.64,5.84,5.84,0,0,0-2.15-2l-1.5-.87-1.5-.88a7.79,7.79,0,0,1-2.6-2.28,5.62,5.62,0,0,1-1.26-3.66,6.39,6.39,0,0,1,1.33-3.74,8.37,8.37,0,0,1,2.25-2,9.16,9.16,0,0,1,2.82-1.17,10,10,0,0,1,3-.2,8,8,0,0,1,2.88.82,6.43,6.43,0,0,1,2.08,1.56A3,3,0,0,1,74.08,11a3.18,3.18,0,0,1-.83,2.1,3.26,3.26,0,0,1-2.11,1.08,3.38,3.38,0,0,1-2.35-.52,1.88,1.88,0,0,1-.23-.16l-.22-.16a1.83,1.83,0,0,0-1-.46,1.78,1.78,0,0,0-1,.12.58.58,0,0,0-.36.54C66,13.78,66.23,14.06,66.72,14.38Z"/><path class="cls-4" d="M84.54,21.41c0,.75,0,1.49,0,2.24s0,1.51,0,2.28a3.44,3.44,0,0,1-.75,2.16,3.3,3.3,0,0,1-2,1.08,3.34,3.34,0,0,1-2.45-.48,3.05,3.05,0,0,1-1.44-2,7,7,0,0,1-.13-.8c0-.26,0-.54,0-.84V16.81a1.85,1.85,0,0,1,.08-.56,3.42,3.42,0,0,1,1.21-2,3.57,3.57,0,0,1,4.45.16,3.22,3.22,0,0,1,1,2.18,6.2,6.2,0,0,1,.06,1.22c0,.41,0,.83,0,1.26a8.89,8.89,0,0,1,0,1.16C84.54,20.61,84.54,21,84.54,21.41Zm-3-9a3.44,3.44,0,0,1-2.4-.88,2.93,2.93,0,0,1-1-2.2,2.9,2.9,0,0,1,1-2.2,3.35,3.35,0,0,1,2.39-.92,3.58,3.58,0,0,1,1.28.24,3.42,3.42,0,0,1,1.09.66,3.28,3.28,0,0,1,.76,1,2.51,2.51,0,0,1,.28,1.16,2.9,2.9,0,0,1-1,2.22A3.57,3.57,0,0,1,81.53,12.41Z"/><path class="cls-4" d="M94.92,14.64c.73-.48,1.42-.94,2.06-1.38s1.3-.88,2-1.3A10.4,10.4,0,0,1,101,10.83a2.66,2.66,0,0,1,1.44-.14,3.86,3.86,0,0,1,1.36.58,3.16,3.16,0,0,1,1,1,2.87,2.87,0,0,1,.45,1.24,2.74,2.74,0,0,1-.16,1.32,2.91,2.91,0,0,1-.81,1.18c-.38.32-.76.63-1.16.92l-1.15.88-.43.34a5.5,5.5,0,0,1-.54.38c.62.4,1.21.8,1.78,1.18s1.15.77,1.75,1.14a2.39,2.39,0,0,0,.51.34,2.29,2.29,0,0,1,.46.34,2.75,2.75,0,0,1,1.06,3.16,2.86,2.86,0,0,1-1,1.5,3.14,3.14,0,0,1-1.71.7,4.78,4.78,0,0,1-3-.67c-.59-.38-1.18-.76-1.77-1.16s-1.18-.79-1.8-1.16a11.31,11.31,0,0,0-1-.62c-.33-.2-.72-.42-1.15-.66.05.61.09,1.18.12,1.7s0,1,.08,1.54a3.22,3.22,0,0,1-.64,2.28,3.5,3.5,0,0,1-2.11,1.2,3.35,3.35,0,0,1-1.34,0,3.44,3.44,0,0,1-1.2-.5,3.07,3.07,0,0,1-.91-.92,3.15,3.15,0,0,1-.49-1.23,7.4,7.4,0,0,1-.16-1.15c0-.38,0-.76,0-1.13q-.2-4.73-.39-9.38t-.39-9.38A3.3,3.3,0,0,1,88,4.13,3.79,3.79,0,0,1,88.62,3a3,3,0,0,1,.91-.68,4.07,4.07,0,0,1,1-.32A3.56,3.56,0,0,1,93,2.56a3.34,3.34,0,0,1,1.42,2.12,13.93,13.93,0,0,1,.1,1.44c0,.48,0,1,.07,1.48.05.93.09,1.89.1,2.86s0,1.93.06,2.86c0,.19,0,.37,0,.56S94.86,14.32,94.92,14.64Z"/><g class="cls-1"><path class="cls-5" d="M19.33,14.82c.68-1.12,1.32-2.2,1.93-3.24S22.48,9.51,23.1,8.5c.21-.37.44-.74.67-1.1a7,7,0,0,1,.79-1,8,8,0,0,1,2-1.68,4.23,4.23,0,0,1,3.12-.39,4.65,4.65,0,0,1,2.6,1.82,6.42,6.42,0,0,1,1,2,14.56,14.56,0,0,1,.47,2.4c.1.83.15,1.64.17,2.44s0,1.51,0,2.12q0,3.12-.12,6.18t-.16,6.18a2.72,2.72,0,0,0,0,.42,1.87,1.87,0,0,1,0,.42,3.24,3.24,0,0,1-1.13,2.06,3.42,3.42,0,0,1-2.27.78,3.25,3.25,0,0,1-2.13-.81,3.35,3.35,0,0,1-1.08-2,1.91,1.91,0,0,1,0-.64c.05-1.6.1-3.18.16-4.74s.1-3.14.16-4.74c0-.54,0-1.07,0-1.6A10,10,0,0,0,27,14.94l-.24.3a1.25,1.25,0,0,0-.21.3c-.64,1.17-1.3,2.33-2,3.48s-1.32,2.32-2,3.52a4.2,4.2,0,0,1-1.41,1.58,3.32,3.32,0,0,1-2.07.46,3.47,3.47,0,0,1-2.52-1.32,24.74,24.74,0,0,1-1.42-2A24.42,24.42,0,0,1,14,19c-.38-.83-.8-1.64-1.26-2.44s-.93-1.65-1.42-2.56a4.83,4.83,0,0,0-.12.5,1,1,0,0,0,0,.34l.06,2.56c0,.85,0,1.71.06,2.56.06,1.17.11,2.33.15,3.46s.07,2.29.1,3.46a3.32,3.32,0,0,1-.67,2.28,3.54,3.54,0,0,1-2,1.2A3.2,3.2,0,0,1,6.32,30a2.86,2.86,0,0,1-1.38-2.14A14.06,14.06,0,0,1,4.82,26c0-.62,0-1.25-.05-1.88,0-1.66-.11-3.3-.16-4.95s-.11-3.28-.17-4.93a19.72,19.72,0,0,1,.32-4.5A11,11,0,0,1,6.18,6,4.3,4.3,0,0,1,8.61,4.07a4.11,4.11,0,0,1,3.08.36,6.22,6.22,0,0,1,2.64,2.32c.55.74,1.06,1.5,1.55,2.26l1.46,2.29c.35.56.68,1.14,1,1.72S19,14.21,19.33,14.82Z"/><path class="cls-5" d="M55.24,16.91a23.35,23.35,0,0,1-.14,4.2,13,13,0,0,1-1.19,4,8.14,8.14,0,0,1-2.38,3.07,8,8,0,0,1-3.09,1.46,7.78,7.78,0,0,1-3.36,0,9.33,9.33,0,0,1-3.18-1.34,9.9,9.9,0,0,1-2.56-2.45,8.86,8.86,0,0,1-1.5-3.46,25.43,25.43,0,0,1-.55-4.64,35,35,0,0,1,.17-4.68,3.44,3.44,0,0,1,1.24-2.34A3.63,3.63,0,0,1,41.24,10a3.08,3.08,0,0,1,2,.84,2.93,2.93,0,0,1,.92,1.84,3.64,3.64,0,0,1,.06.8c0,.27,0,.54,0,.8,0,1,.06,2,.08,2.92s.07,1.92.13,2.88a4.17,4.17,0,0,0,.59,2.3,1.58,1.58,0,0,0,1.24.8,1.79,1.79,0,0,0,1.34-.68,4.21,4.21,0,0,0,.89-2.14,14.26,14.26,0,0,0,.11-3.26,26.64,26.64,0,0,1,0-3.22,3,3,0,0,1,.46-1.5,3.73,3.73,0,0,1,1-1.08,3.43,3.43,0,0,1,1.39-.54,3.66,3.66,0,0,1,1.57.11,3,3,0,0,1,2.27,3c0,.54,0,1.06,0,1.56S55.24,16.38,55.24,16.91Z"/><path class="cls-5" d="M66.72,14.38c.49.3,1,.57,1.44.82s.94.53,1.4.82a16,16,0,0,1,3.21,2.64,8.32,8.32,0,0,1,2,3.64,6.52,6.52,0,0,1,.06,3.28A6.88,6.88,0,0,1,71,30.3a6.59,6.59,0,0,1-3.24.64,10.56,10.56,0,0,1-4.28-1,22.62,22.62,0,0,1-3.6-2.14,3.26,3.26,0,0,1-1.4-1.68,2.73,2.73,0,0,1,.1-2,3.37,3.37,0,0,1,.65-.94,3.87,3.87,0,0,1,.91-.7,3.48,3.48,0,0,1,1.08-.38,2.87,2.87,0,0,1,1.13,0,5.42,5.42,0,0,1,1.1.42l1.1.54c.4.21.81.43,1.21.67a10.65,10.65,0,0,0,1.26.64,1.16,1.16,0,0,0,.67.22.49.49,0,0,0,.39-.2.66.66,0,0,0,.06-.5,1.83,1.83,0,0,0-.27-.64,5.84,5.84,0,0,0-2.15-2l-1.5-.87-1.5-.88a7.79,7.79,0,0,1-2.6-2.28,5.62,5.62,0,0,1-1.26-3.66,6.39,6.39,0,0,1,1.33-3.74,8.37,8.37,0,0,1,2.25-2,9.16,9.16,0,0,1,2.82-1.17,10,10,0,0,1,3-.2,8,8,0,0,1,2.88.82,6.43,6.43,0,0,1,2.08,1.56A3,3,0,0,1,74.08,11a3.18,3.18,0,0,1-.83,2.1,3.26,3.26,0,0,1-2.11,1.08,3.38,3.38,0,0,1-2.35-.52,1.88,1.88,0,0,1-.23-.16l-.22-.16a1.83,1.83,0,0,0-1-.46,1.78,1.78,0,0,0-1,.12.58.58,0,0,0-.36.54C66,13.78,66.23,14.06,66.72,14.38Z"/><path class="cls-5" d="M84.54,21.41c0,.75,0,1.49,0,2.24s0,1.51,0,2.28a3.44,3.44,0,0,1-.75,2.16,3.3,3.3,0,0,1-2,1.08,3.34,3.34,0,0,1-2.45-.48,3.05,3.05,0,0,1-1.44-2,7,7,0,0,1-.13-.8c0-.26,0-.54,0-.84V16.81a1.85,1.85,0,0,1,.08-.56,3.42,3.42,0,0,1,1.21-2,3.57,3.57,0,0,1,4.45.16,3.22,3.22,0,0,1,1,2.18,6.2,6.2,0,0,1,.06,1.22c0,.41,0,.83,0,1.26a8.89,8.89,0,0,1,0,1.16C84.54,20.61,84.54,21,84.54,21.41Zm-3-9a3.44,3.44,0,0,1-2.4-.88,2.93,2.93,0,0,1-1-2.2,2.9,2.9,0,0,1,1-2.2,3.35,3.35,0,0,1,2.39-.92,3.58,3.58,0,0,1,1.28.24,3.42,3.42,0,0,1,1.09.66,3.28,3.28,0,0,1,.76,1,2.51,2.51,0,0,1,.28,1.16,2.9,2.9,0,0,1-1,2.22A3.57,3.57,0,0,1,81.53,12.41Z"/><path class="cls-5" d="M94.92,14.64c.73-.48,1.42-.94,2.06-1.38s1.3-.88,2-1.3A10.4,10.4,0,0,1,101,10.83a2.66,2.66,0,0,1,1.44-.14,3.86,3.86,0,0,1,1.36.58,3.16,3.16,0,0,1,1,1,2.87,2.87,0,0,1,.45,1.24,2.74,2.74,0,0,1-.16,1.32,2.91,2.91,0,0,1-.81,1.18c-.38.32-.76.63-1.16.92l-1.15.88-.43.34a5.5,5.5,0,0,1-.54.38c.62.4,1.21.8,1.78,1.18s1.15.77,1.75,1.14a2.39,2.39,0,0,0,.51.34,2.29,2.29,0,0,1,.46.34,2.75,2.75,0,0,1,1.06,3.16,2.86,2.86,0,0,1-1,1.5,3.14,3.14,0,0,1-1.71.7,4.78,4.78,0,0,1-3-.67c-.59-.38-1.18-.76-1.77-1.16s-1.18-.79-1.8-1.16a11.31,11.31,0,0,0-1-.62c-.33-.2-.72-.42-1.15-.66.05.61.09,1.18.12,1.7s0,1,.08,1.54a3.22,3.22,0,0,1-.64,2.28,3.5,3.5,0,0,1-2.11,1.2,3.35,3.35,0,0,1-1.34,0,3.44,3.44,0,0,1-1.2-.5,3.07,3.07,0,0,1-.91-.92,3.15,3.15,0,0,1-.49-1.23,7.4,7.4,0,0,1-.16-1.15c0-.38,0-.76,0-1.13q-.2-4.73-.39-9.38t-.39-9.38A3.3,3.3,0,0,1,88,4.13,3.79,3.79,0,0,1,88.62,3a3,3,0,0,1,.91-.68,4.07,4.07,0,0,1,1-.32A3.56,3.56,0,0,1,93,2.56a3.34,3.34,0,0,1,1.42,2.12,13.93,13.93,0,0,1,.1,1.44c0,.48,0,1,.07,1.48.05.93.09,1.89.1,2.86s0,1.93.06,2.86c0,.19,0,.37,0,.56S94.86,14.32,94.92,14.64Z"/></g><g class="cls-1"><path class="cls-2" d="M12.33,100.2a3.9,3.9,0,0,1,.2-.42,2.67,2.67,0,0,0,.2-.42c.54-1,1.07-2.08,1.58-3.12s1-2.09,1.54-3.16c.33-.69.62-1.38.89-2.06s.56-1.37.85-2.06a4.26,4.26,0,0,1,.89-1.38,3.42,3.42,0,0,1,1.42-.86,3.26,3.26,0,0,1,3.41.75,2.74,2.74,0,0,1,.88,1.5A3.54,3.54,0,0,1,24,90.71c-.36.88-.72,1.77-1.1,2.66s-.77,1.77-1.17,2.62-.88,1.86-1.34,2.79-.92,1.84-1.38,2.78-.93,1.85-1.41,2.76-1,1.8-1.5,2.68c-.25.4-.51.79-.79,1.16a7.84,7.84,0,0,1-1,1,4.3,4.3,0,0,1-1.66,1,3.86,3.86,0,0,1-1.74.16,3.63,3.63,0,0,1-1.61-.66,4.08,4.08,0,0,1-1.23-1.45,30,30,0,0,1-1.26-2.78c-.38-1-.72-1.9-1-2.86-.65-2.14-1.28-4.26-1.87-6.38S2.77,92,2.18,89.81a3.24,3.24,0,0,1,.24-2.68,3.44,3.44,0,0,1,2.11-1.56A3.28,3.28,0,0,1,7,85.89a3.23,3.23,0,0,1,1.59,2c.35,1.18.67,2.35,1,3.52s.63,2.36,1,3.56q.36,1.32.75,2.64c.26.88.52,1.76.8,2.64A.55.55,0,0,0,12.33,100.2Z"/><path class="cls-2" d="M33.51,101.1c0,.75,0,1.5,0,2.24s0,1.51,0,2.28a3.37,3.37,0,0,1-.75,2.17,3.3,3.3,0,0,1-2,1.08,3.36,3.36,0,0,1-2.46-.48,3.08,3.08,0,0,1-1.44-2,5.52,5.52,0,0,1-.12-.8c0-.27,0-.55,0-.84V96.51a1.81,1.81,0,0,1,.08-.56,3.44,3.44,0,0,1,1.21-2,3.57,3.57,0,0,1,4.45.16,3.15,3.15,0,0,1,1,2.17,7.08,7.08,0,0,1,.07,1.22c0,.42,0,.84,0,1.26s0,.76,0,1.16S33.51,100.7,33.51,101.1Zm-3-9a3.44,3.44,0,0,1-2.4-.88,3,3,0,0,1-1-2.2,2.92,2.92,0,0,1,1-2.2,3.33,3.33,0,0,1,2.39-.92,3.58,3.58,0,0,1,1.28.24,3.76,3.76,0,0,1,1.1.65,3.41,3.41,0,0,1,.75,1,2.54,2.54,0,0,1,.28,1.16,2.9,2.9,0,0,1-1,2.22A3.53,3.53,0,0,1,30.5,92.11Z"/><path class="cls-2" d="M48.27,90.21V89c0-.93,0-1.86,0-2.8s0-1.86.08-2.8a3.36,3.36,0,0,1,.85-2.08,3.43,3.43,0,0,1,2.07-1,3.17,3.17,0,0,1,2.15.38,3,3,0,0,1,1.46,1.66,4.64,4.64,0,0,1,.25,1.56c0,1.52-.06,3-.1,4.48s-.06,3-.06,4.48q0,3.2,0,6.38c0,2.12.06,4.24.17,6.38a3.74,3.74,0,0,1-1,2.94,4.7,4.7,0,0,1-2.82,1.3,25.47,25.47,0,0,1-4.93.16,13.38,13.38,0,0,1-4.85-1.27,9.21,9.21,0,0,1-2.76-2A8.44,8.44,0,0,1,37.06,104a7.75,7.75,0,0,1-.53-3.14,8.8,8.8,0,0,1,.79-3.28,11.9,11.9,0,0,1,4-5,13.39,13.39,0,0,1,6.13-2.15,2.45,2.45,0,0,1,.52-.08A.76.76,0,0,0,48.27,90.21Zm-.16,6.68a3.7,3.7,0,0,0-2.29.38,4.07,4.07,0,0,0-1.5,1.44,4.28,4.28,0,0,0-.63,2,3.38,3.38,0,0,0,.35,1.86,2.58,2.58,0,0,0,1.44,1.21,4.35,4.35,0,0,0,2.64,0Z"/><path class="cls-2" d="M66.7,102.64a4.13,4.13,0,0,0,1.36.88,3.13,3.13,0,0,0,1.4.15,10.83,10.83,0,0,0,1.13-.12l1.14-.16a4,4,0,0,1,1.5.14,3.58,3.58,0,0,1,1.28.68,3.22,3.22,0,0,1,.85,1.14,2.73,2.73,0,0,1,.19,1.52,3,3,0,0,1-.81,1.68,4.08,4.08,0,0,1-1.63,1,7.59,7.59,0,0,1-1.13.24l-1.14.16a11.22,11.22,0,0,1-10.18-3.79,7.75,7.75,0,0,1-1.2-1.82,11.17,11.17,0,0,1-.76-2,15.33,15.33,0,0,1-.42-3.72,12.36,12.36,0,0,1,.58-3.64,8.68,8.68,0,0,1,1.4-2.74A10.06,10.06,0,0,1,62.47,90a10,10,0,0,1,2.78-1.4,9.63,9.63,0,0,1,3.1-.5,18.33,18.33,0,0,1,2.13.19,11.63,11.63,0,0,1,2,.52,7.14,7.14,0,0,1,3,2.1,6.66,6.66,0,0,1,1.45,3,6.48,6.48,0,0,1-.25,3.28,7.17,7.17,0,0,1-2,3,9.52,9.52,0,0,1-3,1.86,8.58,8.58,0,0,1-3.51.55ZM65.64,96.2l1.56.08q.75,0,1.44,0a1.54,1.54,0,0,0,.71-.19,4.78,4.78,0,0,0,.63-.38.63.63,0,0,0,.28-.56c0-.18-.17-.34-.45-.48a2.86,2.86,0,0,0-2.31-.13A3.44,3.44,0,0,0,65.64,96.2Z"/><path class="cls-2" d="M89.42,109.14a8.7,8.7,0,0,1-3.34-.5,9.34,9.34,0,0,1-3-1.7,9.54,9.54,0,0,1-2.19-2.68,8.43,8.43,0,0,1-1-3.43,10,10,0,0,1,.42-3.62A11,11,0,0,1,81.92,94a10.83,10.83,0,0,1,5.86-4,11.14,11.14,0,0,1,3.64-.36,9.81,9.81,0,0,1,3.44.83,8.44,8.44,0,0,1,2.83,2.08A8,8,0,0,1,99.43,96a10.4,10.4,0,0,1-.15,5.62,11.61,11.61,0,0,1-2.8,4.74A9.39,9.39,0,0,1,89.42,109.14Zm1.82-6.92a3.79,3.79,0,0,0,.89-1A4.78,4.78,0,0,0,92.7,100a5.11,5.11,0,0,0,.22-1.4,3.6,3.6,0,0,0-.18-1.33,2,2,0,0,0-.85-1.09,1.82,1.82,0,0,0-1.34-.3,4.23,4.23,0,0,0-1.64.54,4.67,4.67,0,0,0-1.22,1,4,4,0,0,0-.75,1.32,4.64,4.64,0,0,0-.24,1.48,2.45,2.45,0,0,0,.47,1.52,2.69,2.69,0,0,0,1.13.92,3,3,0,0,0,1.46.2A2.83,2.83,0,0,0,91.24,102.22Z"/><path class="cls-2" d="M12.33,102.2a3.9,3.9,0,0,1,.2-.42,2.67,2.67,0,0,0,.2-.42c.54-1,1.07-2.08,1.58-3.12s1-2.09,1.54-3.16c.33-.69.62-1.38.89-2.06s.56-1.37.85-2.06a4.26,4.26,0,0,1,.89-1.38,3.42,3.42,0,0,1,1.42-.86,3.26,3.26,0,0,1,3.41.75,2.74,2.74,0,0,1,.88,1.5A3.54,3.54,0,0,1,24,92.71c-.36.88-.72,1.77-1.1,2.66s-.77,1.77-1.17,2.62-.88,1.86-1.34,2.79-.92,1.84-1.38,2.78-.93,1.85-1.41,2.76-1,1.8-1.5,2.68c-.25.4-.51.79-.79,1.16a7.84,7.84,0,0,1-1,1,4.3,4.3,0,0,1-1.66,1,3.86,3.86,0,0,1-1.74.16,3.63,3.63,0,0,1-1.61-.66,4.08,4.08,0,0,1-1.23-1.45,30,30,0,0,1-1.26-2.78c-.38-1-.72-1.9-1-2.86-.65-2.14-1.28-4.26-1.87-6.38S2.77,94,2.18,91.81a3.24,3.24,0,0,1,.24-2.68,3.44,3.44,0,0,1,2.11-1.56A3.28,3.28,0,0,1,7,87.89a3.23,3.23,0,0,1,1.59,2c.35,1.18.67,2.35,1,3.52s.63,2.36,1,3.56q.36,1.32.75,2.64c.26.88.52,1.76.8,2.64A.55.55,0,0,0,12.33,102.2Z"/><path class="cls-2" d="M33.51,103.1c0,.75,0,1.5,0,2.24s0,1.51,0,2.28a3.37,3.37,0,0,1-.75,2.17,3.3,3.3,0,0,1-2,1.08,3.36,3.36,0,0,1-2.46-.48,3.08,3.08,0,0,1-1.44-2,5.52,5.52,0,0,1-.12-.8c0-.27,0-.55,0-.84V98.51a1.81,1.81,0,0,1,.08-.56,3.44,3.44,0,0,1,1.21-2,3.57,3.57,0,0,1,4.45.16,3.15,3.15,0,0,1,1,2.17,7.08,7.08,0,0,1,.07,1.22c0,.42,0,.84,0,1.26s0,.76,0,1.16S33.51,102.7,33.51,103.1Zm-3-9a3.44,3.44,0,0,1-2.4-.88,3,3,0,0,1-1-2.2,2.92,2.92,0,0,1,1-2.2,3.33,3.33,0,0,1,2.39-.92,3.58,3.58,0,0,1,1.28.24,3.76,3.76,0,0,1,1.1.65,3.41,3.41,0,0,1,.75,1,2.54,2.54,0,0,1,.28,1.16,2.9,2.9,0,0,1-1,2.22A3.53,3.53,0,0,1,30.5,94.11Z"/><path class="cls-2" d="M48.27,92.21V91c0-.93,0-1.86,0-2.8s0-1.86.08-2.8a3.36,3.36,0,0,1,.85-2.08,3.43,3.43,0,0,1,2.07-1,3.17,3.17,0,0,1,2.15.38,3,3,0,0,1,1.46,1.66,4.64,4.64,0,0,1,.25,1.56c0,1.52-.06,3-.1,4.48s-.06,3-.06,4.48q0,3.2,0,6.38c0,2.12.06,4.24.17,6.38a3.74,3.74,0,0,1-1,2.94,4.7,4.7,0,0,1-2.82,1.3,25.47,25.47,0,0,1-4.93.16,13.38,13.38,0,0,1-4.85-1.27,9.21,9.21,0,0,1-2.76-2A8.44,8.44,0,0,1,37.06,106a7.75,7.75,0,0,1-.53-3.14,8.8,8.8,0,0,1,.79-3.28,11.9,11.9,0,0,1,4-5,13.39,13.39,0,0,1,6.13-2.15,2.45,2.45,0,0,1,.52-.08A.76.76,0,0,0,48.27,92.21Zm-.16,6.68a3.7,3.7,0,0,0-2.29.38,4.07,4.07,0,0,0-1.5,1.44,4.28,4.28,0,0,0-.63,2,3.38,3.38,0,0,0,.35,1.86,2.58,2.58,0,0,0,1.44,1.21,4.35,4.35,0,0,0,2.64,0Z"/><path class="cls-2" d="M66.7,104.64a4.13,4.13,0,0,0,1.36.88,3.13,3.13,0,0,0,1.4.15,10.83,10.83,0,0,0,1.13-.12l1.14-.16a4,4,0,0,1,1.5.14,3.58,3.58,0,0,1,1.28.68,3.22,3.22,0,0,1,.85,1.14,2.73,2.73,0,0,1,.19,1.52,3,3,0,0,1-.81,1.68,4.08,4.08,0,0,1-1.63,1,7.59,7.59,0,0,1-1.13.24l-1.14.16a11.22,11.22,0,0,1-10.18-3.79,7.75,7.75,0,0,1-1.2-1.82,11.17,11.17,0,0,1-.76-2,15.33,15.33,0,0,1-.42-3.72,12.36,12.36,0,0,1,.58-3.64,8.68,8.68,0,0,1,1.4-2.74A10.06,10.06,0,0,1,62.47,92a10,10,0,0,1,2.78-1.4,9.63,9.63,0,0,1,3.1-.5,18.33,18.33,0,0,1,2.13.19,11.63,11.63,0,0,1,2,.52,7.14,7.14,0,0,1,3,2.1,6.66,6.66,0,0,1,1.45,3,6.48,6.48,0,0,1-.25,3.28,7.17,7.17,0,0,1-2,3,9.52,9.52,0,0,1-3,1.86,8.58,8.58,0,0,1-3.51.55ZM65.64,98.2l1.56.08q.75,0,1.44,0a1.54,1.54,0,0,0,.71-.19,4.78,4.78,0,0,0,.63-.38.63.63,0,0,0,.28-.56c0-.18-.17-.34-.45-.48a2.86,2.86,0,0,0-2.31-.13A3.44,3.44,0,0,0,65.64,98.2Z"/><path class="cls-2" d="M89.42,111.14a8.7,8.7,0,0,1-3.34-.5,9.34,9.34,0,0,1-3-1.7,9.54,9.54,0,0,1-2.19-2.68,8.43,8.43,0,0,1-1-3.43,10,10,0,0,1,.42-3.62A11,11,0,0,1,81.92,96a10.83,10.83,0,0,1,5.86-4,11.14,11.14,0,0,1,3.64-.36,9.81,9.81,0,0,1,3.44.83,8.44,8.44,0,0,1,2.83,2.08A8,8,0,0,1,99.43,98a10.4,10.4,0,0,1-.15,5.62,11.61,11.61,0,0,1-2.8,4.74A9.39,9.39,0,0,1,89.42,111.14Zm1.82-6.92a3.79,3.79,0,0,0,.89-1A4.78,4.78,0,0,0,92.7,102a5.11,5.11,0,0,0,.22-1.4,3.6,3.6,0,0,0-.18-1.33,2,2,0,0,0-.85-1.09,1.82,1.82,0,0,0-1.34-.3,4.23,4.23,0,0,0-1.64.54,4.67,4.67,0,0,0-1.22,1,4,4,0,0,0-.75,1.32,4.64,4.64,0,0,0-.24,1.48,2.45,2.45,0,0,0,.47,1.52,2.69,2.69,0,0,0,1.13.92,3,3,0,0,0,1.46.2A2.83,2.83,0,0,0,91.24,104.22Z"/><path class="cls-3" d="M12.33,100.2a3.9,3.9,0,0,1,.2-.42,2.67,2.67,0,0,0,.2-.42c.54-1,1.07-2.08,1.58-3.12s1-2.09,1.54-3.16c.33-.69.62-1.38.89-2.06s.56-1.37.85-2.06a4.26,4.26,0,0,1,.89-1.38,3.42,3.42,0,0,1,1.42-.86,3.26,3.26,0,0,1,3.41.75,2.74,2.74,0,0,1,.88,1.5A3.54,3.54,0,0,1,24,90.71c-.36.88-.72,1.77-1.1,2.66s-.77,1.77-1.17,2.62-.88,1.86-1.34,2.79-.92,1.84-1.38,2.78-.93,1.85-1.41,2.76-1,1.8-1.5,2.68c-.25.4-.51.79-.79,1.16a7.84,7.84,0,0,1-1,1,4.3,4.3,0,0,1-1.66,1,3.86,3.86,0,0,1-1.74.16,3.63,3.63,0,0,1-1.61-.66,4.08,4.08,0,0,1-1.23-1.45,30,30,0,0,1-1.26-2.78c-.38-1-.72-1.9-1-2.86-.65-2.14-1.28-4.26-1.87-6.38S2.77,92,2.18,89.81a3.24,3.24,0,0,1,.24-2.68,3.44,3.44,0,0,1,2.11-1.56A3.28,3.28,0,0,1,7,85.89a3.23,3.23,0,0,1,1.59,2c.35,1.18.67,2.35,1,3.52s.63,2.36,1,3.56q.36,1.32.75,2.64c.26.88.52,1.76.8,2.64A.55.55,0,0,0,12.33,100.2Z"/><path class="cls-3" d="M33.51,101.1c0,.75,0,1.5,0,2.24s0,1.51,0,2.28a3.37,3.37,0,0,1-.75,2.17,3.3,3.3,0,0,1-2,1.08,3.36,3.36,0,0,1-2.46-.48,3.08,3.08,0,0,1-1.44-2,5.52,5.52,0,0,1-.12-.8c0-.27,0-.55,0-.84V96.51a1.81,1.81,0,0,1,.08-.56,3.44,3.44,0,0,1,1.21-2,3.57,3.57,0,0,1,4.45.16,3.15,3.15,0,0,1,1,2.17,7.08,7.08,0,0,1,.07,1.22c0,.42,0,.84,0,1.26s0,.76,0,1.16S33.51,100.7,33.51,101.1Zm-3-9a3.44,3.44,0,0,1-2.4-.88,3,3,0,0,1-1-2.2,2.92,2.92,0,0,1,1-2.2,3.33,3.33,0,0,1,2.39-.92,3.58,3.58,0,0,1,1.28.24,3.76,3.76,0,0,1,1.1.65,3.41,3.41,0,0,1,.75,1,2.54,2.54,0,0,1,.28,1.16,2.9,2.9,0,0,1-1,2.22A3.53,3.53,0,0,1,30.5,92.11Z"/><path class="cls-3" d="M48.27,90.21V89c0-.93,0-1.86,0-2.8s0-1.86.08-2.8a3.36,3.36,0,0,1,.85-2.08,3.43,3.43,0,0,1,2.07-1,3.17,3.17,0,0,1,2.15.38,3,3,0,0,1,1.46,1.66,4.64,4.64,0,0,1,.25,1.56c0,1.52-.06,3-.1,4.48s-.06,3-.06,4.48q0,3.2,0,6.38c0,2.12.06,4.24.17,6.38a3.74,3.74,0,0,1-1,2.94,4.7,4.7,0,0,1-2.82,1.3,25.47,25.47,0,0,1-4.93.16,13.38,13.38,0,0,1-4.85-1.27,9.21,9.21,0,0,1-2.76-2A8.44,8.44,0,0,1,37.06,104a7.75,7.75,0,0,1-.53-3.14,8.8,8.8,0,0,1,.79-3.28,11.9,11.9,0,0,1,4-5,13.39,13.39,0,0,1,6.13-2.15,2.45,2.45,0,0,1,.52-.08A.76.76,0,0,0,48.27,90.21Zm-.16,6.68a3.7,3.7,0,0,0-2.29.38,4.07,4.07,0,0,0-1.5,1.44,4.28,4.28,0,0,0-.63,2,3.38,3.38,0,0,0,.35,1.86,2.58,2.58,0,0,0,1.44,1.21,4.35,4.35,0,0,0,2.64,0Z"/><path class="cls-3" d="M66.7,102.64a4.13,4.13,0,0,0,1.36.88,3.13,3.13,0,0,0,1.4.15,10.83,10.83,0,0,0,1.13-.12l1.14-.16a4,4,0,0,1,1.5.14,3.58,3.58,0,0,1,1.28.68,3.22,3.22,0,0,1,.85,1.14,2.73,2.73,0,0,1,.19,1.52,3,3,0,0,1-.81,1.68,4.08,4.08,0,0,1-1.63,1,7.59,7.59,0,0,1-1.13.24l-1.14.16a11.22,11.22,0,0,1-10.18-3.79,7.75,7.75,0,0,1-1.2-1.82,11.17,11.17,0,0,1-.76-2,15.33,15.33,0,0,1-.42-3.72,12.36,12.36,0,0,1,.58-3.64,8.68,8.68,0,0,1,1.4-2.74A10.06,10.06,0,0,1,62.47,90a10,10,0,0,1,2.78-1.4,9.63,9.63,0,0,1,3.1-.5,18.33,18.33,0,0,1,2.13.19,11.63,11.63,0,0,1,2,.52,7.14,7.14,0,0,1,3,2.1,6.66,6.66,0,0,1,1.45,3,6.48,6.48,0,0,1-.25,3.28,7.17,7.17,0,0,1-2,3,9.52,9.52,0,0,1-3,1.86,8.58,8.58,0,0,1-3.51.55ZM65.64,96.2l1.56.08q.75,0,1.44,0a1.54,1.54,0,0,0,.71-.19,4.78,4.78,0,0,0,.63-.38.63.63,0,0,0,.28-.56c0-.18-.17-.34-.45-.48a2.86,2.86,0,0,0-2.31-.13A3.44,3.44,0,0,0,65.64,96.2Z"/><path class="cls-3" d="M89.42,109.14a8.7,8.7,0,0,1-3.34-.5,9.34,9.34,0,0,1-3-1.7,9.54,9.54,0,0,1-2.19-2.68,8.43,8.43,0,0,1-1-3.43,10,10,0,0,1,.42-3.62A11,11,0,0,1,81.92,94a10.83,10.83,0,0,1,5.86-4,11.14,11.14,0,0,1,3.64-.36,9.81,9.81,0,0,1,3.44.83,8.44,8.44,0,0,1,2.83,2.08A8,8,0,0,1,99.43,96a10.4,10.4,0,0,1-.15,5.62,11.61,11.61,0,0,1-2.8,4.74A9.39,9.39,0,0,1,89.42,109.14Zm1.82-6.92a3.79,3.79,0,0,0,.89-1A4.78,4.78,0,0,0,92.7,100a5.11,5.11,0,0,0,.22-1.4,3.6,3.6,0,0,0-.18-1.33,2,2,0,0,0-.85-1.09,1.82,1.82,0,0,0-1.34-.3,4.23,4.23,0,0,0-1.64.54,4.67,4.67,0,0,0-1.22,1,4,4,0,0,0-.75,1.32,4.64,4.64,0,0,0-.24,1.48,2.45,2.45,0,0,0,.47,1.52,2.69,2.69,0,0,0,1.13.92,3,3,0,0,0,1.46.2A2.83,2.83,0,0,0,91.24,102.22Z"/><path class="cls-3" d="M12.33,100.2a3.9,3.9,0,0,1,.2-.42,2.67,2.67,0,0,0,.2-.42c.54-1,1.07-2.08,1.58-3.12s1-2.09,1.54-3.16c.33-.69.62-1.38.89-2.06s.56-1.37.85-2.06a4.26,4.26,0,0,1,.89-1.38,3.42,3.42,0,0,1,1.42-.86,3.26,3.26,0,0,1,3.41.75,2.74,2.74,0,0,1,.88,1.5A3.54,3.54,0,0,1,24,90.71c-.36.88-.72,1.77-1.1,2.66s-.77,1.77-1.17,2.62-.88,1.86-1.34,2.79-.92,1.84-1.38,2.78-.93,1.85-1.41,2.76-1,1.8-1.5,2.68c-.25.4-.51.79-.79,1.16a7.84,7.84,0,0,1-1,1,4.3,4.3,0,0,1-1.66,1,3.86,3.86,0,0,1-1.74.16,3.63,3.63,0,0,1-1.61-.66,4.08,4.08,0,0,1-1.23-1.45,30,30,0,0,1-1.26-2.78c-.38-1-.72-1.9-1-2.86-.65-2.14-1.28-4.26-1.87-6.38S2.77,92,2.18,89.81a3.24,3.24,0,0,1,.24-2.68,3.44,3.44,0,0,1,2.11-1.56A3.28,3.28,0,0,1,7,85.89a3.23,3.23,0,0,1,1.59,2c.35,1.18.67,2.35,1,3.52s.63,2.36,1,3.56q.36,1.32.75,2.64c.26.88.52,1.76.8,2.64A.55.55,0,0,0,12.33,100.2Z"/><path class="cls-3" d="M33.51,101.1c0,.75,0,1.5,0,2.24s0,1.51,0,2.28a3.37,3.37,0,0,1-.75,2.17,3.3,3.3,0,0,1-2,1.08,3.36,3.36,0,0,1-2.46-.48,3.08,3.08,0,0,1-1.44-2,5.52,5.52,0,0,1-.12-.8c0-.27,0-.55,0-.84V96.51a1.81,1.81,0,0,1,.08-.56,3.44,3.44,0,0,1,1.21-2,3.57,3.57,0,0,1,4.45.16,3.15,3.15,0,0,1,1,2.17,7.08,7.08,0,0,1,.07,1.22c0,.42,0,.84,0,1.26s0,.76,0,1.16S33.51,100.7,33.51,101.1Zm-3-9a3.44,3.44,0,0,1-2.4-.88,3,3,0,0,1-1-2.2,2.92,2.92,0,0,1,1-2.2,3.33,3.33,0,0,1,2.39-.92,3.58,3.58,0,0,1,1.28.24,3.76,3.76,0,0,1,1.1.65,3.41,3.41,0,0,1,.75,1,2.54,2.54,0,0,1,.28,1.16,2.9,2.9,0,0,1-1,2.22A3.53,3.53,0,0,1,30.5,92.11Z"/><path class="cls-3" d="M48.27,90.21V89c0-.93,0-1.86,0-2.8s0-1.86.08-2.8a3.36,3.36,0,0,1,.85-2.08,3.43,3.43,0,0,1,2.07-1,3.17,3.17,0,0,1,2.15.38,3,3,0,0,1,1.46,1.66,4.64,4.64,0,0,1,.25,1.56c0,1.52-.06,3-.1,4.48s-.06,3-.06,4.48q0,3.2,0,6.38c0,2.12.06,4.24.17,6.38a3.74,3.74,0,0,1-1,2.94,4.7,4.7,0,0,1-2.82,1.3,25.47,25.47,0,0,1-4.93.16,13.38,13.38,0,0,1-4.85-1.27,9.21,9.21,0,0,1-2.76-2A8.44,8.44,0,0,1,37.06,104a7.75,7.75,0,0,1-.53-3.14,8.8,8.8,0,0,1,.79-3.28,11.9,11.9,0,0,1,4-5,13.39,13.39,0,0,1,6.13-2.15,2.45,2.45,0,0,1,.52-.08A.76.76,0,0,0,48.27,90.21Zm-.16,6.68a3.7,3.7,0,0,0-2.29.38,4.07,4.07,0,0,0-1.5,1.44,4.28,4.28,0,0,0-.63,2,3.38,3.38,0,0,0,.35,1.86,2.58,2.58,0,0,0,1.44,1.21,4.35,4.35,0,0,0,2.64,0Z"/><path class="cls-3" d="M66.7,102.64a4.13,4.13,0,0,0,1.36.88,3.13,3.13,0,0,0,1.4.15,10.83,10.83,0,0,0,1.13-.12l1.14-.16a4,4,0,0,1,1.5.14,3.58,3.58,0,0,1,1.28.68,3.22,3.22,0,0,1,.85,1.14,2.73,2.73,0,0,1,.19,1.52,3,3,0,0,1-.81,1.68,4.08,4.08,0,0,1-1.63,1,7.59,7.59,0,0,1-1.13.24l-1.14.16a11.22,11.22,0,0,1-10.18-3.79,7.75,7.75,0,0,1-1.2-1.82,11.17,11.17,0,0,1-.76-2,15.33,15.33,0,0,1-.42-3.72,12.36,12.36,0,0,1,.58-3.64,8.68,8.68,0,0,1,1.4-2.74A10.06,10.06,0,0,1,62.47,90a10,10,0,0,1,2.78-1.4,9.63,9.63,0,0,1,3.1-.5,18.33,18.33,0,0,1,2.13.19,11.63,11.63,0,0,1,2,.52,7.14,7.14,0,0,1,3,2.1,6.66,6.66,0,0,1,1.45,3,6.48,6.48,0,0,1-.25,3.28,7.17,7.17,0,0,1-2,3,9.52,9.52,0,0,1-3,1.86,8.58,8.58,0,0,1-3.51.55ZM65.64,96.2l1.56.08q.75,0,1.44,0a1.54,1.54,0,0,0,.71-.19,4.78,4.78,0,0,0,.63-.38.63.63,0,0,0,.28-.56c0-.18-.17-.34-.45-.48a2.86,2.86,0,0,0-2.31-.13A3.44,3.44,0,0,0,65.64,96.2Z"/><path class="cls-3" d="M89.42,109.14a8.7,8.7,0,0,1-3.34-.5,9.34,9.34,0,0,1-3-1.7,9.54,9.54,0,0,1-2.19-2.68,8.43,8.43,0,0,1-1-3.43,10,10,0,0,1,.42-3.62A11,11,0,0,1,81.92,94a10.83,10.83,0,0,1,5.86-4,11.14,11.14,0,0,1,3.64-.36,9.81,9.81,0,0,1,3.44.83,8.44,8.44,0,0,1,2.83,2.08A8,8,0,0,1,99.43,96a10.4,10.4,0,0,1-.15,5.62,11.61,11.61,0,0,1-2.8,4.74A9.39,9.39,0,0,1,89.42,109.14Zm1.82-6.92a3.79,3.79,0,0,0,.89-1A4.78,4.78,0,0,0,92.7,100a5.11,5.11,0,0,0,.22-1.4,3.6,3.6,0,0,0-.18-1.33,2,2,0,0,0-.85-1.09,1.82,1.82,0,0,0-1.34-.3,4.23,4.23,0,0,0-1.64.54,4.67,4.67,0,0,0-1.22,1,4,4,0,0,0-.75,1.32,4.64,4.64,0,0,0-.24,1.48,2.45,2.45,0,0,0,.47,1.52,2.69,2.69,0,0,0,1.13.92,3,3,0,0,0,1.46.2A2.83,2.83,0,0,0,91.24,102.22Z"/></g><path class="cls-2" d="M12.33,97.2a3.9,3.9,0,0,1,.2-.42,2.67,2.67,0,0,0,.2-.42c.54-1,1.07-2.08,1.58-3.12s1-2.09,1.54-3.16c.33-.69.62-1.38.89-2.06s.56-1.37.85-2.06a4.26,4.26,0,0,1,.89-1.38,3.42,3.42,0,0,1,1.42-.86,3.26,3.26,0,0,1,3.41.75,2.74,2.74,0,0,1,.88,1.5A3.54,3.54,0,0,1,24,87.71c-.36.88-.72,1.77-1.1,2.66s-.77,1.77-1.17,2.62-.88,1.86-1.34,2.79-.92,1.84-1.38,2.78-.93,1.85-1.41,2.76-1,1.8-1.5,2.68c-.25.4-.51.79-.79,1.16a7.84,7.84,0,0,1-1,1,4.3,4.3,0,0,1-1.66,1,3.86,3.86,0,0,1-1.74.16,3.63,3.63,0,0,1-1.61-.66,4.08,4.08,0,0,1-1.23-1.45,30,30,0,0,1-1.26-2.78c-.38-1-.72-1.9-1-2.86C5.19,97.47,4.56,95.35,4,93.23S2.77,89,2.18,86.81a3.24,3.24,0,0,1,.24-2.68,3.44,3.44,0,0,1,2.11-1.56A3.28,3.28,0,0,1,7,82.89a3.23,3.23,0,0,1,1.59,2c.35,1.18.67,2.35,1,3.52s.63,2.36,1,3.56q.36,1.32.75,2.64c.26.88.52,1.76.8,2.64A.55.55,0,0,0,12.33,97.2Z"/><path class="cls-2" d="M33.51,98.1c0,.75,0,1.5,0,2.24s0,1.51,0,2.28a3.37,3.37,0,0,1-.75,2.17,3.3,3.3,0,0,1-2,1.08,3.36,3.36,0,0,1-2.46-.48,3.08,3.08,0,0,1-1.44-2,5.52,5.52,0,0,1-.12-.8c0-.27,0-.55,0-.84V93.51a1.81,1.81,0,0,1,.08-.56,3.44,3.44,0,0,1,1.21-2,3.57,3.57,0,0,1,4.45.16,3.15,3.15,0,0,1,1,2.17,7.08,7.08,0,0,1,.07,1.22c0,.42,0,.84,0,1.26s0,.76,0,1.16S33.51,97.7,33.51,98.1Zm-3-9a3.44,3.44,0,0,1-2.4-.88,3,3,0,0,1-1-2.2,2.92,2.92,0,0,1,1-2.2,3.33,3.33,0,0,1,2.39-.92,3.58,3.58,0,0,1,1.28.24,3.76,3.76,0,0,1,1.1.65,3.41,3.41,0,0,1,.75,1,2.54,2.54,0,0,1,.28,1.16,2.9,2.9,0,0,1-1,2.22A3.53,3.53,0,0,1,30.5,89.11Z"/><path class="cls-2" d="M48.27,87.21V86c0-.93,0-1.86,0-2.8s0-1.86.08-2.8a3.36,3.36,0,0,1,.85-2.08,3.43,3.43,0,0,1,2.07-1,3.17,3.17,0,0,1,2.15.38,3,3,0,0,1,1.46,1.66,4.64,4.64,0,0,1,.25,1.56c0,1.52-.06,3-.1,4.48s-.06,3-.06,4.48q0,3.2,0,6.38c0,2.12.06,4.24.17,6.38a3.74,3.74,0,0,1-1,2.94,4.7,4.7,0,0,1-2.82,1.3,25.47,25.47,0,0,1-4.93.16,13.38,13.38,0,0,1-4.85-1.27,9.21,9.21,0,0,1-2.76-2A8.44,8.44,0,0,1,37.06,101a7.75,7.75,0,0,1-.53-3.14,8.8,8.8,0,0,1,.79-3.28,11.9,11.9,0,0,1,4-5,13.39,13.39,0,0,1,6.13-2.15,2.45,2.45,0,0,1,.52-.08A.76.76,0,0,0,48.27,87.21Zm-.16,6.68a3.7,3.7,0,0,0-2.29.38,4.07,4.07,0,0,0-1.5,1.44,4.28,4.28,0,0,0-.63,2A3.38,3.38,0,0,0,44,99.52a2.58,2.58,0,0,0,1.44,1.21,4.35,4.35,0,0,0,2.64,0Z"/><path class="cls-2" d="M66.7,99.64a4.13,4.13,0,0,0,1.36.88,3.13,3.13,0,0,0,1.4.15,10.83,10.83,0,0,0,1.13-.12l1.14-.16a4,4,0,0,1,1.5.14,3.58,3.58,0,0,1,1.28.68,3.22,3.22,0,0,1,.85,1.14,2.73,2.73,0,0,1,.19,1.52,3,3,0,0,1-.81,1.68,4.08,4.08,0,0,1-1.63,1,7.59,7.59,0,0,1-1.13.24l-1.14.16a11.22,11.22,0,0,1-10.18-3.79,7.75,7.75,0,0,1-1.2-1.82,11.17,11.17,0,0,1-.76-2,15.33,15.33,0,0,1-.42-3.72,12.36,12.36,0,0,1,.58-3.64,8.68,8.68,0,0,1,1.4-2.74A10.06,10.06,0,0,1,62.47,87a10,10,0,0,1,2.78-1.4,9.63,9.63,0,0,1,3.1-.5,18.33,18.33,0,0,1,2.13.19,11.63,11.63,0,0,1,2,.52,7.14,7.14,0,0,1,3,2.1,6.66,6.66,0,0,1,1.45,3,6.48,6.48,0,0,1-.25,3.28,7.17,7.17,0,0,1-2,3,9.52,9.52,0,0,1-3,1.86,8.58,8.58,0,0,1-3.51.55ZM65.64,93.2l1.56.08q.75,0,1.44,0a1.54,1.54,0,0,0,.71-.19,4.78,4.78,0,0,0,.63-.38.63.63,0,0,0,.28-.56c0-.18-.17-.34-.45-.48a2.86,2.86,0,0,0-2.31-.13A3.44,3.44,0,0,0,65.64,93.2Z"/><path class="cls-2" d="M89.42,106.14a8.7,8.7,0,0,1-3.34-.5,9.34,9.34,0,0,1-3-1.7,9.54,9.54,0,0,1-2.19-2.68,8.43,8.43,0,0,1-1-3.43,10,10,0,0,1,.42-3.62A11,11,0,0,1,81.92,91a10.83,10.83,0,0,1,5.86-4,11.14,11.14,0,0,1,3.64-.36,9.81,9.81,0,0,1,3.44.83,8.44,8.44,0,0,1,2.83,2.08A8,8,0,0,1,99.43,93a10.4,10.4,0,0,1-.15,5.62,11.61,11.61,0,0,1-2.8,4.74A9.39,9.39,0,0,1,89.42,106.14Zm1.82-6.92a3.79,3.79,0,0,0,.89-1A4.78,4.78,0,0,0,92.7,97a5.11,5.11,0,0,0,.22-1.4,3.6,3.6,0,0,0-.18-1.33,2,2,0,0,0-.85-1.09,1.82,1.82,0,0,0-1.34-.3,4.23,4.23,0,0,0-1.64.54,4.67,4.67,0,0,0-1.22,1,4,4,0,0,0-.75,1.32,4.64,4.64,0,0,0-.24,1.48,2.45,2.45,0,0,0,.47,1.52,2.69,2.69,0,0,0,1.13.92,3,3,0,0,0,1.46.2A2.83,2.83,0,0,0,91.24,99.22Z"/><path class="cls-2" d="M12.33,99.2a3.9,3.9,0,0,1,.2-.42,2.67,2.67,0,0,0,.2-.42c.54-1,1.07-2.08,1.58-3.12s1-2.09,1.54-3.16c.33-.69.62-1.38.89-2.06s.56-1.37.85-2.06a4.26,4.26,0,0,1,.89-1.38,3.42,3.42,0,0,1,1.42-.86,3.26,3.26,0,0,1,3.41.75,2.74,2.74,0,0,1,.88,1.5A3.54,3.54,0,0,1,24,89.71c-.36.88-.72,1.77-1.1,2.66s-.77,1.77-1.17,2.62-.88,1.86-1.34,2.79-.92,1.84-1.38,2.78-.93,1.85-1.41,2.76-1,1.8-1.5,2.68c-.25.4-.51.79-.79,1.16a7.84,7.84,0,0,1-1,1,4.3,4.3,0,0,1-1.66,1,3.86,3.86,0,0,1-1.74.16,3.63,3.63,0,0,1-1.61-.66,4.08,4.08,0,0,1-1.23-1.45,30,30,0,0,1-1.26-2.78c-.38-1-.72-1.9-1-2.86C5.19,99.47,4.56,97.35,4,95.23S2.77,91,2.18,88.81a3.24,3.24,0,0,1,.24-2.68,3.44,3.44,0,0,1,2.11-1.56A3.28,3.28,0,0,1,7,84.89a3.23,3.23,0,0,1,1.59,2c.35,1.18.67,2.35,1,3.52s.63,2.36,1,3.56q.36,1.32.75,2.64c.26.88.52,1.76.8,2.64A.55.55,0,0,0,12.33,99.2Z"/><path class="cls-2" d="M33.51,100.1c0,.75,0,1.5,0,2.24s0,1.51,0,2.28a3.37,3.37,0,0,1-.75,2.17,3.3,3.3,0,0,1-2,1.08,3.36,3.36,0,0,1-2.46-.48,3.08,3.08,0,0,1-1.44-2,5.52,5.52,0,0,1-.12-.8c0-.27,0-.55,0-.84V95.51a1.81,1.81,0,0,1,.08-.56,3.44,3.44,0,0,1,1.21-2,3.57,3.57,0,0,1,4.45.16,3.15,3.15,0,0,1,1,2.17,7.08,7.08,0,0,1,.07,1.22c0,.42,0,.84,0,1.26s0,.76,0,1.16S33.51,99.7,33.51,100.1Zm-3-9a3.44,3.44,0,0,1-2.4-.88,3,3,0,0,1-1-2.2,2.92,2.92,0,0,1,1-2.2,3.33,3.33,0,0,1,2.39-.92,3.58,3.58,0,0,1,1.28.24,3.76,3.76,0,0,1,1.1.65,3.41,3.41,0,0,1,.75,1,2.54,2.54,0,0,1,.28,1.16,2.9,2.9,0,0,1-1,2.22A3.53,3.53,0,0,1,30.5,91.11Z"/><path class="cls-2" d="M48.27,89.21V88c0-.93,0-1.86,0-2.8s0-1.86.08-2.8a3.36,3.36,0,0,1,.85-2.08,3.43,3.43,0,0,1,2.07-1,3.17,3.17,0,0,1,2.15.38,3,3,0,0,1,1.46,1.66,4.64,4.64,0,0,1,.25,1.56c0,1.52-.06,3-.1,4.48s-.06,3-.06,4.48q0,3.2,0,6.38c0,2.12.06,4.24.17,6.38a3.74,3.74,0,0,1-1,2.94,4.7,4.7,0,0,1-2.82,1.3,25.47,25.47,0,0,1-4.93.16,13.38,13.38,0,0,1-4.85-1.27,9.21,9.21,0,0,1-2.76-2A8.44,8.44,0,0,1,37.06,103a7.75,7.75,0,0,1-.53-3.14,8.8,8.8,0,0,1,.79-3.28,11.9,11.9,0,0,1,4-5,13.39,13.39,0,0,1,6.13-2.15,2.45,2.45,0,0,1,.52-.08A.76.76,0,0,0,48.27,89.21Zm-.16,6.68a3.7,3.7,0,0,0-2.29.38,4.07,4.07,0,0,0-1.5,1.44,4.28,4.28,0,0,0-.63,2,3.38,3.38,0,0,0,.35,1.86,2.58,2.58,0,0,0,1.44,1.21,4.35,4.35,0,0,0,2.64,0Z"/><path class="cls-2" d="M66.7,101.64a4.13,4.13,0,0,0,1.36.88,3.13,3.13,0,0,0,1.4.15,10.83,10.83,0,0,0,1.13-.12l1.14-.16a4,4,0,0,1,1.5.14,3.58,3.58,0,0,1,1.28.68,3.22,3.22,0,0,1,.85,1.14,2.73,2.73,0,0,1,.19,1.52,3,3,0,0,1-.81,1.68,4.08,4.08,0,0,1-1.63,1,7.59,7.59,0,0,1-1.13.24l-1.14.16a11.22,11.22,0,0,1-10.18-3.79,7.75,7.75,0,0,1-1.2-1.82,11.17,11.17,0,0,1-.76-2,15.33,15.33,0,0,1-.42-3.72,12.36,12.36,0,0,1,.58-3.64,8.68,8.68,0,0,1,1.4-2.74A10.06,10.06,0,0,1,62.47,89a10,10,0,0,1,2.78-1.4,9.63,9.63,0,0,1,3.1-.5,18.33,18.33,0,0,1,2.13.19,11.63,11.63,0,0,1,2,.52,7.14,7.14,0,0,1,3,2.1,6.66,6.66,0,0,1,1.45,3,6.48,6.48,0,0,1-.25,3.28,7.17,7.17,0,0,1-2,3,9.52,9.52,0,0,1-3,1.86,8.58,8.58,0,0,1-3.51.55ZM65.64,95.2l1.56.08q.75,0,1.44,0a1.54,1.54,0,0,0,.71-.19,4.78,4.78,0,0,0,.63-.38.63.63,0,0,0,.28-.56c0-.18-.17-.34-.45-.48a2.86,2.86,0,0,0-2.31-.13A3.44,3.44,0,0,0,65.64,95.2Z"/><path class="cls-2" d="M89.42,108.14a8.7,8.7,0,0,1-3.34-.5,9.34,9.34,0,0,1-3-1.7,9.54,9.54,0,0,1-2.19-2.68,8.43,8.43,0,0,1-1-3.43,10,10,0,0,1,.42-3.62A11,11,0,0,1,81.92,93a10.83,10.83,0,0,1,5.86-4,11.14,11.14,0,0,1,3.64-.36,9.81,9.81,0,0,1,3.44.83,8.44,8.44,0,0,1,2.83,2.08A8,8,0,0,1,99.43,95a10.4,10.4,0,0,1-.15,5.62,11.61,11.61,0,0,1-2.8,4.74A9.39,9.39,0,0,1,89.42,108.14Zm1.82-6.92a3.79,3.79,0,0,0,.89-1A4.78,4.78,0,0,0,92.7,99a5.11,5.11,0,0,0,.22-1.4,3.6,3.6,0,0,0-.18-1.33,2,2,0,0,0-.85-1.09,1.82,1.82,0,0,0-1.34-.3,4.23,4.23,0,0,0-1.64.54,4.67,4.67,0,0,0-1.22,1,4,4,0,0,0-.75,1.32,4.64,4.64,0,0,0-.24,1.48,2.45,2.45,0,0,0,.47,1.52,2.69,2.69,0,0,0,1.13.92,3,3,0,0,0,1.46.2A2.83,2.83,0,0,0,91.24,101.22Z"/><path class="cls-4" d="M12.33,97.2a3.9,3.9,0,0,1,.2-.42,2.67,2.67,0,0,0,.2-.42c.54-1,1.07-2.08,1.58-3.12s1-2.09,1.54-3.16c.33-.69.62-1.38.89-2.06s.56-1.37.85-2.06a4.26,4.26,0,0,1,.89-1.38,3.42,3.42,0,0,1,1.42-.86,3.26,3.26,0,0,1,3.41.75,2.74,2.74,0,0,1,.88,1.5A3.54,3.54,0,0,1,24,87.71c-.36.88-.72,1.77-1.1,2.66s-.77,1.77-1.17,2.62-.88,1.86-1.34,2.79-.92,1.84-1.38,2.78-.93,1.85-1.41,2.76-1,1.8-1.5,2.68c-.25.4-.51.79-.79,1.16a7.84,7.84,0,0,1-1,1,4.3,4.3,0,0,1-1.66,1,3.86,3.86,0,0,1-1.74.16,3.63,3.63,0,0,1-1.61-.66,4.08,4.08,0,0,1-1.23-1.45,30,30,0,0,1-1.26-2.78c-.38-1-.72-1.9-1-2.86C5.19,97.47,4.56,95.35,4,93.23S2.77,89,2.18,86.81a3.24,3.24,0,0,1,.24-2.68,3.44,3.44,0,0,1,2.11-1.56A3.28,3.28,0,0,1,7,82.89a3.23,3.23,0,0,1,1.59,2c.35,1.18.67,2.35,1,3.52s.63,2.36,1,3.56q.36,1.32.75,2.64c.26.88.52,1.76.8,2.64A.55.55,0,0,0,12.33,97.2Z"/><path class="cls-4" d="M33.51,98.1c0,.75,0,1.5,0,2.24s0,1.51,0,2.28a3.37,3.37,0,0,1-.75,2.17,3.3,3.3,0,0,1-2,1.08,3.36,3.36,0,0,1-2.46-.48,3.08,3.08,0,0,1-1.44-2,5.52,5.52,0,0,1-.12-.8c0-.27,0-.55,0-.84V93.51a1.81,1.81,0,0,1,.08-.56,3.44,3.44,0,0,1,1.21-2,3.57,3.57,0,0,1,4.45.16,3.15,3.15,0,0,1,1,2.17,7.08,7.08,0,0,1,.07,1.22c0,.42,0,.84,0,1.26s0,.76,0,1.16S33.51,97.7,33.51,98.1Zm-3-9a3.44,3.44,0,0,1-2.4-.88,3,3,0,0,1-1-2.2,2.92,2.92,0,0,1,1-2.2,3.33,3.33,0,0,1,2.39-.92,3.58,3.58,0,0,1,1.28.24,3.76,3.76,0,0,1,1.1.65,3.41,3.41,0,0,1,.75,1,2.54,2.54,0,0,1,.28,1.16,2.9,2.9,0,0,1-1,2.22A3.53,3.53,0,0,1,30.5,89.11Z"/><path class="cls-4" d="M48.27,87.21V86c0-.93,0-1.86,0-2.8s0-1.86.08-2.8a3.36,3.36,0,0,1,.85-2.08,3.43,3.43,0,0,1,2.07-1,3.17,3.17,0,0,1,2.15.38,3,3,0,0,1,1.46,1.66,4.64,4.64,0,0,1,.25,1.56c0,1.52-.06,3-.1,4.48s-.06,3-.06,4.48q0,3.2,0,6.38c0,2.12.06,4.24.17,6.38a3.74,3.74,0,0,1-1,2.94,4.7,4.7,0,0,1-2.82,1.3,25.47,25.47,0,0,1-4.93.16,13.38,13.38,0,0,1-4.85-1.27,9.21,9.21,0,0,1-2.76-2A8.44,8.44,0,0,1,37.06,101a7.75,7.75,0,0,1-.53-3.14,8.8,8.8,0,0,1,.79-3.28,11.9,11.9,0,0,1,4-5,13.39,13.39,0,0,1,6.13-2.15,2.45,2.45,0,0,1,.52-.08A.76.76,0,0,0,48.27,87.21Zm-.16,6.68a3.7,3.7,0,0,0-2.29.38,4.07,4.07,0,0,0-1.5,1.44,4.28,4.28,0,0,0-.63,2A3.38,3.38,0,0,0,44,99.52a2.58,2.58,0,0,0,1.44,1.21,4.35,4.35,0,0,0,2.64,0Z"/><path class="cls-4" d="M66.7,99.64a4.13,4.13,0,0,0,1.36.88,3.13,3.13,0,0,0,1.4.15,10.83,10.83,0,0,0,1.13-.12l1.14-.16a4,4,0,0,1,1.5.14,3.58,3.58,0,0,1,1.28.68,3.22,3.22,0,0,1,.85,1.14,2.73,2.73,0,0,1,.19,1.52,3,3,0,0,1-.81,1.68,4.08,4.08,0,0,1-1.63,1,7.59,7.59,0,0,1-1.13.24l-1.14.16a11.22,11.22,0,0,1-10.18-3.79,7.75,7.75,0,0,1-1.2-1.82,11.17,11.17,0,0,1-.76-2,15.33,15.33,0,0,1-.42-3.72,12.36,12.36,0,0,1,.58-3.64,8.68,8.68,0,0,1,1.4-2.74A10.06,10.06,0,0,1,62.47,87a10,10,0,0,1,2.78-1.4,9.63,9.63,0,0,1,3.1-.5,18.33,18.33,0,0,1,2.13.19,11.63,11.63,0,0,1,2,.52,7.14,7.14,0,0,1,3,2.1,6.66,6.66,0,0,1,1.45,3,6.48,6.48,0,0,1-.25,3.28,7.17,7.17,0,0,1-2,3,9.52,9.52,0,0,1-3,1.86,8.58,8.58,0,0,1-3.51.55ZM65.64,93.2l1.56.08q.75,0,1.44,0a1.54,1.54,0,0,0,.71-.19,4.78,4.78,0,0,0,.63-.38.63.63,0,0,0,.28-.56c0-.18-.17-.34-.45-.48a2.86,2.86,0,0,0-2.31-.13A3.44,3.44,0,0,0,65.64,93.2Z"/><path class="cls-4" d="M89.42,106.14a8.7,8.7,0,0,1-3.34-.5,9.34,9.34,0,0,1-3-1.7,9.54,9.54,0,0,1-2.19-2.68,8.43,8.43,0,0,1-1-3.43,10,10,0,0,1,.42-3.62A11,11,0,0,1,81.92,91a10.83,10.83,0,0,1,5.86-4,11.14,11.14,0,0,1,3.64-.36,9.81,9.81,0,0,1,3.44.83,8.44,8.44,0,0,1,2.83,2.08A8,8,0,0,1,99.43,93a10.4,10.4,0,0,1-.15,5.62,11.61,11.61,0,0,1-2.8,4.74A9.39,9.39,0,0,1,89.42,106.14Zm1.82-6.92a3.79,3.79,0,0,0,.89-1A4.78,4.78,0,0,0,92.7,97a5.11,5.11,0,0,0,.22-1.4,3.6,3.6,0,0,0-.18-1.33,2,2,0,0,0-.85-1.09,1.82,1.82,0,0,0-1.34-.3,4.23,4.23,0,0,0-1.64.54,4.67,4.67,0,0,0-1.22,1,4,4,0,0,0-.75,1.32,4.64,4.64,0,0,0-.24,1.48,2.45,2.45,0,0,0,.47,1.52,2.69,2.69,0,0,0,1.13.92,3,3,0,0,0,1.46.2A2.83,2.83,0,0,0,91.24,99.22Z"/><g class="cls-1"><path class="cls-6" d="M12.33,97.2a3.9,3.9,0,0,1,.2-.42,2.67,2.67,0,0,0,.2-.42c.54-1,1.07-2.08,1.58-3.12s1-2.09,1.54-3.16c.33-.69.62-1.38.89-2.06s.56-1.37.85-2.06a4.26,4.26,0,0,1,.89-1.38,3.42,3.42,0,0,1,1.42-.86,3.26,3.26,0,0,1,3.41.75,2.74,2.74,0,0,1,.88,1.5A3.54,3.54,0,0,1,24,87.71c-.36.88-.72,1.77-1.1,2.66s-.77,1.77-1.17,2.62-.88,1.86-1.34,2.79-.92,1.84-1.38,2.78-.93,1.85-1.41,2.76-1,1.8-1.5,2.68c-.25.4-.51.79-.79,1.16a7.84,7.84,0,0,1-1,1,4.3,4.3,0,0,1-1.66,1,3.86,3.86,0,0,1-1.74.16,3.63,3.63,0,0,1-1.61-.66,4.08,4.08,0,0,1-1.23-1.45,30,30,0,0,1-1.26-2.78c-.38-1-.72-1.9-1-2.86C5.19,97.47,4.56,95.35,4,93.23S2.77,89,2.18,86.81a3.24,3.24,0,0,1,.24-2.68,3.44,3.44,0,0,1,2.11-1.56A3.28,3.28,0,0,1,7,82.89a3.23,3.23,0,0,1,1.59,2c.35,1.18.67,2.35,1,3.52s.63,2.36,1,3.56q.36,1.32.75,2.64c.26.88.52,1.76.8,2.64A.55.55,0,0,0,12.33,97.2Z"/><path class="cls-6" d="M33.51,98.1c0,.75,0,1.5,0,2.24s0,1.51,0,2.28a3.37,3.37,0,0,1-.75,2.17,3.3,3.3,0,0,1-2,1.08,3.36,3.36,0,0,1-2.46-.48,3.08,3.08,0,0,1-1.44-2,5.52,5.52,0,0,1-.12-.8c0-.27,0-.55,0-.84V93.51a1.81,1.81,0,0,1,.08-.56,3.44,3.44,0,0,1,1.21-2,3.57,3.57,0,0,1,4.45.16,3.15,3.15,0,0,1,1,2.17,7.08,7.08,0,0,1,.07,1.22c0,.42,0,.84,0,1.26s0,.76,0,1.16S33.51,97.7,33.51,98.1Zm-3-9a3.44,3.44,0,0,1-2.4-.88,3,3,0,0,1-1-2.2,2.92,2.92,0,0,1,1-2.2,3.33,3.33,0,0,1,2.39-.92,3.58,3.58,0,0,1,1.28.24,3.76,3.76,0,0,1,1.1.65,3.41,3.41,0,0,1,.75,1,2.54,2.54,0,0,1,.28,1.16,2.9,2.9,0,0,1-1,2.22A3.53,3.53,0,0,1,30.5,89.11Z"/><path class="cls-6" d="M48.27,87.21V86c0-.93,0-1.86,0-2.8s0-1.86.08-2.8a3.36,3.36,0,0,1,.85-2.08,3.43,3.43,0,0,1,2.07-1,3.17,3.17,0,0,1,2.15.38,3,3,0,0,1,1.46,1.66,4.64,4.64,0,0,1,.25,1.56c0,1.52-.06,3-.1,4.48s-.06,3-.06,4.48q0,3.2,0,6.38c0,2.12.06,4.24.17,6.38a3.74,3.74,0,0,1-1,2.94,4.7,4.7,0,0,1-2.82,1.3,25.47,25.47,0,0,1-4.93.16,13.38,13.38,0,0,1-4.85-1.27,9.21,9.21,0,0,1-2.76-2A8.44,8.44,0,0,1,37.06,101a7.75,7.75,0,0,1-.53-3.14,8.8,8.8,0,0,1,.79-3.28,11.9,11.9,0,0,1,4-5,13.39,13.39,0,0,1,6.13-2.15,2.45,2.45,0,0,1,.52-.08A.76.76,0,0,0,48.27,87.21Zm-.16,6.68a3.7,3.7,0,0,0-2.29.38,4.07,4.07,0,0,0-1.5,1.44,4.28,4.28,0,0,0-.63,2A3.38,3.38,0,0,0,44,99.52a2.58,2.58,0,0,0,1.44,1.21,4.35,4.35,0,0,0,2.64,0Z"/><path class="cls-6" d="M66.7,99.64a4.13,4.13,0,0,0,1.36.88,3.13,3.13,0,0,0,1.4.15,10.83,10.83,0,0,0,1.13-.12l1.14-.16a4,4,0,0,1,1.5.14,3.58,3.58,0,0,1,1.28.68,3.22,3.22,0,0,1,.85,1.14,2.73,2.73,0,0,1,.19,1.52,3,3,0,0,1-.81,1.68,4.08,4.08,0,0,1-1.63,1,7.59,7.59,0,0,1-1.13.24l-1.14.16a11.22,11.22,0,0,1-10.18-3.79,7.75,7.75,0,0,1-1.2-1.82,11.17,11.17,0,0,1-.76-2,15.33,15.33,0,0,1-.42-3.72,12.36,12.36,0,0,1,.58-3.64,8.68,8.68,0,0,1,1.4-2.74A10.06,10.06,0,0,1,62.47,87a10,10,0,0,1,2.78-1.4,9.63,9.63,0,0,1,3.1-.5,18.33,18.33,0,0,1,2.13.19,11.63,11.63,0,0,1,2,.52,7.14,7.14,0,0,1,3,2.1,6.66,6.66,0,0,1,1.45,3,6.48,6.48,0,0,1-.25,3.28,7.17,7.17,0,0,1-2,3,9.52,9.52,0,0,1-3,1.86,8.58,8.58,0,0,1-3.51.55ZM65.64,93.2l1.56.08q.75,0,1.44,0a1.54,1.54,0,0,0,.71-.19,4.78,4.78,0,0,0,.63-.38.63.63,0,0,0,.28-.56c0-.18-.17-.34-.45-.48a2.86,2.86,0,0,0-2.31-.13A3.44,3.44,0,0,0,65.64,93.2Z"/><path class="cls-6" d="M89.42,106.14a8.7,8.7,0,0,1-3.34-.5,9.34,9.34,0,0,1-3-1.7,9.54,9.54,0,0,1-2.19-2.68,8.43,8.43,0,0,1-1-3.43,10,10,0,0,1,.42-3.62A11,11,0,0,1,81.92,91a10.83,10.83,0,0,1,5.86-4,11.14,11.14,0,0,1,3.64-.36,9.81,9.81,0,0,1,3.44.83,8.44,8.44,0,0,1,2.83,2.08A8,8,0,0,1,99.43,93a10.4,10.4,0,0,1-.15,5.62,11.61,11.61,0,0,1-2.8,4.74A9.39,9.39,0,0,1,89.42,106.14Zm1.82-6.92a3.79,3.79,0,0,0,.89-1A4.78,4.78,0,0,0,92.7,97a5.11,5.11,0,0,0,.22-1.4,3.6,3.6,0,0,0-.18-1.33,2,2,0,0,0-.85-1.09,1.82,1.82,0,0,0-1.34-.3,4.23,4.23,0,0,0-1.64.54,4.67,4.67,0,0,0-1.22,1,4,4,0,0,0-.75,1.32,4.64,4.64,0,0,0-.24,1.48,2.45,2.45,0,0,0,.47,1.52,2.69,2.69,0,0,0,1.13.92,3,3,0,0,0,1.46.2A2.83,2.83,0,0,0,91.24,99.22Z"/></g></g></g></g></g></svg>