<svg xmlns="http://www.w3.org/2000/svg" xmlns:xlink="http://www.w3.org/1999/xlink" viewBox="0 0 436.24 118.1"><defs><style>.cls-1{isolation:isolate;}.cls-12,.cls-2,.cls-9{mix-blend-mode:darken;}.cls-3{fill:#9c5930;}.cls-4,.cls-8{opacity:0.3;}.cls-14,.cls-15,.cls-16,.cls-4{mix-blend-mode:overlay;}.cls-15,.cls-16,.cls-5{fill:#fff;}.cls-17,.cls-6{fill:none;stroke:#7a141a;stroke-linecap:round;stroke-linejoin:round;}.cls-6{stroke-width:6px;}.cls-7{fill:#de4b62;}.cls-10,.cls-13,.cls-8{fill:#7a141a;}.cls-11,.cls-9{fill:#af0036;}.cls-10,.cls-12,.cls-14,.cls-16,.cls-19,.cls-9{opacity:0.5;}.cls-17{stroke-width:4px;}.cls-18{fill:#ffe3a1;}.cls-20{fill:url(#New_Gradient_Swatch_1);}</style><linearGradient id="New_Gradient_Swatch_1" x1="217.87" y1="54.32" x2="217.87" y2="19.77" gradientUnits="userSpaceOnUse"><stop offset="0" stop-color="#c6753f"/><stop offset="0.5" stop-color="#c6753f" stop-opacity="0"/></linearGradient></defs><g class="cls-1"><g id="Layer_2" data-name="Layer 2"><g id="Ultimate_Casual_Game_UI_kit:_Paradise_Lagoon" data-name="Ultimate Casual Game UI kit: Paradise Lagoon"><g id="general_modal" data-name="general modal"><g id="ribbon_title_area" data-name="ribbon title area"><g id="ribbon"><g id="shadow" class="cls-2"><path class="cls-3" d="M436,58.55c-21.36-.28-42.73-.71-64.09-1a13.52,13.52,0,0,1-2.47.24H5.41a13.33,13.33,0,0,1-2.2-.2C4.93,61.06,6.32,64.52,8.74,68V89.88H26a19.49,19.49,0,0,1,9.82-2.79h.77c1.9.09,3.22,1.19,4.52,2.78H66.54a15.32,15.32,0,0,0,1.17-4.09,12.4,12.4,0,0,0,0-2.65c.2-2.28-.3,6.3-1.44,4.52,0,0,50.13-20,153.29-20s140.79,18.24,155,20.16c0,0,0-2.61,0-2.59-2.71,3-3-2-2.78,0a10.84,10.84,0,0,0,0,2.31,11.61,11.61,0,0,0,.84,3H398a9.73,9.73,0,0,1,5.64-2.29h.71a18.6,18.6,0,0,1,8.78,2.3h13.65a21.65,21.65,0,0,1,3.35.25l-.67-21.9Q432.69,63.71,436,58.55Z"/></g><g id="pink_ribbon" data-name="pink ribbon"><g id="ribbon-2" data-name="ribbon"><g class="cls-4"><path class="cls-5" d="M415.5,50.17c-.65.17-1.58,1.85-2.2,3.72-3.7,11.52-11.41,22.38-12.3,34.87-.12,2,.18,3.24.46,2.63s2.39-.26,4.54.76,4.2.28,4.9-1.57c3.69-10.42,10.32-20.2,11.87-31.36.27-2-1.26-5-3-6.57S416.16,50,415.5,50.17Z"/></g><path class="cls-6" d="M37.06,50s-2.37,8.13-7.83,3.58C23.15,48.43,9.74,53.37,3,71.05l7.74,12v32s8.69-17.37,23.38-19.19c10.05-1.17,8.67,14.22,20.67,7.66,4-2.14,8.79-10.46,4-17.12Q47.87,68,37.06,50Z"/><path class="cls-6" d="M37.06,48s-2.37,8.13-7.83,3.58C23.15,46.43,9.74,51.37,3,69.05l7.74,12v32s8.69-17.37,23.38-19.19c10.05-1.17,8.67,14.22,20.67,7.66,4-2.14,8.79-10.46,4-17.12Q47.87,66,37.06,48Z"/><path class="cls-7" d="M37.06,48s-2.37,8.13-7.83,3.58C23.15,46.43,9.74,51.37,3,69.05l7.74,12v32s8.69-17.37,23.38-19.19c10.05-1.17,8.67,14.22,20.67,7.66,4-2.14,8.79-10.46,4-17.12Q47.87,66,37.06,48Z"/><path class="cls-8" d="M14.79,53.05s14.29-12.49,21.94,2.81Q47.82,76.38,59,97.34l-4.08,6.15c-3.45.33-6.88.7-10.31,1.09l-5.14-7c3.73-1.16,2.28-3.4-6.63-29.06C23.59,41.91,14.79,53,14.79,53.05Z"/><path class="cls-6" d="M399.18,50s2.37,8.13,7.83,3.58c6.08-5.1,19.49-.16,26.23,17.52q-3.86,6-7.73,12v32s-8.7-17.37-23.39-19.19c-10.05-1.17-8.67,14.22-20.67,7.66-3.95-2.14-8.79-10.46-3.95-17.12Q388.39,68,399.18,50Z"/><path class="cls-6" d="M399.18,48s2.37,8.13,7.83,3.58c6.08-5.1,19.49-.16,26.23,17.52q-3.86,6-7.73,12v32s-8.7-17.37-23.39-19.19c-10.05-1.17-8.67,14.22-20.67,7.66-3.95-2.14-8.79-10.46-3.95-17.12Q388.39,66,399.18,48Z"/><path class="cls-7" d="M399.18,48s2.37,8.13,7.83,3.58c6.08-5.1,19.49-.16,26.23,17.52q-3.86,6-7.73,12v32s-8.7-17.37-23.39-19.19c-10.05-1.17-8.67,14.22-20.67,7.66-3.95-2.14-8.79-10.46-3.95-17.12Q388.39,66,399.18,48Z"/><path class="cls-8" d="M421.45,53.05s-14.29-12.49-21.94,2.81q-11.08,20.52-22.28,41.48,2.06,3.07,4.09,6.15c3.44.33,6.87.7,10.3,1.09q2.58-3.48,5.15-7c-3.73-1.16-2.29-3.4,6.62-29.06C412.65,41.91,421.45,53,421.45,53.05Z"/><path class="cls-9" d="M416.2,72.71a3.66,3.66,0,0,1,.46-1.72c.76-1.21,1.53-2.41,2.3-3.61a1.75,1.75,0,0,1,1.37-.71l1.85,0c.51,0,.69-.45.4-1L422,64.5a2,2,0,0,1-.06-1.75c1.22-1.92,2.45-3.83,3.67-5.74.25-.39.77-.29,1.16.23l2.54,3.39a1.57,1.57,0,0,1,.23,1.64l-.39.56c-.26.38-.86.32-1.32-.12l-.33-.32c-.47-.45-.85-.36-.86.19,0,1,0,2,0,2.92a3.64,3.64,0,0,1-.49,1.69l-4.92,7.12a3.56,3.56,0,0,0-.48,1.7v9.81a.67.67,0,0,1-1,.65l-.31-.11c-.53-.19-.72.11-.42.67l1.16,2.17a5.12,5.12,0,0,1,.54,2v15.11c0,.55-.33.58-.73.08q-1.52-1.91-3-3.79a3.63,3.63,0,0,1-.73-1.91V96.09a1.91,1.91,0,0,1,.69-1.45l.82-.54c.38-.25.34-.85-.09-1.33l-.63-.7a3.2,3.2,0,0,1-.79-1.86Z"/><path class="cls-10" d="M416.2,99.71a3.63,3.63,0,0,0,.73,1.91q1.53,1.89,3,3.79c.4.5.73.47.73-.08v-2a3.66,3.66,0,0,0-.73-1.92q-1.52-1.91-3-3.79c-.4-.5-.73-.46-.73.09Z"/><g class="cls-4"><path class="cls-5" d="M417,50.7c-1.44-.12-3.15,1.29-3.86,3.13C409,65.2,401.78,76.24,401,88.77c-.09,2,.85,3.46,2,3.11s3.93.26,6,1.29,4.24.32,5-1.51c4-10.29,10.24-20.17,11.72-31.35.26-2-1.25-5-3-6.58S418.47,50.83,417,50.7Z"/></g><path class="cls-6" d="M387.17,92.6l-.11.34A3.09,3.09,0,0,0,387.17,92.6Zm5.1-61.82,0,.27c-5.81-2.77-61-16.06-61.12-15.28V16c-26.62-6-94.54-14.73-157.21-9.21C111.08,10.37,53.53,28.19,44.37,31l0-.27c0-.06-15.7,5-8.84,20.79q6.95,20.43,13.94,41c-.35-1.16-1.13-5.21,3.66-8.15a592.36,592.36,0,0,1,278-12.59h0q26.11,5.07,51.81,12.51l0-.15c5.41,3,4.6,7.27,4.23,8.47q7-20.59,13.94-41C408,35.79,392.29,30.73,392.27,30.78ZM49.42,92.5c.06.21.11.34.11.34Z"/><path class="cls-6" d="M387.17,90.6l-.11.34A3.09,3.09,0,0,0,387.17,90.6Zm5.1-61.82,0,.27c-5.81-2.77-61-16.06-61.12-15.28V14c-26.62-6-94.54-14.73-157.21-9.21C111.08,8.37,53.53,26.19,44.37,29l0-.27c0-.06-15.7,5-8.84,20.79q6.95,20.43,13.94,41c-.35-1.16-1.13-5.21,3.66-8.15a592.36,592.36,0,0,1,278-12.59h0q26.11,5.07,51.81,12.51l0-.15c5.41,3,4.6,7.27,4.23,8.47q7-20.59,13.94-41C408,33.79,392.29,28.73,392.27,28.78ZM49.42,90.5c.06.21.11.34.11.34Z"/><path class="cls-11" d="M387.17,90.6l-.11.34A3.09,3.09,0,0,0,387.17,90.6Zm5.1-61.82,0,.27c-5.81-2.77-61-16.06-61.12-15.28V14c-26.62-6-94.54-14.73-157.21-9.21C111.08,8.37,53.53,26.19,44.37,29l0-.27c0-.06-15.7,5-8.84,20.79q6.95,20.43,13.94,41c-.35-1.16-1.13-5.21,3.66-8.15a592.36,592.36,0,0,1,278-12.59h0q26.11,5.07,51.81,12.51l0-.15c5.41,3,4.6,7.27,4.23,8.47q7-20.59,13.94-41C408,33.79,392.29,28.73,392.27,28.78ZM49.42,90.5c.06.21.11.34.11.34Z"/><path class="cls-7" d="M387.17,90.6l-.11.34A3.09,3.09,0,0,0,387.17,90.6Zm5.1-61.82,0,.27c-5.81-2.77-61-16.06-61.12-15.28V14c-26.62-6-94.54-14.73-157.21-9.21C111.08,8.37,53.53,26.19,44.37,29l0-.27c0-.06-15.7,5-8.84,20.79q6.95,20.43,13.94,41c-.35-1.16-1.13-5.21,3.66-8.15a592.36,592.36,0,0,1,278-12.59h0q26.11,5.07,51.81,12.51l0-.15c5.41,3,4.6,7.27,4.23,8.47q7-20.59,13.94-41C408,33.79,392.29,28.73,392.27,28.78ZM49.42,90.5c.06.21.11.34.11.34Z"/><g class="cls-12"><path class="cls-11" d="M82.21,76.43c0-.09-.07-.17-.1-.26A2.94,2.94,0,0,1,83.78,73a1.86,1.86,0,0,1,2.78,1,2.39,2.39,0,0,1-.1,1.42l5-1.12.18-.2a4.85,4.85,0,0,0,.93-2Q91,66,89.35,59.81c-.53-2-1.91-1.92-3,.22L81.17,69.7a2.79,2.79,0,0,0,1.62-.26l.33-.15c1.08-.49,1.23-.18.34.67L81.31,72a15.42,15.42,0,0,0-2.13,2.51c-.19.34-.38.26-.51-.13l-.31.6a4.53,4.53,0,0,0-.56,2.48Z"/><path class="cls-11" d="M76.22,68.14l-.33.16c-1.07.5-1.22.19-.34-.67l2.15-2.1A15.42,15.42,0,0,0,79.83,63a.85.85,0,0,1,.1-.14l.55-1.05c1.13-2.16.51-4.47-1.38-5.14Q72.53,54.37,66,52.2c-1.87-.62-3,.51-2.45,2.5.48,1.81,1,3.63,1.45,5.45a2.64,2.64,0,0,0,1.64.68l1.67,0c1,0,1,.48,0,1l-1,.5A2.92,2.92,0,0,0,66,63.9l3.57,13.46c.53,2,1.89,1.85,3-.32l4.79-9.21A3.44,3.44,0,0,0,76.22,68.14Zm-3.9-5.07A3,3,0,0,1,74,59.86a1.82,1.82,0,0,1,2.77,1A3,3,0,0,1,75.09,64,1.82,1.82,0,0,1,72.32,63.07Z"/><path class="cls-11" d="M71.23,27l-.12,0a7.92,7.92,0,0,0-3.7-.11L65,27.42c-1.09.26-1.12,0-.07-.58l.32-.18a3.79,3.79,0,0,0,1.37-1.24c-2.31-.76-4.61-1.52-6.92-2.26l-4.08,1.15a3.74,3.74,0,0,0,.11.9q1.62,6.06,3.23,12.14a2.55,2.55,0,0,0,1.63.67h1.67c1.05,0,1.05.47,0,1l-1,.51a2.92,2.92,0,0,0-1.34,1.54c.59,2.23,1.19,4.46,1.78,6.69.53,2,1.88,1.82,3-.36q3.94-7.69,7.9-15.33C73.73,29.93,73.11,27.62,71.23,27Zm-4,7.41a1.81,1.81,0,0,1-2.77-.93,3.06,3.06,0,0,1,1.66-3.23,1.81,1.81,0,0,1,2.77.94A3,3,0,0,1,67.23,34.39Z"/><path class="cls-11" d="M87.23,51.81Q85.45,45,83.64,38.24a1.84,1.84,0,0,0-1.74,0l-1,.47c-1.07.52-1.29.18-.49-.77l1.26-1.51a4.75,4.75,0,0,0,.93-2c-.48-1.83-1-3.66-1.45-5.49-.54-2-1.9-1.89-3,.27q-4,7.52-7.93,15.09c-1.13,2.17-.53,4.48,1.35,5.13l.91.32a.36.36,0,0,1,.14,0,9.87,9.87,0,0,0,2.81.05l2.63-.28c1.08-.11,1.11.26.06.81l-.33.17a4.09,4.09,0,0,0-1,.75q4,1.43,8,2.9C86.66,54.89,87.77,53.82,87.23,51.81ZM76.74,46.4a1.83,1.83,0,0,1-2.77-1,3,3,0,0,1,1.66-3.2,1.83,1.83,0,0,1,2.77,1A3,3,0,0,1,76.74,46.4Z"/><path class="cls-11" d="M78.36,18.3q-4.81,1.17-9.63,2.43c2.64.9,5.28,1.83,7.92,2.77,1.88.67,3-.41,2.45-2.42Z"/><path class="cls-11" d="M62.33,65.75c-.57-2.17-2-4.14-3.2-4.37s-1.35-.83-.36-1.36A2.9,2.9,0,0,0,60,56.82a2,2,0,0,1,.08-1.1Q56,40.51,52,25.36c-2,.6-4.11,1.21-6.16,1.84q1.5,5.61,3,11.23a6,6,0,0,0,2.47,2.33c1.35.56,1.5,1.12.33,1.25a1.77,1.77,0,0,0-1.4,1.69Q53.58,56.41,57,69.14a6.6,6.6,0,0,0,2.39,2c1.37.63,1.63,1.6.58,2.16a2.89,2.89,0,0,0-1.23,2.35q.84,3.17,1.69,6.35,3.09-.85,6.19-1.68L63.06,67.1A3.26,3.26,0,0,1,62.33,65.75Z"/><path class="cls-11" d="M97.12,49.7c-.58-2.21-2-4.27-3.24-4.57s-1.36-.92-.37-1.38a2.74,2.74,0,0,0,1.21-3.13,2,2,0,0,1,.08-1.1q-3.12-11.82-6.24-23.6c-2.08.47-4.16.94-6.24,1.43l1.11,4.19A6.57,6.57,0,0,0,85.93,24c1.37.64,1.52,1.22.33,1.28-.76,0-1.27.68-1.41,1.6l6.83,25.85a7.25,7.25,0,0,0,2.42,2.17c1.38.71,1.64,1.7.58,2.2a2.68,2.68,0,0,0-1.24,2.27q1.82,6.86,3.63,13.74c2.08-.44,4.17-.86,6.26-1.28q-2.73-10.38-5.48-20.76A3.43,3.43,0,0,1,97.12,49.7Z"/></g><g class="cls-12"><path class="cls-11" d="M348.64,75.18a1,1,0,0,0,.1-.26,2.91,2.91,0,0,0-1.67-3.16,1.87,1.87,0,0,0-2.78,1.06,2.39,2.39,0,0,0,.09,1.42q-2.52-.55-5.05-1.08l-.17-.2a4.58,4.58,0,0,1-.93-2q1.63-6.18,3.26-12.37c.54-2,1.91-1.93,3.05.2l5.15,9.61a2.7,2.7,0,0,1-1.63-.24l-.33-.15c-1.08-.47-1.23-.17-.34.68l2.15,2a14.7,14.7,0,0,1,2.14,2.49c.18.34.37.25.5-.14.11.2.22.4.32.6a4.48,4.48,0,0,1,.56,2.47Z"/><path class="cls-11" d="M353.52,66.54q2.4,4.58,4.8,9.17c1.12,2.16,2.48,2.29,3,.29q1.79-6.75,3.58-13.5A2.88,2.88,0,0,0,363.56,61l-1-.48c-1.06-.53-1.07-1,0-1l1.67,0a2.59,2.59,0,0,0,1.64-.7q.74-2.73,1.45-5.46c.53-2-.57-3.12-2.45-2.48q-6.56,2.23-13.14,4.62c-1.89.68-2.51,3-1.38,5.15l.55,1,.1.13a14.11,14.11,0,0,0,2.13,2.49l2.15,2.08c.89.86.73,1.16-.34.67l-.33-.15A3.41,3.41,0,0,0,353.52,66.54Zm2.26-3.81a3,3,0,0,1-1.67-3.18,1.85,1.85,0,0,1,2.78-1,3,3,0,0,1,1.66,3.19A1.83,1.83,0,0,1,355.78,62.73Z"/><path class="cls-11" d="M358.27,30.77q4,7.59,7.91,15.25c1.13,2.17,2.48,2.32,3,.33.59-2.24,1.19-4.48,1.78-6.71a2.89,2.89,0,0,0-1.34-1.53l-1-.49c-1.06-.55-1.07-1,0-1l1.67,0a2.64,2.64,0,0,0,1.64-.68c1.08-4.07,2.15-8.12,3.23-12.18a3.71,3.71,0,0,0,.12-.89c-1.37-.38-2.73-.75-4.1-1.11q-3.47,1.14-6.93,2.32a3.77,3.77,0,0,0,1.37,1.23l.32.17c1.06.58,1,.83-.07.58l-2.44-.56a7.91,7.91,0,0,0-3.7.14l-.13.05C357.76,26.29,357.14,28.61,358.27,30.77Zm3.72-1a1.82,1.82,0,0,1,2.77-1A3,3,0,0,1,366.42,32a1.82,1.82,0,0,1-2.77,1A3,3,0,0,1,362,29.8Z"/><path class="cls-11" d="M346.07,53q4-1.52,8-3a4.29,4.29,0,0,0-1-.73l-.33-.17c-1.05-.55-1-.91.06-.81l2.63.25a9.71,9.71,0,0,0,2.82-.08.36.36,0,0,1,.14,0l.92-.33c1.87-.67,2.48-3,1.34-5.14q-4-7.55-7.94-15c-1.14-2.14-2.51-2.25-3-.23-.49,1.83-1,3.67-1.46,5.5a4.77,4.77,0,0,0,.93,2l1.27,1.5c.79.94.57,1.29-.49.78L349,37a1.84,1.84,0,0,0-1.74,0l-3.6,13.6C343.08,52.63,344.19,53.69,346.07,53Zm6.39-11a1.84,1.84,0,0,1,2.77-1,3,3,0,0,1,1.67,3.19,1.85,1.85,0,0,1-2.78,1A2.93,2.93,0,0,1,352.46,41.93Z"/><path class="cls-11" d="M352.5,17q4.83,1.13,9.64,2.33-4,1.39-7.93,2.85c-1.88.69-3-.38-2.45-2.39C352,18.88,352.25,18,352.5,17Z"/><path class="cls-11" d="M368.56,64.32c.57-2.18,2-4.16,3.21-4.4s1.35-.85.36-1.37a2.87,2.87,0,0,1-1.2-3.19,2.12,2.12,0,0,0-.07-1.1q4-15.24,8.08-30.43c2.06.58,4.11,1.17,6.17,1.77l-3,11.27a6.06,6.06,0,0,1-2.48,2.35c-1.35.57-1.5,1.14-.33,1.26.76.08,1.26.75,1.4,1.67q-3.37,12.74-6.77,25.5a6.69,6.69,0,0,1-2.39,2c-1.37.64-1.63,1.62-.57,2.17a2.88,2.88,0,0,1,1.23,2.33q-.85,3.18-1.69,6.37-3.11-.82-6.21-1.62,1.76-6.65,3.52-13.27A3.36,3.36,0,0,0,368.56,64.32Z"/><path class="cls-11" d="M333.71,48.59c.58-2.21,2-4.28,3.25-4.59s1.36-.94.36-1.39a2.72,2.72,0,0,1-1.21-3.12A2,2,0,0,0,336,38.4q3.14-11.85,6.25-23.66,3.14.66,6.25,1.37l-1.11,4.2a6.63,6.63,0,0,1-2.5,2.5c-1.37.66-1.52,1.23-.34,1.28.77,0,1.28.67,1.42,1.59q-3.42,12.93-6.84,25.92a7.42,7.42,0,0,1-2.42,2.19c-1.39.73-1.65,1.72-.58,2.2a2.68,2.68,0,0,1,1.24,2.26q-1.81,6.89-3.64,13.77c-2.09-.41-4.18-.82-6.27-1.21Q330.24,60.39,333,50A3.53,3.53,0,0,0,333.71,48.59Z"/></g><g class="cls-4"><path class="cls-5" d="M43.5,33.2a5.52,5.52,0,0,1,3.89-5,592.26,592.26,0,0,1,340.45-.3,5.57,5.57,0,0,1,3.92,5A84,84,0,0,1,379,74.6a5.71,5.71,0,0,1-6,2.11,592.24,592.24,0,0,0-310.31.15,5.8,5.8,0,0,1-6.05-2.09A84.19,84.19,0,0,1,43.5,33.2Z"/></g><path class="cls-9" d="M20,72.71A3.78,3.78,0,0,0,19.59,71l-2.3-3.61a1.77,1.77,0,0,0-1.38-.71l-1.85,0c-.51,0-.69-.45-.4-1l.61-1.19a2,2,0,0,0,.07-1.75L10.66,57c-.25-.39-.77-.29-1.16.23L7,60.63a1.57,1.57,0,0,0-.23,1.64l.39.56c.26.38.86.32,1.32-.12l.33-.32c.47-.45.85-.36.86.19l0,2.92a3.52,3.52,0,0,0,.48,1.69l4.92,7.12a3.56,3.56,0,0,1,.48,1.7v9.81a.67.67,0,0,0,1,.65l.31-.11c.53-.19.72.11.42.67L16.08,89.2a5.12,5.12,0,0,0-.54,2v15.11c0,.55.33.58.73.08,1-1.27,2-2.53,3-3.79a3.63,3.63,0,0,0,.73-1.91V96.09a1.91,1.91,0,0,0-.69-1.45l-.82-.54c-.38-.25-.34-.85.09-1.33.21-.23.43-.46.64-.7A3.25,3.25,0,0,0,20,90.21Z"/><path class="cls-10" d="M20,99.71a3.63,3.63,0,0,1-.73,1.91c-1,1.26-2,2.52-3,3.79-.4.5-.73.47-.73-.08v-2a3.66,3.66,0,0,1,.73-1.92c1-1.27,2-2.53,3-3.79.4-.5.73-.46.73.09Z"/><g class="cls-4"><path class="cls-5" d="M19.24,50.7c1.44-.12,3.16,1.29,3.86,3.13C27.23,65.2,34.46,76.24,35.21,88.77c.1,2-.85,3.46-2,3.11s-3.93.26-6,1.29-4.24.32-5-1.51C18.25,81.37,12,71.49,10.52,60.31c-.26-2,1.24-5,3-6.58S17.77,50.83,19.24,50.7Z"/></g><path class="cls-13" d="M54.79,101.57c5.24-3.45,3.2-7.08-.94-5.9-3.31,1-4.77,1.4-6.33-.06C46.37,94.53,44.93,89,44.93,89l.75.06s.15-5,9.45-7.66S63,83.3,63,83.29a31.86,31.86,0,0,1,.61,9.33C63.29,94.61,57.69,101.37,54.79,101.57Z"/><path class="cls-8" d="M47.88,27.6c0-.13-22,6-15.15,21.77q7.7,21,15.44,42.14,5.14-5.4,10.31-10.7c-5.18,1.48-6.92,1.42-15.29-24.76S43.31,29,47.88,27.6Z"/><path class="cls-8" d="M388.29,27.58c0-.13,22,6,15.16,21.76q-7.69,21-15.45,42.15-5.14-5.4-10.31-10.69c5.18,1.47,6.93,1.41,15.29-24.77S392.86,28.94,388.29,27.58Z"/><path class="cls-13" d="M381.45,101.57c-5.24-3.45-3.19-7.08.94-5.9,3.31,1,4.77,1.4,6.33-.06,1.15-1.08,2.6-6.59,2.6-6.59l-.76.06s-.15-5-9.45-7.66-7.83,1.88-7.83,1.87a31.86,31.86,0,0,0-.61,9.33C373,94.61,378.56,101.37,381.45,101.57Z"/><g class="cls-14"><path class="cls-15" d="M390.8,30.33a.71.71,0,0,1-1,.7,592.26,592.26,0,0,0-342.42-.29.71.71,0,0,1-1-.7h0a1.47,1.47,0,0,1,1-1.3A592.26,592.26,0,0,1,389.81,29a1.47,1.47,0,0,1,1,1.3Z"/></g><path class="cls-16" d="M222.6,4.29c.06.52-4.86,1-11,1.27s-11.15.1-11.21-.43,4.86-1.25,11-1.48S222.54,3.76,222.6,4.29Z"/></g><g id="text"><path class="cls-6" d="M120.87,49.23c0,.53-.05,1-.08,1.51s0,.95-.07,1.43a2.82,2.82,0,0,0,0,.58,2,2,0,0,1-.06.59,3.57,3.57,0,0,1-1.13,1.93,3.77,3.77,0,0,1-2,1,2.39,2.39,0,0,1-1.85-.41,2.1,2.1,0,0,1-.84-1.63c0-.79,0-1.55,0-2.3q.22-3.72.43-7.39t.43-7.35c0-.34,0-.67,0-1a7,7,0,0,1,.07-1,3.56,3.56,0,0,1,.52-1.57,4.16,4.16,0,0,1,1.09-1.19,4,4,0,0,1,1.4-.64,2.39,2.39,0,0,1,1.47.1,2,2,0,0,1,1.43,2.22l-.15,2.56c0,.87-.09,1.72-.14,2.57,0,.25,0,.49-.05.73s0,.54-.06.88a4.63,4.63,0,0,1,.52-.5,4,4,0,0,0,.41-.41c.64-.69,1.28-1.37,1.93-2s1.27-1.34,1.89-2A4.22,4.22,0,0,1,129,34.46a2.7,2.7,0,0,1,1.34.38,1.92,1.92,0,0,1,.8,1,2.65,2.65,0,0,1-.64,2.86c-.43.49-.87,1-1.32,1.42s-.91.93-1.36,1.4-.8.82-1.18,1.23-.78.83-1.18,1.25c0,.08,0,.16.07.23l1.86,1.06,1.86,1a2.67,2.67,0,0,1,1.43,1.44,2.54,2.54,0,0,1-.22,2,3.68,3.68,0,0,1-1.66,1.74,3,3,0,0,1-2.27.28,6.9,6.9,0,0,1-1.09-.44c-.34-.17-.69-.34-1-.5L123,50.16l-1.39-.72-.3-.12Z"/><path class="cls-6" d="M147,46.42c-.93.19-1.83.39-2.69.58l-2.62.59a1.23,1.23,0,0,1,0,.2.32.32,0,0,0,0,.19A3.09,3.09,0,0,1,141.3,50a3.89,3.89,0,0,1-1.56,1.5,3.21,3.21,0,0,1-2.08.33,2.31,2.31,0,0,1-1.58-1,2.17,2.17,0,0,1-.39-.9,43,43,0,0,1-.61-5.8,22.74,22.74,0,0,1,.61-6,22.13,22.13,0,0,1,.86-2.83,21.16,21.16,0,0,1,1.27-2.78A19.41,19.41,0,0,1,139.49,30a12.23,12.23,0,0,1,2.08-2.11,8.09,8.09,0,0,1,2.51-1.43,6.09,6.09,0,0,1,2.49-.33,5.08,5.08,0,0,1,2.25.74,5.66,5.66,0,0,1,1.79,1.79,8.58,8.58,0,0,1,1,2.23c.24.78.45,1.58.64,2.39a50.34,50.34,0,0,1,.71,7.82,71.46,71.46,0,0,1-.35,7.32,3.91,3.91,0,0,1-.5,1.51,3.74,3.74,0,0,1-1,1.11,3.63,3.63,0,0,1-1.29.64,2.81,2.81,0,0,1-1.44,0,2.12,2.12,0,0,1-1.49-1,2.69,2.69,0,0,1-.31-1.89l.15-1.12C146.85,47.24,146.9,46.84,147,46.42Zm.11-5.66c0-.36,0-.69-.06-1s0-.63-.05-1-.1-.79-.16-1.39-.15-1.23-.25-1.87a14.44,14.44,0,0,0-.42-1.8,2.46,2.46,0,0,0-.64-1.17.75.75,0,0,0-.95,0,4.84,4.84,0,0,0-1.35,1.68,13,13,0,0,0-1,1.9,17.26,17.26,0,0,0-.68,2.07,15.79,15.79,0,0,0-.38,2,6.2,6.2,0,0,0,0,1.79l2.87-.62C145,41.17,146,41,147.06,40.76Z"/><path class="cls-6" d="M170.46,33.34q.9-1.61,1.71-3.09c.54-1,1.09-2,1.65-2.92.19-.36.39-.71.59-1a7.39,7.39,0,0,1,.71-1,8.28,8.28,0,0,1,1.8-1.67,3.82,3.82,0,0,1,2.78-.58A3.66,3.66,0,0,1,182,24.51a5,5,0,0,1,.87,1.77,13.16,13.16,0,0,1,.42,2.13c.08.73.13,1.46.14,2.18s0,1.36,0,1.91c0,1.87-.06,3.73-.11,5.57s-.09,3.7-.14,5.57a1.58,1.58,0,0,0,0,.38,2.34,2.34,0,0,1,0,.38,3.18,3.18,0,0,1-1,1.93,3.26,3.26,0,0,1-2,.86,2.69,2.69,0,0,1-1.9-.58,2.73,2.73,0,0,1-.95-1.74,1.51,1.51,0,0,1,0-.57c0-1.44.1-2.87.14-4.28s.1-2.83.15-4.28c0-.48,0-1,0-1.43a10.08,10.08,0,0,0-.16-1.5l-.22.29a1.67,1.67,0,0,0-.18.28c-.58,1.11-1.16,2.2-1.75,3.29S174,38.86,173.42,40a4.26,4.26,0,0,1-1.27,1.54,3.16,3.16,0,0,1-1.84.6,2.74,2.74,0,0,1-2.23-1,18.19,18.19,0,0,1-1.26-1.7,18.55,18.55,0,0,1-1.09-1.86,22.83,22.83,0,0,0-1.11-2.07c-.41-.67-.83-1.39-1.27-2.16,0,.2-.08.35-.1.46a1.2,1.2,0,0,0,0,.31c0,.77,0,1.54,0,2.3s0,1.53.06,2.3c.05,1.05.09,2.08.12,3.1s.07,2,.1,3.1a3.34,3.34,0,0,1-.6,2.12,3.75,3.75,0,0,1-1.78,1.3,2.79,2.79,0,0,1-2.27-.1,2.23,2.23,0,0,1-1.23-1.77,12.89,12.89,0,0,1-.1-1.64c0-.56,0-1.12,0-1.69-.05-1.48-.1-3-.14-4.43s-.1-2.94-.15-4.43a18.69,18.69,0,0,1,.29-4.08,11.23,11.23,0,0,1,1.26-3.53,4.52,4.52,0,0,1,2.16-2,3.52,3.52,0,0,1,2.74,0A4.78,4.78,0,0,1,166,26.54c.48.62.94,1.24,1.37,1.88s.87,1.28,1.3,1.93c.31.48.61,1,.88,1.46S170.15,32.82,170.46,33.34Z"/><path class="cls-6" d="M205.85,36.76a9.93,9.93,0,0,1-2,4.34,11,11,0,0,1-3.38,2.83,11.18,11.18,0,0,1-4.08,1.25,8.93,8.93,0,0,1-4-.45,7.54,7.54,0,0,1-3.22-2.3,8.36,8.36,0,0,1-1.72-4.3,22.11,22.11,0,0,1-.11-4.53c.13-1.52.32-3.05.58-4.58.12-.7.25-1.4.38-2.09s.29-1.38.46-2.06A3.21,3.21,0,0,1,189.91,23a3.14,3.14,0,0,1,2-.66,2.77,2.77,0,0,1,2,.81,2.47,2.47,0,0,1,.69,2,45.71,45.71,0,0,1-.62,4.58c-.29,1.54-.51,3.07-.65,4.59a7,7,0,0,0,.25,3.06,3.18,3.18,0,0,0,1.16,1.62,2.22,2.22,0,0,0,1.65.3,3.56,3.56,0,0,0,1.73-.89,5.75,5.75,0,0,0,1.4-1.94,7.64,7.64,0,0,0,.65-2.89c0-1.27.08-2.53.11-3.78s.05-2.51.07-3.78a2.86,2.86,0,0,1,.4-1.48,3.36,3.36,0,0,1,1-1.08,3.14,3.14,0,0,1,1.35-.49,3,3,0,0,1,1.51.21,2.72,2.72,0,0,1,1.75,2.61c0,1.95,0,3.8-.07,5.57A43.81,43.81,0,0,1,205.85,36.76Z"/><path class="cls-6" d="M232.22,39l-.18-.37a2.52,2.52,0,0,1-.14-.33,2.72,2.72,0,0,1-.2-2.06A2.59,2.59,0,0,1,233,34.69a4.22,4.22,0,0,1,2.61-.45,2.92,2.92,0,0,1,1.79,1,3.24,3.24,0,0,1,.78,2,19.77,19.77,0,0,1,0,2.88,3.63,3.63,0,0,1-.71,2,5.78,5.78,0,0,1-1.54,1.41,8,8,0,0,1-2.44,1,9.36,9.36,0,0,1-2.91.25,9.22,9.22,0,0,1-3-.7,7.85,7.85,0,0,1-2.71-1.88,9.83,9.83,0,0,1-2.65-10.08A15.47,15.47,0,0,1,224,28a11.27,11.27,0,0,1,3.14-3.25A9.86,9.86,0,0,1,231,23a13.09,13.09,0,0,1,4.26-.15,3.38,3.38,0,0,1,.72.24,5.58,5.58,0,0,1,.69.35,2.82,2.82,0,0,1,1.12,1.23,2.61,2.61,0,0,1,.22,1.6,2.73,2.73,0,0,1-.83,1.42,2.8,2.8,0,0,1-1.52.72,1.9,1.9,0,0,1-.58,0l-.58-.08a5.26,5.26,0,0,0-5,2.12,9.59,9.59,0,0,0-1.21,2.19,6.8,6.8,0,0,0-.45,2.49,4.66,4.66,0,0,0,.32,1.66,4.12,4.12,0,0,0,.93,1.43,3.24,3.24,0,0,0,1.41.82A2.8,2.8,0,0,0,232.22,39Z"/><path class="cls-6" d="M253.89,42.45c-.94,0-1.84,0-2.71,0l-2.64,0a.65.65,0,0,1,0,.2.49.49,0,0,0,0,.2,2.74,2.74,0,0,1-.34,2,2.78,2.78,0,0,1-1.58,1.15,3.15,3.15,0,0,1-2.09-.14,3.24,3.24,0,0,1-1.6-1.41,2.7,2.7,0,0,1-.39-1,46.06,46.06,0,0,1-.62-5.93,20.91,20.91,0,0,1,.62-5.88,17.22,17.22,0,0,1,.87-2.63,16.22,16.22,0,0,1,1.28-2.49,14,14,0,0,1,1.68-2.15,8.85,8.85,0,0,1,2.1-1.63A6.4,6.4,0,0,1,251,21.8a6.22,6.22,0,0,1,2.51.24,6.43,6.43,0,0,1,2.26,1.26,8.08,8.08,0,0,1,1.81,2.2,11.34,11.34,0,0,1,1,2.46c.25.84.46,1.69.66,2.54a53.48,53.48,0,0,1,.7,8,69.26,69.26,0,0,1-.34,7.24,3.17,3.17,0,0,1-.51,1.39,2.65,2.65,0,0,1-1,.89,3,3,0,0,1-1.3.34,3,3,0,0,1-1.45-.31,3.06,3.06,0,0,1-1.81-3.35c.05-.35.1-.72.15-1.08S253.84,42.85,253.89,42.45ZM254,36.8c0-.36,0-.7-.05-1s0-.64-.06-1-.1-.81-.16-1.43-.14-1.26-.25-1.93a16.28,16.28,0,0,0-.42-1.88,3.5,3.5,0,0,0-.65-1.33.83.83,0,0,0-1-.25,3.49,3.49,0,0,0-1.35,1.37,9.69,9.69,0,0,0-1,1.68,12.4,12.4,0,0,0-.69,1.91,12.77,12.77,0,0,0-.38,2,6.32,6.32,0,0,0,0,1.8c1,0,1.93,0,2.89,0Z"/><path class="cls-6" d="M274.06,42.12c-.07-.15-.13-.28-.17-.38s-.1-.22-.15-.34a2.84,2.84,0,0,1-.2-2.08,2.32,2.32,0,0,1,1.28-1.43,4.09,4.09,0,0,1,2.59-.22,3.32,3.32,0,0,1,1.79,1.17,3.63,3.63,0,0,1,.77,2,19.77,19.77,0,0,1,0,2.88,3.36,3.36,0,0,1-.7,1.95A5,5,0,0,1,277.74,47a7.65,7.65,0,0,1-2.43.82,9.41,9.41,0,0,1-2.9,0,9.69,9.69,0,0,1-3-1,9,9,0,0,1-2.71-2.12Q262.5,40,264.08,34.41a14,14,0,0,1,1.78-4,10,10,0,0,1,3.12-3,9.28,9.28,0,0,1,3.84-1.4,13.32,13.32,0,0,1,4.23.23,4.47,4.47,0,0,1,.72.31,6,6,0,0,1,.69.41,3.23,3.23,0,0,1,1.11,1.33,2.67,2.67,0,0,1,.22,1.61A2.4,2.4,0,0,1,279,31.3a2.36,2.36,0,0,1-1.51.58,1.63,1.63,0,0,1-.58,0,5.78,5.78,0,0,1-.57-.12,4.8,4.8,0,0,0-5,1.67,8.5,8.5,0,0,0-1.21,2.08,6.48,6.48,0,0,0-.45,2.45,4.7,4.7,0,0,0,.33,1.69,4.38,4.38,0,0,0,.92,1.51,3.63,3.63,0,0,0,1.4,1A2.7,2.7,0,0,0,274.06,42.12Z"/><path class="cls-6" d="M295.59,47.51c-.93-.11-1.83-.2-2.69-.28L290.28,47a1.15,1.15,0,0,1,0,.19.35.35,0,0,0,0,.2,2.64,2.64,0,0,1-.34,2,2.43,2.43,0,0,1-1.56,1A3.08,3.08,0,0,1,286.3,50a3.51,3.51,0,0,1-1.58-1.54,2.87,2.87,0,0,1-.4-1,47.32,47.32,0,0,1-.61-6,20.7,20.7,0,0,1,.61-5.82,17.79,17.79,0,0,1,.86-2.55,14.14,14.14,0,0,1,1.28-2.37,12.47,12.47,0,0,1,1.67-2,7.75,7.75,0,0,1,2.08-1.44,6,6,0,0,1,2.51-.63,6.1,6.1,0,0,1,2.5.46,7.26,7.26,0,0,1,2.24,1.46,9,9,0,0,1,1.79,2.36,12.63,12.63,0,0,1,1,2.56c.23.85.45,1.72.64,2.59a54.69,54.69,0,0,1,.7,8.05,68.43,68.43,0,0,1-.34,7.21,2.91,2.91,0,0,1-.5,1.35,2.4,2.4,0,0,1-1,.8,2.83,2.83,0,0,1-1.29.23,3.18,3.18,0,0,1-1.43-.45,3.3,3.3,0,0,1-1.49-1.51,3.16,3.16,0,0,1-.3-2c0-.35.09-.71.14-1.08S295.55,47.91,295.59,47.51Zm.11-5.64c0-.36,0-.7-.05-1s0-.64-.06-1-.1-.82-.16-1.44-.14-1.28-.25-2a17.72,17.72,0,0,0-.41-1.93,3.7,3.7,0,0,0-.65-1.38.86.86,0,0,0-.95-.33c-.37.09-.82.51-1.34,1.24a8.26,8.26,0,0,0-.95,1.59,12.2,12.2,0,0,0-.69,1.86,13.51,13.51,0,0,0-.37,1.92,6.8,6.8,0,0,0,0,1.81l2.87.29C293.68,41.64,294.67,41.75,295.7,41.87Z"/><path class="cls-6" d="M317.64,50.64a8.52,8.52,0,0,1,1.25.53,4.5,4.5,0,0,1,1.06.75,3.64,3.64,0,0,1,.75,1,2.68,2.68,0,0,1,.25,1.3,1.89,1.89,0,0,1-1.46,1.94,4.67,4.67,0,0,1-1.74.09,38.42,38.42,0,0,1-3.82-.88A27.47,27.47,0,0,1,310.12,54a7.39,7.39,0,0,1-3-2.18A6.72,6.72,0,0,1,306,48.46a4.48,4.48,0,0,1-.07-.7q0-.33,0-.69,0-3.07-.06-6.13c0-2,0-4.09-.05-6.13,0-.65,0-1.29,0-1.92s0-1.27.07-1.91a2.41,2.41,0,0,1,.85-1.87,2.53,2.53,0,0,1,2-.46,3.19,3.19,0,0,1,2,1.06,3.86,3.86,0,0,1,1,2.13,9.25,9.25,0,0,1,0,1.84c-.12,2.42-.14,4.86-.05,7.3s.12,4.9.12,7.37c0,.36.25.67.77.93a8.61,8.61,0,0,0,1.76.65c.67.17,1.32.32,2,.43A13.16,13.16,0,0,1,317.64,50.64Z"/><path class="cls-17" d="M120.87,47.23c0,.53-.05,1-.08,1.51s0,.95-.07,1.43a2.82,2.82,0,0,0,0,.58,2,2,0,0,1-.06.59,3.57,3.57,0,0,1-1.13,1.93,3.77,3.77,0,0,1-2,1,2.39,2.39,0,0,1-1.85-.41,2.1,2.1,0,0,1-.84-1.63c0-.79,0-1.55,0-2.3q.22-3.72.43-7.39t.43-7.35c0-.34,0-.67,0-1a7,7,0,0,1,.07-1,3.56,3.56,0,0,1,.52-1.57,4.16,4.16,0,0,1,1.09-1.19,4,4,0,0,1,1.4-.64,2.39,2.39,0,0,1,1.47.1,2,2,0,0,1,1.43,2.22l-.15,2.56c0,.87-.09,1.72-.14,2.57,0,.25,0,.49-.05.73s0,.54-.06.88a4.63,4.63,0,0,1,.52-.5,4,4,0,0,0,.41-.41c.64-.69,1.28-1.37,1.93-2s1.27-1.34,1.89-2A4.22,4.22,0,0,1,129,32.46a2.7,2.7,0,0,1,1.34.38,1.92,1.92,0,0,1,.8,1,2.65,2.65,0,0,1-.64,2.86c-.43.49-.87,1-1.32,1.42s-.91.93-1.36,1.4-.8.82-1.18,1.23-.78.83-1.18,1.25c0,.08,0,.16.07.23l1.86,1.06,1.86,1a2.67,2.67,0,0,1,1.43,1.44,2.54,2.54,0,0,1-.22,2,3.68,3.68,0,0,1-1.66,1.74,3,3,0,0,1-2.27.28,6.9,6.9,0,0,1-1.09-.44c-.34-.17-.69-.34-1-.5L123,48.16l-1.39-.72-.3-.12Z"/><path class="cls-17" d="M147,44.42c-.93.19-1.83.39-2.69.58l-2.62.59a1.23,1.23,0,0,1,0,.2.32.32,0,0,0,0,.19A3.09,3.09,0,0,1,141.3,48a3.89,3.89,0,0,1-1.56,1.5,3.21,3.21,0,0,1-2.08.33,2.31,2.31,0,0,1-1.58-1,2.17,2.17,0,0,1-.39-.9,43,43,0,0,1-.61-5.8,22.74,22.74,0,0,1,.61-6,22.13,22.13,0,0,1,.86-2.83,21.16,21.16,0,0,1,1.27-2.78A19.41,19.41,0,0,1,139.49,28a12.23,12.23,0,0,1,2.08-2.11,8.09,8.09,0,0,1,2.51-1.43,6.09,6.09,0,0,1,2.49-.33,5.08,5.08,0,0,1,2.25.74,5.66,5.66,0,0,1,1.79,1.79,8.58,8.58,0,0,1,1,2.23c.24.78.45,1.58.64,2.39a50.34,50.34,0,0,1,.71,7.82,71.46,71.46,0,0,1-.35,7.32,3.91,3.91,0,0,1-.5,1.51,3.74,3.74,0,0,1-1,1.11,3.63,3.63,0,0,1-1.29.64,2.81,2.81,0,0,1-1.44,0,2.12,2.12,0,0,1-1.49-1,2.69,2.69,0,0,1-.31-1.89l.15-1.12C146.85,45.24,146.9,44.84,147,44.42Zm.11-5.66c0-.36,0-.69-.06-1s0-.63-.05-1-.1-.79-.16-1.39-.15-1.23-.25-1.87a14.44,14.44,0,0,0-.42-1.8,2.46,2.46,0,0,0-.64-1.17.75.75,0,0,0-.95,0,4.84,4.84,0,0,0-1.35,1.68,13,13,0,0,0-1,1.9,17.26,17.26,0,0,0-.68,2.07,15.79,15.79,0,0,0-.38,2,6.2,6.2,0,0,0,0,1.79l2.87-.62C145,39.17,146,39,147.06,38.76Z"/><path class="cls-17" d="M170.46,31.34q.9-1.61,1.71-3.09c.54-1,1.09-2,1.65-2.92.19-.36.39-.71.59-1a7.39,7.39,0,0,1,.71-1,8.28,8.28,0,0,1,1.8-1.67,3.82,3.82,0,0,1,2.78-.58A3.66,3.66,0,0,1,182,22.51a5,5,0,0,1,.87,1.77,13.16,13.16,0,0,1,.42,2.13c.08.73.13,1.46.14,2.18s0,1.36,0,1.91c0,1.87-.06,3.73-.11,5.57s-.09,3.7-.14,5.57a1.58,1.58,0,0,0,0,.38,2.34,2.34,0,0,1,0,.38,3.18,3.18,0,0,1-1,1.93,3.26,3.26,0,0,1-2,.86,2.69,2.69,0,0,1-1.9-.58,2.73,2.73,0,0,1-.95-1.74,1.51,1.51,0,0,1,0-.57c0-1.44.1-2.87.14-4.28s.1-2.83.15-4.28c0-.48,0-1,0-1.43a10.08,10.08,0,0,0-.16-1.5l-.22.29a1.67,1.67,0,0,0-.18.28c-.58,1.11-1.16,2.2-1.75,3.29S174,36.86,173.42,38a4.26,4.26,0,0,1-1.27,1.54,3.16,3.16,0,0,1-1.84.6,2.74,2.74,0,0,1-2.23-1,18.19,18.19,0,0,1-1.26-1.7,18.55,18.55,0,0,1-1.09-1.86,22.83,22.83,0,0,0-1.11-2.07c-.41-.67-.83-1.39-1.27-2.16,0,.2-.08.35-.1.46a1.2,1.2,0,0,0,0,.31c0,.77,0,1.54,0,2.3s0,1.53.06,2.3c.05,1.05.09,2.08.12,3.1s.07,2,.1,3.1a3.34,3.34,0,0,1-.6,2.12,3.75,3.75,0,0,1-1.78,1.3,2.79,2.79,0,0,1-2.27-.1,2.23,2.23,0,0,1-1.23-1.77,12.89,12.89,0,0,1-.1-1.64c0-.56,0-1.12,0-1.69-.05-1.48-.1-3-.14-4.43s-.1-2.94-.15-4.43a18.69,18.69,0,0,1,.29-4.08,11.23,11.23,0,0,1,1.26-3.53,4.52,4.52,0,0,1,2.16-2,3.52,3.52,0,0,1,2.74,0A4.78,4.78,0,0,1,166,24.54c.48.62.94,1.24,1.37,1.88s.87,1.28,1.3,1.93c.31.48.61,1,.88,1.46S170.15,30.82,170.46,31.34Z"/><path class="cls-17" d="M205.85,34.76a9.93,9.93,0,0,1-2,4.34,11,11,0,0,1-3.38,2.83,11.18,11.18,0,0,1-4.08,1.25,8.93,8.93,0,0,1-4-.45,7.54,7.54,0,0,1-3.22-2.3,8.36,8.36,0,0,1-1.72-4.3,22.11,22.11,0,0,1-.11-4.53c.13-1.52.32-3.05.58-4.58.12-.7.25-1.4.38-2.09s.29-1.38.46-2.06A3.21,3.21,0,0,1,189.91,21a3.14,3.14,0,0,1,2-.66,2.77,2.77,0,0,1,2,.81,2.47,2.47,0,0,1,.69,2,45.71,45.71,0,0,1-.62,4.58c-.29,1.54-.51,3.07-.65,4.59a7,7,0,0,0,.25,3.06,3.18,3.18,0,0,0,1.16,1.62,2.22,2.22,0,0,0,1.65.3,3.56,3.56,0,0,0,1.73-.89,5.75,5.75,0,0,0,1.4-1.94,7.64,7.64,0,0,0,.65-2.89c0-1.27.08-2.53.11-3.78s.05-2.51.07-3.78a2.86,2.86,0,0,1,.4-1.48,3.36,3.36,0,0,1,1-1.08,3.14,3.14,0,0,1,1.35-.49,3,3,0,0,1,1.51.21,2.72,2.72,0,0,1,1.75,2.61c0,1.95,0,3.8-.07,5.57A43.81,43.81,0,0,1,205.85,34.76Z"/><path class="cls-17" d="M232.22,37l-.18-.37a2.52,2.52,0,0,1-.14-.33,2.72,2.72,0,0,1-.2-2.06A2.59,2.59,0,0,1,233,32.69a4.22,4.22,0,0,1,2.61-.45,2.92,2.92,0,0,1,1.79,1,3.24,3.24,0,0,1,.78,2,19.77,19.77,0,0,1,0,2.88,3.63,3.63,0,0,1-.71,2,5.78,5.78,0,0,1-1.54,1.41,8,8,0,0,1-2.44,1,9.36,9.36,0,0,1-2.91.25,9.22,9.22,0,0,1-3-.7,7.85,7.85,0,0,1-2.71-1.88,9.83,9.83,0,0,1-2.65-10.08A15.47,15.47,0,0,1,224,26a11.27,11.27,0,0,1,3.14-3.25A9.86,9.86,0,0,1,231,21a13.09,13.09,0,0,1,4.26-.15,3.38,3.38,0,0,1,.72.24,5.58,5.58,0,0,1,.69.35,2.82,2.82,0,0,1,1.12,1.23,2.61,2.61,0,0,1,.22,1.6,2.73,2.73,0,0,1-.83,1.42,2.8,2.8,0,0,1-1.52.72,1.9,1.9,0,0,1-.58,0l-.58-.08a5.26,5.26,0,0,0-5,2.12,9.59,9.59,0,0,0-1.21,2.19,6.8,6.8,0,0,0-.45,2.49,4.66,4.66,0,0,0,.32,1.66,4.12,4.12,0,0,0,.93,1.43,3.24,3.24,0,0,0,1.41.82A2.8,2.8,0,0,0,232.22,37Z"/><path class="cls-17" d="M253.89,40.45c-.94,0-1.84,0-2.71,0l-2.64,0a.65.65,0,0,1,0,.2.49.49,0,0,0,0,.2,2.74,2.74,0,0,1-.34,2,2.78,2.78,0,0,1-1.58,1.15,3.15,3.15,0,0,1-2.09-.14,3.24,3.24,0,0,1-1.6-1.41,2.7,2.7,0,0,1-.39-1,46.06,46.06,0,0,1-.62-5.93,20.91,20.91,0,0,1,.62-5.88,17.22,17.22,0,0,1,.87-2.63,16.22,16.22,0,0,1,1.28-2.49,14,14,0,0,1,1.68-2.15,8.85,8.85,0,0,1,2.1-1.63A6.4,6.4,0,0,1,251,19.8a6.22,6.22,0,0,1,2.51.24,6.43,6.43,0,0,1,2.26,1.26,8.08,8.08,0,0,1,1.81,2.2,11.34,11.34,0,0,1,1,2.46c.25.84.46,1.69.66,2.54a53.48,53.48,0,0,1,.7,8,69.26,69.26,0,0,1-.34,7.24,3.17,3.17,0,0,1-.51,1.39,2.65,2.65,0,0,1-1,.89,3,3,0,0,1-1.3.34,3,3,0,0,1-1.45-.31,3.06,3.06,0,0,1-1.81-3.35c.05-.35.1-.72.15-1.08S253.84,40.85,253.89,40.45ZM254,34.8c0-.36,0-.7-.05-1s0-.64-.06-1-.1-.81-.16-1.43-.14-1.26-.25-1.93a16.28,16.28,0,0,0-.42-1.88,3.5,3.5,0,0,0-.65-1.33.83.83,0,0,0-1-.25,3.49,3.49,0,0,0-1.35,1.37,9.69,9.69,0,0,0-1,1.68,12.4,12.4,0,0,0-.69,1.91,12.77,12.77,0,0,0-.38,2,6.32,6.32,0,0,0,0,1.8c1,0,1.93,0,2.89,0Z"/><path class="cls-17" d="M274.06,40.12c-.07-.15-.13-.28-.17-.38s-.1-.22-.15-.34a2.84,2.84,0,0,1-.2-2.08,2.32,2.32,0,0,1,1.28-1.43,4.09,4.09,0,0,1,2.59-.22,3.32,3.32,0,0,1,1.79,1.17,3.63,3.63,0,0,1,.77,2,19.77,19.77,0,0,1,0,2.88,3.36,3.36,0,0,1-.7,1.95A5,5,0,0,1,277.74,45a7.65,7.65,0,0,1-2.43.82,9.41,9.41,0,0,1-2.9,0,9.69,9.69,0,0,1-3-1,9,9,0,0,1-2.71-2.12Q262.5,38,264.08,32.41a14,14,0,0,1,1.78-4,10,10,0,0,1,3.12-3,9.28,9.28,0,0,1,3.84-1.4,13.32,13.32,0,0,1,4.23.23,4.47,4.47,0,0,1,.72.31,6,6,0,0,1,.69.41,3.23,3.23,0,0,1,1.11,1.33,2.67,2.67,0,0,1,.22,1.61A2.4,2.4,0,0,1,279,29.3a2.36,2.36,0,0,1-1.51.58,1.63,1.63,0,0,1-.58,0,5.78,5.78,0,0,1-.57-.12,4.8,4.8,0,0,0-5,1.67,8.5,8.5,0,0,0-1.21,2.08,6.48,6.48,0,0,0-.45,2.45,4.7,4.7,0,0,0,.33,1.69,4.38,4.38,0,0,0,.92,1.51,3.63,3.63,0,0,0,1.4,1A2.7,2.7,0,0,0,274.06,40.12Z"/><path class="cls-17" d="M295.59,45.51c-.93-.11-1.83-.2-2.69-.28L290.28,45a1.15,1.15,0,0,1,0,.19.35.35,0,0,0,0,.2,2.64,2.64,0,0,1-.34,2,2.43,2.43,0,0,1-1.56,1A3.08,3.08,0,0,1,286.3,48a3.51,3.51,0,0,1-1.58-1.54,2.87,2.87,0,0,1-.4-1,47.32,47.32,0,0,1-.61-6,20.7,20.7,0,0,1,.61-5.82,17.79,17.79,0,0,1,.86-2.55,14.14,14.14,0,0,1,1.28-2.37,12.47,12.47,0,0,1,1.67-2,7.75,7.75,0,0,1,2.08-1.44,6,6,0,0,1,2.51-.63,6.1,6.1,0,0,1,2.5.46,7.26,7.26,0,0,1,2.24,1.46,9,9,0,0,1,1.79,2.36,12.63,12.63,0,0,1,1,2.56c.23.85.45,1.72.64,2.59a54.69,54.69,0,0,1,.7,8.05,68.43,68.43,0,0,1-.34,7.21,2.91,2.91,0,0,1-.5,1.35,2.4,2.4,0,0,1-1,.8,2.83,2.83,0,0,1-1.29.23,3.18,3.18,0,0,1-1.43-.45,3.3,3.3,0,0,1-1.49-1.51,3.16,3.16,0,0,1-.3-2c0-.35.09-.71.14-1.08S295.55,45.91,295.59,45.51Zm.11-5.64c0-.36,0-.7-.05-1s0-.64-.06-1-.1-.82-.16-1.44-.14-1.28-.25-2a17.72,17.72,0,0,0-.41-1.93,3.7,3.7,0,0,0-.65-1.38.86.86,0,0,0-.95-.33c-.37.09-.82.51-1.34,1.24a8.26,8.26,0,0,0-.95,1.59,12.2,12.2,0,0,0-.69,1.86,13.51,13.51,0,0,0-.37,1.92,6.8,6.8,0,0,0,0,1.81l2.87.29C293.68,39.64,294.67,39.75,295.7,39.87Z"/><path class="cls-17" d="M317.64,48.64a8.52,8.52,0,0,1,1.25.53,4.5,4.5,0,0,1,1.06.75,3.64,3.64,0,0,1,.75,1,2.68,2.68,0,0,1,.25,1.3,1.89,1.89,0,0,1-1.46,1.94,4.67,4.67,0,0,1-1.74.09,38.42,38.42,0,0,1-3.82-.88A27.47,27.47,0,0,1,310.12,52a7.39,7.39,0,0,1-3-2.18A6.72,6.72,0,0,1,306,46.46a4.48,4.48,0,0,1-.07-.7q0-.33,0-.69,0-3.07-.06-6.13c0-2,0-4.09-.05-6.13,0-.65,0-1.29,0-1.92s0-1.27.07-1.91a2.41,2.41,0,0,1,.85-1.87,2.53,2.53,0,0,1,2-.46,3.19,3.19,0,0,1,2,1.06,3.86,3.86,0,0,1,1,2.13,9.25,9.25,0,0,1,0,1.84c-.12,2.42-.14,4.86-.05,7.3s.12,4.9.12,7.37c0,.36.25.67.77.93a8.61,8.61,0,0,0,1.76.65c.67.17,1.32.32,2,.43A13.16,13.16,0,0,1,317.64,48.64Z"/><path class="cls-18" d="M120.87,47.23c0,.53-.05,1-.08,1.51s0,.95-.07,1.43a2.82,2.82,0,0,0,0,.58,2,2,0,0,1-.06.59,3.57,3.57,0,0,1-1.13,1.93,3.77,3.77,0,0,1-2,1,2.39,2.39,0,0,1-1.85-.41,2.1,2.1,0,0,1-.84-1.63c0-.79,0-1.55,0-2.3q.22-3.72.43-7.39t.43-7.35c0-.34,0-.67,0-1a7,7,0,0,1,.07-1,3.56,3.56,0,0,1,.52-1.57,4.16,4.16,0,0,1,1.09-1.19,4,4,0,0,1,1.4-.64,2.39,2.39,0,0,1,1.47.1,2,2,0,0,1,1.43,2.22l-.15,2.56c0,.87-.09,1.72-.14,2.57,0,.25,0,.49-.05.73s0,.54-.06.88a4.63,4.63,0,0,1,.52-.5,4,4,0,0,0,.41-.41c.64-.69,1.28-1.37,1.93-2s1.27-1.34,1.89-2A4.22,4.22,0,0,1,129,32.46a2.7,2.7,0,0,1,1.34.38,1.92,1.92,0,0,1,.8,1,2.65,2.65,0,0,1-.64,2.86c-.43.49-.87,1-1.32,1.42s-.91.93-1.36,1.4-.8.82-1.18,1.23-.78.83-1.18,1.25c0,.08,0,.16.07.23l1.86,1.06,1.86,1a2.67,2.67,0,0,1,1.43,1.44,2.54,2.54,0,0,1-.22,2,3.68,3.68,0,0,1-1.66,1.74,3,3,0,0,1-2.27.28,6.9,6.9,0,0,1-1.09-.44c-.34-.17-.69-.34-1-.5L123,48.16l-1.39-.72-.3-.12Z"/><path class="cls-18" d="M147,44.42c-.93.19-1.83.39-2.69.58l-2.62.59a1.23,1.23,0,0,1,0,.2.32.32,0,0,0,0,.19A3.09,3.09,0,0,1,141.3,48a3.89,3.89,0,0,1-1.56,1.5,3.21,3.21,0,0,1-2.08.33,2.31,2.31,0,0,1-1.58-1,2.17,2.17,0,0,1-.39-.9,43,43,0,0,1-.61-5.8,22.74,22.74,0,0,1,.61-6,22.13,22.13,0,0,1,.86-2.83,21.16,21.16,0,0,1,1.27-2.78A19.41,19.41,0,0,1,139.49,28a12.23,12.23,0,0,1,2.08-2.11,8.09,8.09,0,0,1,2.51-1.43,6.09,6.09,0,0,1,2.49-.33,5.08,5.08,0,0,1,2.25.74,5.66,5.66,0,0,1,1.79,1.79,8.58,8.58,0,0,1,1,2.23c.24.78.45,1.58.64,2.39a50.34,50.34,0,0,1,.71,7.82,71.46,71.46,0,0,1-.35,7.32,3.91,3.91,0,0,1-.5,1.51,3.74,3.74,0,0,1-1,1.11,3.63,3.63,0,0,1-1.29.64,2.81,2.81,0,0,1-1.44,0,2.12,2.12,0,0,1-1.49-1,2.69,2.69,0,0,1-.31-1.89l.15-1.12C146.85,45.24,146.9,44.84,147,44.42Zm.11-5.66c0-.36,0-.69-.06-1s0-.63-.05-1-.1-.79-.16-1.39-.15-1.23-.25-1.87a14.44,14.44,0,0,0-.42-1.8,2.46,2.46,0,0,0-.64-1.17.75.75,0,0,0-.95,0,4.84,4.84,0,0,0-1.35,1.68,13,13,0,0,0-1,1.9,17.26,17.26,0,0,0-.68,2.07,15.79,15.79,0,0,0-.38,2,6.2,6.2,0,0,0,0,1.79l2.87-.62C145,39.17,146,39,147.06,38.76Z"/><path class="cls-18" d="M170.46,31.34q.9-1.61,1.71-3.09c.54-1,1.09-2,1.65-2.92.19-.36.39-.71.59-1a7.39,7.39,0,0,1,.71-1,8.28,8.28,0,0,1,1.8-1.67,3.82,3.82,0,0,1,2.78-.58A3.66,3.66,0,0,1,182,22.51a5,5,0,0,1,.87,1.77,13.16,13.16,0,0,1,.42,2.13c.08.73.13,1.46.14,2.18s0,1.36,0,1.91c0,1.87-.06,3.73-.11,5.57s-.09,3.7-.14,5.57a1.58,1.58,0,0,0,0,.38,2.34,2.34,0,0,1,0,.38,3.18,3.18,0,0,1-1,1.93,3.26,3.26,0,0,1-2,.86,2.69,2.69,0,0,1-1.9-.58,2.73,2.73,0,0,1-.95-1.74,1.51,1.51,0,0,1,0-.57c0-1.44.1-2.87.14-4.28s.1-2.83.15-4.28c0-.48,0-1,0-1.43a10.08,10.08,0,0,0-.16-1.5l-.22.29a1.67,1.67,0,0,0-.18.28c-.58,1.11-1.16,2.2-1.75,3.29S174,36.86,173.42,38a4.26,4.26,0,0,1-1.27,1.54,3.16,3.16,0,0,1-1.84.6,2.74,2.74,0,0,1-2.23-1,18.19,18.19,0,0,1-1.26-1.7,18.55,18.55,0,0,1-1.09-1.86,22.83,22.83,0,0,0-1.11-2.07c-.41-.67-.83-1.39-1.27-2.16,0,.2-.08.35-.1.46a1.2,1.2,0,0,0,0,.31c0,.77,0,1.54,0,2.3s0,1.53.06,2.3c.05,1.05.09,2.08.12,3.1s.07,2,.1,3.1a3.34,3.34,0,0,1-.6,2.12,3.75,3.75,0,0,1-1.78,1.3,2.79,2.79,0,0,1-2.27-.1,2.23,2.23,0,0,1-1.23-1.77,12.89,12.89,0,0,1-.1-1.64c0-.56,0-1.12,0-1.69-.05-1.48-.1-3-.14-4.43s-.1-2.94-.15-4.43a18.69,18.69,0,0,1,.29-4.08,11.23,11.23,0,0,1,1.26-3.53,4.52,4.52,0,0,1,2.16-2,3.52,3.52,0,0,1,2.74,0A4.78,4.78,0,0,1,166,24.54c.48.62.94,1.24,1.37,1.88s.87,1.28,1.3,1.93c.31.48.61,1,.88,1.46S170.15,30.82,170.46,31.34Z"/><path class="cls-18" d="M205.85,34.76a9.93,9.93,0,0,1-2,4.34,11,11,0,0,1-3.38,2.83,11.18,11.18,0,0,1-4.08,1.25,8.93,8.93,0,0,1-4-.45,7.54,7.54,0,0,1-3.22-2.3,8.36,8.36,0,0,1-1.72-4.3,22.11,22.11,0,0,1-.11-4.53c.13-1.52.32-3.05.58-4.58.12-.7.25-1.4.38-2.09s.29-1.38.46-2.06A3.21,3.21,0,0,1,189.91,21a3.14,3.14,0,0,1,2-.66,2.77,2.77,0,0,1,2,.81,2.47,2.47,0,0,1,.69,2,45.71,45.71,0,0,1-.62,4.58c-.29,1.54-.51,3.07-.65,4.59a7,7,0,0,0,.25,3.06,3.18,3.18,0,0,0,1.16,1.62,2.22,2.22,0,0,0,1.65.3,3.56,3.56,0,0,0,1.73-.89,5.75,5.75,0,0,0,1.4-1.94,7.64,7.64,0,0,0,.65-2.89c0-1.27.08-2.53.11-3.78s.05-2.51.07-3.78a2.86,2.86,0,0,1,.4-1.48,3.36,3.36,0,0,1,1-1.08,3.14,3.14,0,0,1,1.35-.49,3,3,0,0,1,1.51.21,2.72,2.72,0,0,1,1.75,2.61c0,1.95,0,3.8-.07,5.57A43.81,43.81,0,0,1,205.85,34.76Z"/><path class="cls-18" d="M232.22,37l-.18-.37a2.52,2.52,0,0,1-.14-.33,2.72,2.72,0,0,1-.2-2.06A2.59,2.59,0,0,1,233,32.69a4.22,4.22,0,0,1,2.61-.45,2.92,2.92,0,0,1,1.79,1,3.24,3.24,0,0,1,.78,2,19.77,19.77,0,0,1,0,2.88,3.63,3.63,0,0,1-.71,2,5.78,5.78,0,0,1-1.54,1.41,8,8,0,0,1-2.44,1,9.36,9.36,0,0,1-2.91.25,9.22,9.22,0,0,1-3-.7,7.85,7.85,0,0,1-2.71-1.88,9.83,9.83,0,0,1-2.65-10.08A15.47,15.47,0,0,1,224,26a11.27,11.27,0,0,1,3.14-3.25A9.86,9.86,0,0,1,231,21a13.09,13.09,0,0,1,4.26-.15,3.38,3.38,0,0,1,.72.24,5.58,5.58,0,0,1,.69.35,2.82,2.82,0,0,1,1.12,1.23,2.61,2.61,0,0,1,.22,1.6,2.73,2.73,0,0,1-.83,1.42,2.8,2.8,0,0,1-1.52.72,1.9,1.9,0,0,1-.58,0l-.58-.08a5.26,5.26,0,0,0-5,2.12,9.59,9.59,0,0,0-1.21,2.19,6.8,6.8,0,0,0-.45,2.49,4.66,4.66,0,0,0,.32,1.66,4.12,4.12,0,0,0,.93,1.43,3.24,3.24,0,0,0,1.41.82A2.8,2.8,0,0,0,232.22,37Z"/><path class="cls-18" d="M253.89,40.45c-.94,0-1.84,0-2.71,0l-2.64,0a.65.65,0,0,1,0,.2.49.49,0,0,0,0,.2,2.74,2.74,0,0,1-.34,2,2.78,2.78,0,0,1-1.58,1.15,3.15,3.15,0,0,1-2.09-.14,3.24,3.24,0,0,1-1.6-1.41,2.7,2.7,0,0,1-.39-1,46.06,46.06,0,0,1-.62-5.93,20.91,20.91,0,0,1,.62-5.88,17.22,17.22,0,0,1,.87-2.63,16.22,16.22,0,0,1,1.28-2.49,14,14,0,0,1,1.68-2.15,8.85,8.85,0,0,1,2.1-1.63A6.4,6.4,0,0,1,251,19.8a6.22,6.22,0,0,1,2.51.24,6.43,6.43,0,0,1,2.26,1.26,8.08,8.08,0,0,1,1.81,2.2,11.34,11.34,0,0,1,1,2.46c.25.84.46,1.69.66,2.54a53.48,53.48,0,0,1,.7,8,69.26,69.26,0,0,1-.34,7.24,3.17,3.17,0,0,1-.51,1.39,2.65,2.65,0,0,1-1,.89,3,3,0,0,1-1.3.34,3,3,0,0,1-1.45-.31,3.06,3.06,0,0,1-1.81-3.35c.05-.35.1-.72.15-1.08S253.84,40.85,253.89,40.45ZM254,34.8c0-.36,0-.7-.05-1s0-.64-.06-1-.1-.81-.16-1.43-.14-1.26-.25-1.93a16.28,16.28,0,0,0-.42-1.88,3.5,3.5,0,0,0-.65-1.33.83.83,0,0,0-1-.25,3.49,3.49,0,0,0-1.35,1.37,9.69,9.69,0,0,0-1,1.68,12.4,12.4,0,0,0-.69,1.91,12.77,12.77,0,0,0-.38,2,6.32,6.32,0,0,0,0,1.8c1,0,1.93,0,2.89,0Z"/><path class="cls-18" d="M274.06,40.12c-.07-.15-.13-.28-.17-.38s-.1-.22-.15-.34a2.84,2.84,0,0,1-.2-2.08,2.32,2.32,0,0,1,1.28-1.43,4.09,4.09,0,0,1,2.59-.22,3.32,3.32,0,0,1,1.79,1.17,3.63,3.63,0,0,1,.77,2,19.77,19.77,0,0,1,0,2.88,3.36,3.36,0,0,1-.7,1.95A5,5,0,0,1,277.74,45a7.65,7.65,0,0,1-2.43.82,9.41,9.41,0,0,1-2.9,0,9.69,9.69,0,0,1-3-1,9,9,0,0,1-2.71-2.12Q262.5,38,264.08,32.41a14,14,0,0,1,1.78-4,10,10,0,0,1,3.12-3,9.28,9.28,0,0,1,3.84-1.4,13.32,13.32,0,0,1,4.23.23,4.47,4.47,0,0,1,.72.31,6,6,0,0,1,.69.41,3.23,3.23,0,0,1,1.11,1.33,2.67,2.67,0,0,1,.22,1.61A2.4,2.4,0,0,1,279,29.3a2.36,2.36,0,0,1-1.51.58,1.63,1.63,0,0,1-.58,0,5.78,5.78,0,0,1-.57-.12,4.8,4.8,0,0,0-5,1.67,8.5,8.5,0,0,0-1.21,2.08,6.48,6.48,0,0,0-.45,2.45,4.7,4.7,0,0,0,.33,1.69,4.38,4.38,0,0,0,.92,1.51,3.63,3.63,0,0,0,1.4,1A2.7,2.7,0,0,0,274.06,40.12Z"/><path class="cls-18" d="M295.59,45.51c-.93-.11-1.83-.2-2.69-.28L290.28,45a1.15,1.15,0,0,1,0,.19.35.35,0,0,0,0,.2,2.64,2.64,0,0,1-.34,2,2.43,2.43,0,0,1-1.56,1A3.08,3.08,0,0,1,286.3,48a3.51,3.51,0,0,1-1.58-1.54,2.87,2.87,0,0,1-.4-1,47.32,47.32,0,0,1-.61-6,20.7,20.7,0,0,1,.61-5.82,17.79,17.79,0,0,1,.86-2.55,14.14,14.14,0,0,1,1.28-2.37,12.47,12.47,0,0,1,1.67-2,7.75,7.75,0,0,1,2.08-1.44,6,6,0,0,1,2.51-.63,6.1,6.1,0,0,1,2.5.46,7.26,7.26,0,0,1,2.24,1.46,9,9,0,0,1,1.79,2.36,12.63,12.63,0,0,1,1,2.56c.23.85.45,1.72.64,2.59a54.69,54.69,0,0,1,.7,8.05,68.43,68.43,0,0,1-.34,7.21,2.91,2.91,0,0,1-.5,1.35,2.4,2.4,0,0,1-1,.8,2.83,2.83,0,0,1-1.29.23,3.18,3.18,0,0,1-1.43-.45,3.3,3.3,0,0,1-1.49-1.51,3.16,3.16,0,0,1-.3-2c0-.35.09-.71.14-1.08S295.55,45.91,295.59,45.51Zm.11-5.64c0-.36,0-.7-.05-1s0-.64-.06-1-.1-.82-.16-1.44-.14-1.28-.25-2a17.72,17.72,0,0,0-.41-1.93,3.7,3.7,0,0,0-.65-1.38.86.86,0,0,0-.95-.33c-.37.09-.82.51-1.34,1.24a8.26,8.26,0,0,0-.95,1.59,12.2,12.2,0,0,0-.69,1.86,13.51,13.51,0,0,0-.37,1.92,6.8,6.8,0,0,0,0,1.81l2.87.29C293.68,39.64,294.67,39.75,295.7,39.87Z"/><path class="cls-18" d="M317.64,48.64a8.52,8.52,0,0,1,1.25.53,4.5,4.5,0,0,1,1.06.75,3.64,3.64,0,0,1,.75,1,2.68,2.68,0,0,1,.25,1.3,1.89,1.89,0,0,1-1.46,1.94,4.67,4.67,0,0,1-1.74.09,38.42,38.42,0,0,1-3.82-.88A27.47,27.47,0,0,1,310.12,52a7.39,7.39,0,0,1-3-2.18A6.72,6.72,0,0,1,306,46.46a4.48,4.48,0,0,1-.07-.7q0-.33,0-.69,0-3.07-.06-6.13c0-2,0-4.09-.05-6.13,0-.65,0-1.29,0-1.92s0-1.27.07-1.91a2.41,2.41,0,0,1,.85-1.87,2.53,2.53,0,0,1,2-.46,3.19,3.19,0,0,1,2,1.06,3.86,3.86,0,0,1,1,2.13,9.25,9.25,0,0,1,0,1.84c-.12,2.42-.14,4.86-.05,7.3s.12,4.9.12,7.37c0,.36.25.67.77.93a8.61,8.61,0,0,0,1.76.65c.67.17,1.32.32,2,.43A13.16,13.16,0,0,1,317.64,48.64Z"/><g class="cls-19"><path class="cls-20" d="M120.87,47.23c0,.53-.05,1-.08,1.51s0,.95-.07,1.43a2.82,2.82,0,0,0,0,.58,2,2,0,0,1-.06.59,3.57,3.57,0,0,1-1.13,1.93,3.77,3.77,0,0,1-2,1,2.39,2.39,0,0,1-1.85-.41,2.1,2.1,0,0,1-.84-1.63c0-.79,0-1.55,0-2.3q.22-3.72.43-7.39t.43-7.35c0-.34,0-.67,0-1a7,7,0,0,1,.07-1,3.56,3.56,0,0,1,.52-1.57,4.16,4.16,0,0,1,1.09-1.19,4,4,0,0,1,1.4-.64,2.39,2.39,0,0,1,1.47.1,2,2,0,0,1,1.43,2.22l-.15,2.56c0,.87-.09,1.72-.14,2.57,0,.25,0,.49-.05.73s0,.54-.06.88a4.63,4.63,0,0,1,.52-.5,4,4,0,0,0,.41-.41c.64-.69,1.28-1.37,1.93-2s1.27-1.34,1.89-2A4.22,4.22,0,0,1,129,32.46a2.7,2.7,0,0,1,1.34.38,1.92,1.92,0,0,1,.8,1,2.65,2.65,0,0,1-.64,2.86c-.43.49-.87,1-1.32,1.42s-.91.93-1.36,1.4-.8.82-1.18,1.23-.78.83-1.18,1.25c0,.08,0,.16.07.23l1.86,1.06,1.86,1a2.67,2.67,0,0,1,1.43,1.44,2.54,2.54,0,0,1-.22,2,3.68,3.68,0,0,1-1.66,1.74,3,3,0,0,1-2.27.28,6.9,6.9,0,0,1-1.09-.44c-.34-.17-.69-.34-1-.5L123,48.16l-1.39-.72-.3-.12Z"/><path class="cls-20" d="M147,44.42c-.93.19-1.83.39-2.69.58l-2.62.59a1.23,1.23,0,0,1,0,.2.32.32,0,0,0,0,.19A3.09,3.09,0,0,1,141.3,48a3.89,3.89,0,0,1-1.56,1.5,3.21,3.21,0,0,1-2.08.33,2.31,2.31,0,0,1-1.58-1,2.17,2.17,0,0,1-.39-.9,43,43,0,0,1-.61-5.8,22.74,22.74,0,0,1,.61-6,22.13,22.13,0,0,1,.86-2.83,21.16,21.16,0,0,1,1.27-2.78A19.41,19.41,0,0,1,139.49,28a12.23,12.23,0,0,1,2.08-2.11,8.09,8.09,0,0,1,2.51-1.43,6.09,6.09,0,0,1,2.49-.33,5.08,5.08,0,0,1,2.25.74,5.66,5.66,0,0,1,1.79,1.79,8.58,8.58,0,0,1,1,2.23c.24.78.45,1.58.64,2.39a50.34,50.34,0,0,1,.71,7.82,71.46,71.46,0,0,1-.35,7.32,3.91,3.91,0,0,1-.5,1.51,3.74,3.74,0,0,1-1,1.11,3.63,3.63,0,0,1-1.29.64,2.81,2.81,0,0,1-1.44,0,2.12,2.12,0,0,1-1.49-1,2.69,2.69,0,0,1-.31-1.89l.15-1.12C146.85,45.24,146.9,44.84,147,44.42Zm.11-5.66c0-.36,0-.69-.06-1s0-.63-.05-1-.1-.79-.16-1.39-.15-1.23-.25-1.87a14.44,14.44,0,0,0-.42-1.8,2.46,2.46,0,0,0-.64-1.17.75.75,0,0,0-.95,0,4.84,4.84,0,0,0-1.35,1.68,13,13,0,0,0-1,1.9,17.26,17.26,0,0,0-.68,2.07,15.79,15.79,0,0,0-.38,2,6.2,6.2,0,0,0,0,1.79l2.87-.62C145,39.17,146,39,147.06,38.76Z"/><path class="cls-20" d="M170.46,31.34q.9-1.61,1.71-3.09c.54-1,1.09-2,1.65-2.92.19-.36.39-.71.59-1a7.39,7.39,0,0,1,.71-1,8.28,8.28,0,0,1,1.8-1.67,3.82,3.82,0,0,1,2.78-.58A3.66,3.66,0,0,1,182,22.51a5,5,0,0,1,.87,1.77,13.16,13.16,0,0,1,.42,2.13c.08.73.13,1.46.14,2.18s0,1.36,0,1.91c0,1.87-.06,3.73-.11,5.57s-.09,3.7-.14,5.57a1.58,1.58,0,0,0,0,.38,2.34,2.34,0,0,1,0,.38,3.18,3.18,0,0,1-1,1.93,3.26,3.26,0,0,1-2,.86,2.69,2.69,0,0,1-1.9-.58,2.73,2.73,0,0,1-.95-1.74,1.51,1.51,0,0,1,0-.57c0-1.44.1-2.87.14-4.28s.1-2.83.15-4.28c0-.48,0-1,0-1.43a10.08,10.08,0,0,0-.16-1.5l-.22.29a1.67,1.67,0,0,0-.18.28c-.58,1.11-1.16,2.2-1.75,3.29S174,36.86,173.42,38a4.26,4.26,0,0,1-1.27,1.54,3.16,3.16,0,0,1-1.84.6,2.74,2.74,0,0,1-2.23-1,18.19,18.19,0,0,1-1.26-1.7,18.55,18.55,0,0,1-1.09-1.86,22.83,22.83,0,0,0-1.11-2.07c-.41-.67-.83-1.39-1.27-2.16,0,.2-.08.35-.1.46a1.2,1.2,0,0,0,0,.31c0,.77,0,1.54,0,2.3s0,1.53.06,2.3c.05,1.05.09,2.08.12,3.1s.07,2,.1,3.1a3.34,3.34,0,0,1-.6,2.12,3.75,3.75,0,0,1-1.78,1.3,2.79,2.79,0,0,1-2.27-.1,2.23,2.23,0,0,1-1.23-1.77,12.89,12.89,0,0,1-.1-1.64c0-.56,0-1.12,0-1.69-.05-1.48-.1-3-.14-4.43s-.1-2.94-.15-4.43a18.69,18.69,0,0,1,.29-4.08,11.23,11.23,0,0,1,1.26-3.53,4.52,4.52,0,0,1,2.16-2,3.52,3.52,0,0,1,2.74,0A4.78,4.78,0,0,1,166,24.54c.48.62.94,1.24,1.37,1.88s.87,1.28,1.3,1.93c.31.48.61,1,.88,1.46S170.15,30.82,170.46,31.34Z"/><path class="cls-20" d="M205.85,34.76a9.93,9.93,0,0,1-2,4.34,11,11,0,0,1-3.38,2.83,11.18,11.18,0,0,1-4.08,1.25,8.93,8.93,0,0,1-4-.45,7.54,7.54,0,0,1-3.22-2.3,8.36,8.36,0,0,1-1.72-4.3,22.11,22.11,0,0,1-.11-4.53c.13-1.52.32-3.05.58-4.58.12-.7.25-1.4.38-2.09s.29-1.38.46-2.06A3.21,3.21,0,0,1,189.91,21a3.14,3.14,0,0,1,2-.66,2.77,2.77,0,0,1,2,.81,2.47,2.47,0,0,1,.69,2,45.71,45.71,0,0,1-.62,4.58c-.29,1.54-.51,3.07-.65,4.59a7,7,0,0,0,.25,3.06,3.18,3.18,0,0,0,1.16,1.62,2.22,2.22,0,0,0,1.65.3,3.56,3.56,0,0,0,1.73-.89,5.75,5.75,0,0,0,1.4-1.94,7.64,7.64,0,0,0,.65-2.89c0-1.27.08-2.53.11-3.78s.05-2.51.07-3.78a2.86,2.86,0,0,1,.4-1.48,3.36,3.36,0,0,1,1-1.08,3.14,3.14,0,0,1,1.35-.49,3,3,0,0,1,1.51.21,2.72,2.72,0,0,1,1.75,2.61c0,1.95,0,3.8-.07,5.57A43.81,43.81,0,0,1,205.85,34.76Z"/><path class="cls-20" d="M232.22,37l-.18-.37a2.52,2.52,0,0,1-.14-.33,2.72,2.72,0,0,1-.2-2.06A2.59,2.59,0,0,1,233,32.69a4.22,4.22,0,0,1,2.61-.45,2.92,2.92,0,0,1,1.79,1,3.24,3.24,0,0,1,.78,2,19.77,19.77,0,0,1,0,2.88,3.63,3.63,0,0,1-.71,2,5.78,5.78,0,0,1-1.54,1.41,8,8,0,0,1-2.44,1,9.36,9.36,0,0,1-2.91.25,9.22,9.22,0,0,1-3-.7,7.85,7.85,0,0,1-2.71-1.88,9.83,9.83,0,0,1-2.65-10.08A15.47,15.47,0,0,1,224,26a11.27,11.27,0,0,1,3.14-3.25A9.86,9.86,0,0,1,231,21a13.09,13.09,0,0,1,4.26-.15,3.38,3.38,0,0,1,.72.24,5.58,5.58,0,0,1,.69.35,2.82,2.82,0,0,1,1.12,1.23,2.61,2.61,0,0,1,.22,1.6,2.73,2.73,0,0,1-.83,1.42,2.8,2.8,0,0,1-1.52.72,1.9,1.9,0,0,1-.58,0l-.58-.08a5.26,5.26,0,0,0-5,2.12,9.59,9.59,0,0,0-1.21,2.19,6.8,6.8,0,0,0-.45,2.49,4.66,4.66,0,0,0,.32,1.66,4.12,4.12,0,0,0,.93,1.43,3.24,3.24,0,0,0,1.41.82A2.8,2.8,0,0,0,232.22,37Z"/><path class="cls-20" d="M253.89,40.45c-.94,0-1.84,0-2.71,0l-2.64,0a.65.65,0,0,1,0,.2.49.49,0,0,0,0,.2,2.74,2.74,0,0,1-.34,2,2.78,2.78,0,0,1-1.58,1.15,3.15,3.15,0,0,1-2.09-.14,3.24,3.24,0,0,1-1.6-1.41,2.7,2.7,0,0,1-.39-1,46.06,46.06,0,0,1-.62-5.93,20.91,20.91,0,0,1,.62-5.88,17.22,17.22,0,0,1,.87-2.63,16.22,16.22,0,0,1,1.28-2.49,14,14,0,0,1,1.68-2.15,8.85,8.85,0,0,1,2.1-1.63A6.4,6.4,0,0,1,251,19.8a6.22,6.22,0,0,1,2.51.24,6.43,6.43,0,0,1,2.26,1.26,8.08,8.08,0,0,1,1.81,2.2,11.34,11.34,0,0,1,1,2.46c.25.84.46,1.69.66,2.54a53.48,53.48,0,0,1,.7,8,69.26,69.26,0,0,1-.34,7.24,3.17,3.17,0,0,1-.51,1.39,2.65,2.65,0,0,1-1,.89,3,3,0,0,1-1.3.34,3,3,0,0,1-1.45-.31,3.06,3.06,0,0,1-1.81-3.35c.05-.35.1-.72.15-1.08S253.84,40.85,253.89,40.45ZM254,34.8c0-.36,0-.7-.05-1s0-.64-.06-1-.1-.81-.16-1.43-.14-1.26-.25-1.93a16.28,16.28,0,0,0-.42-1.88,3.5,3.5,0,0,0-.65-1.33.83.83,0,0,0-1-.25,3.49,3.49,0,0,0-1.35,1.37,9.69,9.69,0,0,0-1,1.68,12.4,12.4,0,0,0-.69,1.91,12.77,12.77,0,0,0-.38,2,6.32,6.32,0,0,0,0,1.8c1,0,1.93,0,2.89,0Z"/><path class="cls-20" d="M274.06,40.12c-.07-.15-.13-.28-.17-.38s-.1-.22-.15-.34a2.84,2.84,0,0,1-.2-2.08,2.32,2.32,0,0,1,1.28-1.43,4.09,4.09,0,0,1,2.59-.22,3.32,3.32,0,0,1,1.79,1.17,3.63,3.63,0,0,1,.77,2,19.77,19.77,0,0,1,0,2.88,3.36,3.36,0,0,1-.7,1.95A5,5,0,0,1,277.74,45a7.65,7.65,0,0,1-2.43.82,9.41,9.41,0,0,1-2.9,0,9.69,9.69,0,0,1-3-1,9,9,0,0,1-2.71-2.12Q262.5,38,264.08,32.41a14,14,0,0,1,1.78-4,10,10,0,0,1,3.12-3,9.28,9.28,0,0,1,3.84-1.4,13.32,13.32,0,0,1,4.23.23,4.47,4.47,0,0,1,.72.31,6,6,0,0,1,.69.41,3.23,3.23,0,0,1,1.11,1.33,2.67,2.67,0,0,1,.22,1.61A2.4,2.4,0,0,1,279,29.3a2.36,2.36,0,0,1-1.51.58,1.63,1.63,0,0,1-.58,0,5.78,5.78,0,0,1-.57-.12,4.8,4.8,0,0,0-5,1.67,8.5,8.5,0,0,0-1.21,2.08,6.48,6.48,0,0,0-.45,2.45,4.7,4.7,0,0,0,.33,1.69,4.38,4.38,0,0,0,.92,1.51,3.63,3.63,0,0,0,1.4,1A2.7,2.7,0,0,0,274.06,40.12Z"/><path class="cls-20" d="M295.59,45.51c-.93-.11-1.83-.2-2.69-.28L290.28,45a1.15,1.15,0,0,1,0,.19.35.35,0,0,0,0,.2,2.64,2.64,0,0,1-.34,2,2.43,2.43,0,0,1-1.56,1A3.08,3.08,0,0,1,286.3,48a3.51,3.51,0,0,1-1.58-1.54,2.87,2.87,0,0,1-.4-1,47.32,47.32,0,0,1-.61-6,20.7,20.7,0,0,1,.61-5.82,17.79,17.79,0,0,1,.86-2.55,14.14,14.14,0,0,1,1.28-2.37,12.47,12.47,0,0,1,1.67-2,7.75,7.75,0,0,1,2.08-1.44,6,6,0,0,1,2.51-.63,6.1,6.1,0,0,1,2.5.46,7.26,7.26,0,0,1,2.24,1.46,9,9,0,0,1,1.79,2.36,12.63,12.63,0,0,1,1,2.56c.23.85.45,1.72.64,2.59a54.69,54.69,0,0,1,.7,8.05,68.43,68.43,0,0,1-.34,7.21,2.91,2.91,0,0,1-.5,1.35,2.4,2.4,0,0,1-1,.8,2.83,2.83,0,0,1-1.29.23,3.18,3.18,0,0,1-1.43-.45,3.3,3.3,0,0,1-1.49-1.51,3.16,3.16,0,0,1-.3-2c0-.35.09-.71.14-1.08S295.55,45.91,295.59,45.51Zm.11-5.64c0-.36,0-.7-.05-1s0-.64-.06-1-.1-.82-.16-1.44-.14-1.28-.25-2a17.72,17.72,0,0,0-.41-1.93,3.7,3.7,0,0,0-.65-1.38.86.86,0,0,0-.95-.33c-.37.09-.82.51-1.34,1.24a8.26,8.26,0,0,0-.95,1.59,12.2,12.2,0,0,0-.69,1.86,13.51,13.51,0,0,0-.37,1.92,6.8,6.8,0,0,0,0,1.81l2.87.29C293.68,39.64,294.67,39.75,295.7,39.87Z"/><path class="cls-20" d="M317.64,48.64a8.52,8.52,0,0,1,1.25.53,4.5,4.5,0,0,1,1.06.75,3.64,3.64,0,0,1,.75,1,2.68,2.68,0,0,1,.25,1.3,1.89,1.89,0,0,1-1.46,1.94,4.67,4.67,0,0,1-1.74.09,38.42,38.42,0,0,1-3.82-.88A27.47,27.47,0,0,1,310.12,52a7.39,7.39,0,0,1-3-2.18A6.72,6.72,0,0,1,306,46.46a4.48,4.48,0,0,1-.07-.7q0-.33,0-.69,0-3.07-.06-6.13c0-2,0-4.09-.05-6.13,0-.65,0-1.29,0-1.92s0-1.27.07-1.91a2.41,2.41,0,0,1,.85-1.87,2.53,2.53,0,0,1,2-.46,3.19,3.19,0,0,1,2,1.06,3.86,3.86,0,0,1,1,2.13,9.25,9.25,0,0,1,0,1.84c-.12,2.42-.14,4.86-.05,7.3s.12,4.9.12,7.37c0,.36.25.67.77.93a8.61,8.61,0,0,0,1.76.65c.67.17,1.32.32,2,.43A13.16,13.16,0,0,1,317.64,48.64Z"/></g></g></g></g></g></g></g></g></g></svg>